<?xml version="1.0" encoding="utf-8"?>
<svg xmlns="http://www.w3.org/2000/svg" viewBox="0 0 1503 1490">
	<title>Part of an envelope’s right-hand side, showing a postmark and the ends of four words.</title>
	<path d="M1291.19 1488.62c-.2-.2-22.94-.57-50.53-.82-27.6-.26-63.41-.74-79.59-1.08-16.17-.34-48.65-.83-72.16-1.08-28.47-.3-43.25-.87-44.23-1.69-.82-.67-2.87-3.39-4.57-6.03-3.61-5.63-20.72-18.23-29.96-22.06-5.35-2.22-17.66-9.69-19.3-11.72-.32-.38-1.72-1.05-3.12-1.49-1.4-.43-2.54-1.2-2.54-1.72 0-.51-1.24-1.24-2.74-1.62-1.51-.38-4.4-2.09-6.4-3.8a76.15 76.15 0 0 0-9.68-6.5c-3.3-1.87-10.22-6-15.37-9.18-5.15-3.17-11.2-6.37-13.43-7.1a18.8 18.8 0 0 1-6.7-4.1c-6.01-6.41-33.7-17.5-43.7-17.53-10.73-.01-19.87-2.2-25.88-6.18-5.54-3.68-15.22-13.2-15.23-14.99 0-.48-1.5-2.47-3.34-4.42-4.39-4.69-7.96-10.64-7.96-13.28 0-1.17-1.78-4.09-3.95-6.49a73.57 73.57 0 0 1-7.6-10.87c-3.26-5.75-17.2-21.98-20.96-24.4-.77-.49-6.2-6.6-12.07-13.57-15.36-18.25-19.51-22.4-28.38-28.44a166.44 166.44 0 0 1-10.18-7.35c-1.25-1.09-5.68-3.85-9.85-6.14-4.17-2.3-7.9-4.67-8.28-5.3-1.4-2.24-12.63-7.22-21.78-9.63-5.15-1.35-10.28-3.3-11.4-4.3-1.12-1.02-2.7-1.85-3.5-1.85-.8 0-4.33-1.2-7.83-2.67-8.13-3.42-13.86-5.24-16.62-5.28-2.6-.05-12.14-3.3-16.88-5.75-1.87-.97-6.83-3.6-11.02-5.85-5.3-2.84-9.78-4.32-14.7-4.85-3.9-.42-8.8-1.47-10.9-2.32a25.8 25.8 0 0 0-8.13-1.55c-2.38 0-4.6-.45-4.93-.99-1.24-2-9.98-2.5-15.24-.86-4.72 1.48-8.86 2.3-31.3 6.29a91.5 91.5 0 0 1-13 1.22c-3.39.01-8.7.8-11.81 1.75-3.39 1.04-9.74 1.71-15.84 1.68-24.9-.14-28.85.08-32.88 1.76-2.1.87-6 1.59-8.68 1.59-2.68 0-5.88.7-7.1 1.54-2.87 1.98-12.2 3-29.95 3.28-16.37.25-32.68-2.88-39.53-7.6-5.28-3.62-9.5-5.14-14.32-5.14-2.17 0-5.57-.84-7.56-1.88-4.14-2.14-8.43-3.35-18.98-5.35a45.17 45.17 0 0 1-14.28-5.57c-5.82-3.54-7.86-4.17-13.5-4.18-6.95-.02-15.32-2-17.46-4.14-.69-.69-2.45-5.48-3.9-10.65l-2.66-9.4 2.76-2.55c3.6-3.34 3.48-5.6-.36-6.45-1.71-.37-6.23-3.65-10.04-7.28-6.9-6.58-6.94-6.64-7.69-14.45-1.12-11.73-.14-21.57 4.34-43.65 2.23-10.99 4.06-21.82 4.06-24.08 0-4.2 3.77-13.07 5.57-13.07 1.71 0 2.59 12.92 1.3 19.34-2.97 14.89-3.53 17.28-5.15 22.06-.98 2.88-1.72 9-1.72 14.2v9.15l5.94-.64a84.05 84.05 0 0 0 11.03-2.06c6.2-1.72 25.4-1.72 29.7 0a8.4 8.4 0 0 1 4.22 4.1c.6 1.57 1.73 2.9 2.52 2.97 4.5.4 10.22-.88 21.8-4.87l8.49-2.9c2.8-.96 5.85-2.4 6.79-3.2a20 20 0 0 1 4.8-2.62c3.38-1.28 3.9-2.61 1.7-4.32-1.6-1.23-31.5.1-41.57 1.85-15.76 2.75-16.26 2.76-18.59.18-1.97-2.17-2.01-2.58-.43-4.16.96-.96 3.98-2.03 6.7-2.38 2.74-.35 5.58-1.1 6.32-1.7.75-.58 15.25-1.23 32.24-1.44 16.98-.2 31.77-.72 32.85-1.16 1.08-.43 3.75-3.72 5.94-7.31 4.05-6.68 11.12-13.69 16.7-16.58 2.32-1.2 3.7-1.3 5.38-.4 2.96 1.58 2.84 3.32-.54 7.38-9 10.82-10.85 13.48-10.51 15.11.45 2.22 6.8 1.97 14.29-.55a85.25 85.25 0 0 1 11.31-2.67c3.5-.56 10.94-2.1 16.54-3.43 9.6-2.29 25.34-4.45 36.76-5.06 2.8-.15 7.38-.61 10.18-1.02 2.8-.42 11.45-1.27 19.23-1.89 7.78-.62 16.94-1.37 20.36-1.66 17.61-1.49 50.43-2.52 52.7-1.65 3.9 1.47 5.24 4.75 3.17 7.7-1.76 2.5-6.56 3.3-7.8 1.3-.9-1.47-40.92-1.5-47.29-.04-2.6.6-17.97 1.93-34.15 2.95-16.17 1.02-29.89 2.3-30.48 2.86-.6.56-4.47 1.02-8.62 1.02-4.23 0-10.46.93-14.2 2.11-3.65 1.16-11.99 2.78-18.52 3.6-6.53.83-12.55 2.17-13.37 2.99-.83.81-3.12 1.48-5.1 1.48-9.6 0-18.24 5.3-23.63 14.52l-7.38 12.6c-6.15 10.45-6.5 11.34-5.23 13.34 2.32 3.69 6.94 3.75 12.24.18 2.7-1.82 5.66-3.32 6.58-3.32.93 0 2.3-1.5 3.07-3.35.76-1.84 3.13-4.67 5.26-6.3a66.18 66.18 0 0 0 5.82-4.96c1.07-1.1 4.43-3.23 7.47-4.72 3.03-1.49 6.03-3.84 6.66-5.22 1.27-2.79 12.53-11.64 14.8-11.64.8 0 4.47 1.47 8.16 3.26 7.15 3.48 11.8 8.55 11.8 12.87 0 4.88 4.99 7.19 7.91 3.66.78-.93 3.07-1.7 5.1-1.7 3.77 0 6.94-2.42 5.73-4.39-1.76-2.84 1.76-1.94 5.69 1.46l4.38 3.79-3.56 3.33c-5.1 4.76-6.7 11.4-4.08 16.98 2.83 6.03 7.58 6.46 13.86 1.25 2.48-2.06 4.52-4.77 4.54-6.01.02-2.26 3.94-9.62 5.12-9.62.34 0 2.37.73 4.5 1.63 2.73 1.14 4.09 2.56 4.58 4.8 2.16 9.95 5.22 11.82 21.2 12.97 10.95.8 13.51.62 19.72-1.3 6.64-2.04 13.89-2.06 13.89-.03 0 2.48-12.77 9.63-15.4 8.63-.87-.34-2.82-.15-4.32.42-3.89 1.48-30.77 3.77-34.19 2.92-1.56-.4-5.33-3.05-8.37-5.89l-5.53-5.17-3.41 2.88c-1.88 1.58-4.57 3.2-5.97 3.58a71.2 71.2 0 0 0-6.76 2.5c-4.1 1.74-4.31 1.71-8.16-1.22-4.38-3.34-6.28-8.37-6.29-16.68 0-5.33-2.68-9.63-4.34-6.96-.42.69-2.68 1.6-5.02 2.04-3.77.7-4.55 1.45-6.67 6.39-1.8 4.18-3.48 6.13-6.68 7.77-2.35 1.2-4.56 3.08-4.91 4.18-1.39 4.34-15.88 9.65-27.24 9.98-5.39.15-7.65-.35-10.94-2.44-2.29-1.45-4.47-3.61-4.85-4.81-.99-3.13-4.44-3.65-11.16-1.68a87.7 87.7 0 0 1-9.95 2.28c-3.64.5-4.38.15-6.78-3.21-3.86-5.41-3.37-11.84 1.72-22.41 5.9-12.28 5-17.19-2.28-12.39-1.8 1.2-4.04 2.16-4.99 2.17-.94 0-3.53 1.24-5.75 2.75-2.22 1.5-7.04 3.62-10.72 4.68-3.68 1.07-7.71 2.61-8.96 3.42-1.24.82-5.76 1.84-10.03 2.28-7.08.72-8.39 1.28-14.7 6.33-3.82 3.05-7.4 6.52-7.95 7.72a6 6 0 0 1-3.1 2.85c-1.16.37-2.1 1.18-2.1 1.82 0 .63-1.8 3.33-3.99 6l-3.97 4.85 1.6 6.85c.87 3.76 1.88 7.31 2.24 7.89.36.58 4.47 1.34 9.13 1.7 7.07.53 9.58 1.3 15.03 4.62a48.1 48.1 0 0 0 15.02 5.7c9.42 1.9 15.26 3.73 18.66 5.84 1.24.78 5.57 1.77 9.61 2.21 8.02.88 11.94 2.48 14.98 6.1 1.08 1.3 3.17 2.36 4.64 2.36 3.45 0 9.87 2.17 12.1 4.08.96.83 4.52 1.82 7.92 2.2 8.5.98 34.55-1.28 40.7-3.53 7.32-2.68 17.04-3.87 40.69-5 11.5-.55 25.76-1.8 31.67-2.8 5.91-1 12.44-1.78 14.5-1.73 2.07.04 5.27-.67 7.1-1.59a12.69 12.69 0 0 1 7.26-1.02c2.17.35 4.6.08 5.42-.6 2.36-1.97 21.17-3.74 25.72-2.44 2.14.62 7.42 1.12 11.74 1.12 4.31 0 9.4.5 11.32 1.12 1.9.62 8.56 2.74 14.78 4.71 6.22 1.98 12.67 4.6 14.32 5.8 3.45 2.54 23.04 9.7 29.8 10.9 2.48.44 6.55 1.87 9.04 3.18 11.9 6.26 18.92 9.35 21.23 9.35 3.58 0 16.62 4.89 21.86 8.2 2.43 1.52 7.22 4.14 10.64 5.82a60.39 60.39 0 0 1 11.3 7.57c2.8 2.5 7.13 6.02 9.62 7.83 4.73 3.44 28.2 27.33 33.77 34.38 3.85 4.87 7.38 6 11.69 3.74 1.75-.92 5.95-2.87 9.33-4.35a57.18 57.18 0 0 0 11.3-6.95c2.97-2.45 6.14-4.14 7.43-3.96 3.15.44 3.55 5.66.78 10.24-1.22 2-2.58 4.92-3.04 6.48a60.2 60.2 0 0 1-2.32 6.22c-1.74 3.91-4.9 21.97-4.2 23.95 1.27 3.56 4.3 2.52 10.47-3.58 8.91-8.82 13.93-18.9 13.73-27.6-.2-9.12 1.67-9.63 9.1-2.5 3.16 3.02 7.6 6.03 9.84 6.68 2.26.65 11.55 1.06 20.66.92l16.57-.25 4.24-3.73c4.91-4.31 7.62-4.22 16.8.57 5.95 3.12 7.14 3.08 26.53-.97 4.2-.87 6.62-.9 7.92-.09 2.55 1.6 2.97 6.74.82 10.03-2.57 3.92-2.21 5.05 1.58 5.05 3.89 0 11.32-3.56 16.97-8.13 2.17-1.75 4.52-3.18 5.22-3.18 2.37 0 7.25 4.66 7.25 6.92 0 3.55 4.29 10.97 7.59 13.13 3.71 2.44 7.08 2.04 9.54-1.12 1.78-2.27 1.99-2.3 4.77-.47 4.14 2.71 5.63 2.46 16.64-2.78 10.35-4.93 13.5-8.49 13.5-15.26 0-3.84-3.13-10.28-5.96-12.26-2.86-2-1.82-5.12 1.7-5.12 5.53 0 9.95 5.4 12.05 14.72.97 4.33.73 5.41-2.6 11.41-4.1 7.41-7.37 10.12-20.47 17-8.64 4.53-9.58 4.77-21.04 5.24-11.26.47-12.26.33-16.4-2.3-5.8-3.69-7.74-5.98-10.5-12.39l-2.28-5.33-3.73 1.28c-2.05.7-5.5 2.46-7.67 3.92-5.06 3.4-14.54 3.7-17.38.57-2.46-2.72-2.36-4.24.54-8.31 2.1-2.97 2.2-3.59.76-5.03-1.3-1.3-2.67-1.42-6.45-.58-6.29 1.42-9.33 4.18-8.46 7.67.95 3.77-1.41 3.37-3.46-.6-.93-1.78-2.46-3.54-3.4-3.9a1.8 1.8 0 0 1-1.05-2.4c.36-.96.1-1.75-.59-1.75s-1.25.5-1.25 1.1c0 1.82-6.4 4.56-10.62 4.56-2.18 0-4.3.56-4.72 1.25-.42.68-2.13.97-3.8.63-4.65-.92-6.17.6-5.29 5.3.61 3.26.3 4.51-1.66 6.47-2.38 2.38-2.39 2.47-.35 6.27 2.42 4.49 4.6 5.42 10.37 4.41 6.11-1.07 10.46-3.71 18.38-11.17 6.47-6.09 6.98-6.37 6.24-3.4-1.1 4.4-5.72 10.28-8.83 11.22-1.4.42-3.57 1.66-4.81 2.75-3 2.63-12.4 5.68-17.5 5.68-6.52 0-13.6-6.08-13.6-11.67 0-4.24 4.79-15 7-15.74 4.07-1.36-4.66-2.98-19.45-3.61-9.02-.39-18.07-1.25-20.12-1.91-3.79-1.23-7.02.01-7.02 2.7 0 3.42-13.8 21.18-16.45 21.18-.72 0-2.21 1-3.33 2.24-1.96 2.16-1.95 2.45.32 7.9 5.32 12.82 21.1 33.97 25.34 33.97.71 0 2.24.86 3.4 1.92 1.6 1.43 4.74 2.01 12.54 2.3 9.58.36 14.45 1.39 31.74 6.71a46 46 0 0 1 10.75 5.4c2.89 2.04 9.83 6.15 15.43 9.14 5.6 2.98 10.94 6.04 11.87 6.78.94.75 3.31 1.9 5.28 2.56 1.97.66 6.39 3.4 9.83 6.1 13.42 10.53 17.46 13.29 24.23 16.57 3.86 1.87 8.98 4.95 11.37 6.84 2.39 1.9 7.86 4.57 12.16 5.95 4.59 1.46 9.17 3.83 11.07 5.7 1.79 1.77 3.96 3.2 4.84 3.2.87 0 5.86 4.11 11.08 9.12l9.5 9.12 8.85.38 36.57 1.65c15.24.7 32.3.95 37.9.56 6.56-.45 12.58-.2 16.96.73 4.69.98 23.75 1.6 61.65 2 83.51.86 99.48.63 102.86-1.46.97-.6 1.14-3.45.63-10.05-.85-10.7-.87-9.7.3-17.7.93-6.36.92-9.7-.15-33.36-.33-7.47-.95-23.25-1.37-35.07-.76-21.3-1.13-28.74-2.1-41.85-.4-5.29-1.86-54.49-1.87-62.77 0-.94.3-8.32.68-16.4 1.75-37.57.78-108.7-1.69-124.38-.62-3.92-.67-8.61-.11-11.02.52-2.3.78-4.36.55-4.58-1.59-1.6-2.23-60.67-.86-79.46 1.02-13.9.51-59.95-.86-78.6-.62-8.4-1-20.11-.83-26.02.39-14.44.26-20.3-.72-31.67-.45-5.29-.8-10.89-.77-12.44.02-1.56 0-18.1-.03-36.76a5279.4 5279.4 0 0 1 0-37.9c.1-5.08.07-35.83-.04-44.67-.05-3.74.28-23.33.74-43.55.46-20.22.75-37.52.66-38.46-.1-.93-.33-17.47-.52-36.76-.31-32.13 1.59-78.74 3.4-83.46.37-.97-.18-4.98-1.22-8.92-1.5-5.66-1.97-13.77-2.27-38.82-.21-17.42-.65-35.24-.98-39.6-.55-7.2-.89-45.67-.68-77 .05-6.9-.43-14.8-1.06-17.54-2.17-9.38-1.1-20.98 3.95-42.88 1.25-5.42 1.49-10.17.9-18.1-1.11-15-1.07-26.73.1-33.36.56-3.11.9-14.57.75-25.45l-.45-34.5c-.1-8.09 0-20.05.21-26.58.23-6.53-.19-17.14-.92-23.56a186.2 186.2 0 0 1-1.14-20.36c.46-20.5-1.03-55.72-2.41-57.4-1.05-1.25-1.1-2.34-.19-4.2 1.12-2.3 2.55-10.56 2.8-16.07.25-6.03-1.51-24.26-2.68-27.62-1.58-4.52-.68-24.74 1.36-30.47 1.67-4.74-.29-14.88-3.23-16.69-1.36-.83-24.67-1.02-76.04-.6-40.75.34-112 .67-158.35.75-46.35.08-85.03.47-85.97.86-.93.4-7.55 1.75-14.72 3.03-7.16 1.27-14.63 2.77-16.59 3.33-6.49 1.86-19.79 2.58-50.7 2.72-28.2.14-31.29-.04-40.44-2.39-8.61-2.2-12.68-2.52-31.1-2.46-14.31.06-25.8-.56-35.34-1.88-12.96-1.8-34.5-2.34-63.9-1.62-4.36.1-9.96-.09-12.45-.43-15.5-2.1-41.84-2.92-95.9-2.97-72-.05-60.16-.14-90.73.66-22.3.58-60 .73-105.19.42-12.64-.09-170.98 1-230.17 1.6-7.16.06-20.9-.2-30.54-.6-9.65-.4-34.33-.2-54.86.43-55.9 1.7-83.83 1.9-88.62.63-6.1-1.64-10.11-.37-10.56 3.34-.48 4.05-3.5 5.9-5.84 3.56-.96-.97-1.4-2.12-.97-2.55.43-.43-.1-1.28-1.19-1.89-2.32-1.3-2.72-8.28-.55-9.69.77-.5 5.48-.95 10.46-1 4.98-.04 25.08-.46 44.68-.92 25.73-.6 212.32-2.1 243.75-1.94 25.7.12 133.92-.15 207.55-.53 164.28-.84 199.17-.55 205.09 1.7 1.94.74 6.28.9 11.3.4 14.87-1.46 63.3-1.17 65.82.4 2.51 1.57 16.56 2.66 41.28 3.19 12 .26 19.28 1.03 27.15 2.88 9.38 2.2 13.55 2.5 32.8 2.36 32.4-.25 48.3-.97 50.8-2.31 1.22-.65 3.8-1.18 5.73-1.18 2.9 0 18.75-2.85 34.52-6.21 1.87-.4 27.83-.88 57.69-1.07 55.84-.35 138.16-1.58 161.18-2.4a442.9 442.9 0 0 1 14.7-.37c9.65.51 33.31 1.11 59.07 1.5 22.92.34 32.2.87 34.5 1.97 2.93 1.4 3.2 2.16 4.12 11 .6 5.83.55 12.13-.14 16.38-.71 4.39-.73 7.94-.05 9.74.6 1.55.75 4.96.36 7.57-.39 2.61-.18 7.7.46 11.31 1.04 5.83 3.13 148.21 2.31 157-.17 1.87-.27 9-.22 15.83.4 56.78-.01 107.27-1.13 136.3-1.4 36.37-1.67 61.76-.84 81.44.28 6.53.36 29.18.18 50.33-.24 28.62.07 40.83 1.23 47.74 1.68 10.05 1.6 50.91-.1 54.4-.95 1.95-.66 102.56.3 105.1.28.75.04 8.64-.55 17.53-1.68 25.64-1.44 102.89.68 221.45.8 43.82.94 82 .5 131.77-.14 16.8.4 40.72 1.21 53.16.9 13.86 1.6 52.42 1.79 99.54.17 42.3.54 85.3.82 95.57 1.4 51.3 1.96 64.61 3.03 72.6 1.01 7.59 1.27 16.96 1.05 38.82-.03 3.1-.03 9.8-.02 14.88.02 5.08-.26 9.99-.61 10.92-.36.92-.14 4.46.5 7.85 1.42 7.73-.5 15.46-4.2 16.83-2.25.83-28.17.9-28.99.08zm-467.27-176.4c1.24-5.93 1.68-11.6.88-11.59-1.95.02-9.97 2.6-11.23 3.62-1.07.88-.97 1.91.46 4.7 3.53 6.81 8.78 8.55 9.89 3.27zm-374.87-156.37c3.4-1.25 6.81-2.26 7.57-2.26 1.25 0 6.75-3.23 11.97-7.03 1.89-1.38 1.85-1.64-.66-4.75-2.29-2.82-3.5-3.31-8.47-3.4-5.15-.1-6.31-.62-10.33-4.55l-4.54-4.42-4.07 2.18c-2.24 1.2-4.46 2.68-4.93 3.3-1.8 2.4-5.74 14.4-5.07 15.49.75 1.2 10.61 7.7 11.7 7.7.35 0 3.43-1.02 6.83-2.26zm-127.98-7.64c2.18-2.33 7.25-8.26 11.29-13.17 6.87-8.38 7.2-9.03 5.24-10.47a9.63 9.63 0 0 0-4.42-1.63c-5.99-.27-13.18.39-20.42 1.88-4.36.89-9.13 1.62-10.6 1.62-2.59 0-2.66.24-2.2 7.35.42 6.75.83 7.74 4.93 11.99 7.6 7.87 10.68 8.33 16.18 2.43zm99.54 1.86c-2.44-1.55-3.63-1.16-2.1.67.76.93 1.9 1.38 2.51 1 .69-.43.52-1.08-.4-1.67zm-75.21-17.41c-.36-.93-1.36-1.7-2.23-1.7-.86 0-1.57.77-1.57 1.7 0 .93 1 1.7 2.22 1.7 1.52 0 2.02-.55 1.58-1.7zm129.74-1.53c1.98-1.6 2.25-2.65 1.6-6.16-.99-5.23-4.76-8.36-11.25-9.33-4.27-.64-5.33-.35-8.29 2.29-4.43 3.95-5.19 8.84-1.91 12.38 2.1 2.27 3.58 2.67 9.97 2.7 5.43.03 8.16-.49 9.88-1.88zm-117.4-.9a6.48 6.48 0 0 0-3.4-.05c-1.1.29-.47.54 1.4.56 1.86.02 2.76-.21 2-.52zM1072 1335.6a4.2 4.2 0 0 1-1.98-3.18c0-4.6 7.36-8.2 21-10.26 7.77-1.18 9.71-1.13 13.2.33 4.83 2.01 8.18 7.54 7.13 11.74-.66 2.61-1.06 2.76-5.47 2.05-6.5-1.05-14.56-1.14-23.98-.26-4.76.44-8.71.28-9.9-.42zm-462.33-192.62c0-.86.76-2.2 1.7-2.97 4.33-3.6-.07-11.69-7.06-12.97-2.34-.43-8.07-1.04-12.74-1.35-4.66-.32-8.85-1.17-9.31-1.9-2.5-3.92 1.02-7.53 7.33-7.53 5.33 0 20.93 4 23.48 6 .93.74 3.1 3.04 4.8 5.11 4.24 5.14 4.1 9.67-.4 13.88-3.7 3.46-7.8 4.36-7.8 1.73zM507.9 1049.6c-.65-1.2-1.17-6.23-1.17-11.16 0-7 .75-11.2 3.4-19.02a3394.5 3394.5 0 0 0 5.82-17.4c2.4-7.26 6.64-17.28 11.48-27.1 1.37-2.78 4.7-7.1 7.41-9.62l8.87-8.23c7.22-6.72 5.88-7-26.8-5.48-8.15.38-10.19.1-13.34-1.83-3.17-1.94-4.2-2.07-6.96-.93-3.02 1.25-13.43.9-17.3-.58-.85-.33-2.44-2.1-3.53-3.95-2.55-4.32-5.25-4.3-14.63.09-4.05 1.9-9.35 3.53-11.77 3.62-5.61.23-12.67-3.37-15.6-7.95-1.25-1.94-2.89-3.79-3.65-4.1-.75-.32-4.08 1.9-7.38 4.91-6.22 5.69-11.05 8.96-17.8 12.08-2.17 1-5.16 2.78-6.66 3.95-3.65 2.87-5.4 2.7-8.72-.9-2.12-2.28-2.74-4.08-2.55-7.34.18-3.1-.34-4.75-1.83-5.84-3.27-2.4-1.51-7.41 2.9-8.3 1.9-.38 3.6-1.25 3.78-1.94 2.6-10.04 5.3-16.5 10.36-24.82 3.35-5.49 6.1-10.5 6.1-11.13 0-1.42-9.22-.65-19.24 1.61-8.75 1.98-13.06 3.63-14.17 5.42-.92 1.5-2.74 17.1-3.32 28.55-.21 4.22-1.2 9.7-2.2 12.18-2.4 6-2.29 6.73.98 6.73 1.82 0 3.87-1.37 5.94-3.96 3-3.76 5.99-5.2 5.99-2.9 0 .6-2.9 3.78-6.43 7.08-3.54 3.3-7.35 6.9-8.48 7.98-1.5 1.45-2.06 3.67-2.06 8.25 0 4.02-.8 7.84-2.25 10.68-1.24 2.42-1.97 5.16-1.62 6.07.95 2.45-2.56 11.82-6.82 18.26a76.72 76.72 0 0 0-5.44 9.62 20.56 20.56 0 0 1-5.3 6.79 51.73 51.73 0 0 0-5.51 4.97 60.05 60.05 0 0 1-3.9 3.96 271.25 271.25 0 0 0-8.54 8.23c-9.98 9.98-14.76 14.5-15.34 14.5-1.18 0-.79-3.12.9-7.03l3.32-7.67c.95-2.18 6.63-8.78 12.64-14.68 9.22-9.07 17.5-19.01 17.5-21.03 0-.29 1.39-2.68 3.08-5.31 4.98-7.74 9.36-20.72 9.36-27.73 0-2.08.6-4.9 1.35-6.26 1.8-3.3 4.19-15.05 5.39-26.45.54-5.1 1.26-9.74 1.61-10.3.56-.9 1.1-6.06 3.43-32.45 1.14-13.06 1.75-14.7 6.43-17.6 2.43-1.5 4.42-3.25 4.42-3.88 0-.63 1.4-2 3.11-3.04s5.35-3.45 8.08-5.37c2.74-1.91 5.95-3.48 7.13-3.48 1.19 0 4.03-1.27 6.32-2.83 2.28-1.55 4.54-2.82 5-2.82.47 0 5.31-2.09 10.77-4.63 5.46-2.55 11.7-5.4 13.88-6.36 2.17-.96 7.2-3.25 11.17-5.1 3.97-1.84 9.63-4.07 12.59-4.95 2.96-.88 6-2.36 6.78-3.29.77-.93 2.03-1.69 2.79-1.69.76 0 2.3-1.02 3.43-2.26 1.12-1.25 3.13-2.26 4.45-2.26 2.48 0 19.87-16.99 19.87-19.42 0-.7.73-1.82 1.62-2.52 1.87-1.44 5.8-11.92 7.93-21.13.8-3.46 2.04-7.37 2.74-8.69.7-1.31 1.28-3.68 1.28-5.25 0-1.58.72-4.54 1.61-6.58 3.6-8.28 7.19-46.04 5.3-55.75-.6-3.1-1.93-10.23-2.96-15.83s-2.34-11.06-2.91-12.14a12.02 12.02 0 0 1-1.04-4.71c0-1.5-.98-5.46-2.17-8.78-1.19-3.32-3.32-9.86-4.73-14.52a155.06 155.06 0 0 0-9.04-23.26c-1.19-2.53-2.16-5.4-2.16-6.36 0-.97-1.01-4.06-2.25-6.85-3.16-7.14-3.32-23.5-.37-38.18.7-3.49.65-6.5-.25-15.5-.59-5.99-1.28-7.66-4.69-11.32a526.6 526.6 0 0 1-11.82-13.51c-4.3-5.07-8.54-9.5-9.4-9.83-.88-.34-2.58-2.85-3.8-5.59-2.93-6.62-29.56-33.4-42.35-42.58-2.96-2.12-5.38-4.27-5.38-4.77s-1.65-1.75-3.67-2.8c-2.02-1.03-6.99-4.75-11.03-8.27-4.04-3.52-9.5-8.06-12.13-10.1-4.2-3.25-4.87-4.39-5.54-9.56-.82-6.26-.26-5.55-15.77-20.06a181.14 181.14 0 0 1-13.65-14.8c-5.94-7.3-7.88-8.89-13.57-11.06-9.5-3.63-9.54-3.66-11.14-8.32-.8-2.33-3.43-6.54-5.83-9.36a508.1 508.1 0 0 1-23.54-29.41c-11.82-15.76-20.02-24.68-25.33-27.54-9.97-5.38-18.68-9.17-21.06-9.17-3.36 0-7.08-3.02-11.75-9.52l-3.78-5.28 3.22.8c1.77.45 4.74 1.74 6.6 2.88 1.87 1.13 4.45 2.07 5.73 2.07 4.77 0 17.15 5.02 24.58 9.96 8.39 5.58 14.63 12.35 25.75 27.93 4 5.6 7.59 10.44 8 10.75 3.1 2.41 24.1 27.18 24.92 29.4.96 2.62 11.61 10.19 14.32 10.19 2.48 0 7.96 5.89 12.14 13.05 2.41 4.11 6.34 9.1 8.72 11.07 14.46 11.97 18.78 16.79 20.79 23.18 1.46 4.65 3.43 7.73 7.32 11.48 8.24 7.93 18.82 17 19.86 17.01 1.03.01 10.29 7.6 22.43 18.4 9 8 26.58 26.9 32.88 35.32 2.32 3.1 9.75 11.3 16.5 18.2 6.74 6.9 12.26 13.27 12.26 14.14 0 .88-.71 9.22-1.57 18.56-1.68 18.16-1.54 32.09.4 39.9 1.73 7 13.55 41.72 15.41 45.3.87 1.66 1.6 4.55 1.64 6.41.07 4.29 2.58 11.42 4.94 14.02.99 1.1 1.8 3.83 1.8 6.08 0 2.24 1.07 10.73 2.38 18.87 2.27 14.11 2.3 15.23.57 24.11-3.02 15.5-4.22 26.03-3.1 27.16.64.63 2.54-.96 4.84-4.03 5.66-7.56 9.87-9.94 21.06-11.93 16.02-2.83 22.68-2.16 25.8 2.61 4.27 6.51-1.54 14.58-15.92 22.1-4.98 2.6-9.56 5.13-10.18 5.61-.62.49-2.4 1.24-3.96 1.68-5.8 1.63-13.07 5.41-14.96 7.78-1.3 1.62-1.96 4.5-1.98 8.47-.02 5.17.45 6.5 3.28 9.33 3.48 3.48 5.15 4.06 6.31 2.18a2.66 2.66 0 0 1 2.05-1.13c.74 0-.18 1.23-2.05 2.73l-3.4 2.72 2.37 3.21c1.3 1.77 4.06 6.78 6.15 11.13 3.96 8.26 4.35 11.92 2.7 24.89-.96 7.42-2.61 10.43-8.9 16.24-5.03 4.63-5.42 4.78-10.56 4.03-5.81-.84-10.38-2.8-12.5-5.36-1.74-2.1-4.7-13.4-4.7-17.93 0-5.19 5.46-18.18 10.35-24.65 5.68-7.5 6.3-10.33 3.33-15.13-1.3-2.12-2.38-5.57-2.39-7.67-.02-4.29-2.08-9.06-4.22-9.77-.78-.26-1.42.37-1.42 1.4 0 1.02-1.2 4.5-2.65 7.72a319.8 319.8 0 0 0-4.68 10.96c-4.24 10.65-5.35 12.6-7.65 13.46-1.58.58-1.93 1.15-1.05 1.7 2.01 1.23 1.59 5.17-.64 6.03-1.08.41-5.03 3.9-8.77 7.74-3.95 4.07-8.18 7.32-10.12 7.77-1.82.43-7.05 2.53-11.61 4.66-4.57 2.14-9.05 3.89-9.97 3.89-1.48 0-8.66 3.04-20.9 8.86-2.18 1.03-4.27 2.3-4.65 2.81-.37.52-2.9 1.24-5.62 1.6-2.72.37-7.75 2.3-11.2 4.29-3.43 2-8.28 4.56-10.77 5.7a65.82 65.82 0 0 0-9.82 6.1c-2.92 2.2-7.1 5.28-9.3 6.83-4.3 3.03-4.63 3.66-5.78 11.03-.94 6.04.45 6.74 8.6 4.32 3.28-.98 7.4-1.78 9.15-1.78 4.15 0 16.73-4.3 19.46-6.65 1.17-1 3.35-3.76 4.84-6.11a46.78 46.78 0 0 1 4.82-6.38 26.47 26.47 0 0 0 3.07-3.66c.54-.86 2.38-2.46 4.1-3.55 3.07-1.96 3.14-1.94 4.38.79 1.53 3.35.68 7.29-2.31 10.74-4.36 5.03.35 7.25 10.08 4.74 2.17-.56 5.83-1.34 8.13-1.73 2.77-.47 4.42-1.46 4.89-2.93.38-1.22 1.44-2.22 2.33-2.22.9 0 2.5-1.02 3.57-2.27 2.46-2.87 3.5-2.84 6.77.23 2.55 2.4 2.94 2.43 10.81 1.03 10.12-1.8 25.15-4.25 39.28-6.37 5.9-.9 16.09-2.64 22.62-3.88 18.43-3.51 30.25-4.84 36.6-4.11 3.2.36 8.39.81 11.53 1 10.18.59 17.67 7.51 13.32 12.32-2.67 2.95-5.36 3.45-10.78 1.98-7.76-2.11-22.85-2.3-39.92-.5-8.71.93-20.67 1.9-26.58 2.18-5.91.28-18.64 1.47-28.28 2.65-9.64 1.19-19.54 2.24-22 2.35-6.82.31-13.07 2.3-13.07 4.18 0 .9-.63 1.67-1.4 1.7-.79.01-2.86 2.18-4.62 4.8a855.85 855.85 0 0 1-7.14 10.42c-7.25 10.4-8.6 13.99-9.17 24.3l-.53 9.63 4.03 2.13c5.27 2.79 10.9 1.9 22.48-3.51 6.38-3 9.49-5.2 11.44-8.15 4.2-6.33 15.39-11.34 27.14-12.17 9.15-.64 9.46-.58 11.74 2.31 3.72 4.73 4.36 10.7 1.53 14.2-6.27 7.77-5.48 11.41 2.46 11.41 3.8 0 5.18-.7 8.63-4.39 2.26-2.42 5.35-6.05 6.88-8.09 4.13-5.5 15.22-13.22 20.22-14.07 3.37-.56 5.3-.17 8.53 1.73 6.45 3.8 7.23 6.25 3.36 10.52a46.95 46.95 0 0 0-4.84 6.38c-2.88 5-6.86 13.53-6.86 14.7 0 2.83 9.88.11 22.23-6.1 3.2-1.62 6.4-2.94 7.1-2.94.71 0 3.76-1.25 6.78-2.78 5.75-2.91 8-6.62 8-13.14 0-3.76 7.54-10.72 16.59-15.31 5.33-2.71 6.3-2.86 11.3-1.73 3.02.68 6.76 1.48 8.31 1.79 4.42.86 5.69 3.89 3.7 8.86-1.47 3.69-2.95 4.81-12.22 9.3-5.8 2.8-11.27 5.1-12.15 5.1-.88 0-2.55 1.04-3.7 2.32-3.04 3.36-1.08 5.72 6.87 8.28 5.83 1.87 7.53 1.97 14.6.78 4.4-.73 9.56-1.81 11.47-2.4a28.73 28.73 0 0 1 7.01-1.07c1.95 0 4.71-.48 6.14-1.06 1.43-.59 7.69-2.45 13.91-4.14 6.22-1.7 11.69-3.7 12.15-4.47.45-.76 2.12-1.71 3.7-2.1 1.58-.4 3.86-1.72 5.08-2.93 4.28-4.29 11.3-3.89 11.3.64 0 2.69-15.89 12.91-20.08 12.92-1.44 0-2.46.44-8.86 3.76-1.92 1-5.74 2.14-8.48 2.54-2.74.39-12.04 2.44-20.66 4.56-24.01 5.9-31.39 5.35-40.35-3.07-3.25-3.05-7.05-5.83-8.45-6.19-2.5-.62-13.59 4.45-17.57 8.05-1 .9-3.4 1.96-5.34 2.35-1.94.39-3.77 1.35-4.07 2.13-.3.79-2.36 1.77-4.57 2.18-4.44.84-13.09 6.03-13.2 7.94-.32 5.46-1.42 11.64-2.4 13.49-.66 1.22-1.87 5.44-2.7 9.37-.81 3.93-2.27 8.81-3.22 10.84-.95 2.04-3.21 8.36-5.02 14.06-1.8 5.7-4.61 12.1-6.25 14.25-1.63 2.14-2.96 4.4-2.96 5.02 0 .62-1.02 2.05-2.26 3.18-1.25 1.12-2.28 2.85-2.3 3.85-.05 2.25-1.5 4.06-7.6 9.44-5.34 4.7-8.65 5.35-10.42 2.05zm12.37-15.09c1.58-2.88 4-6.28 5.37-7.56 1.37-1.27 3.1-4.48 3.86-7.12.76-2.64 1.75-5.31 2.2-5.93.47-.63 1.21-3.17 1.66-5.66.46-2.49 1.72-6.3 2.82-8.48 2.53-5.03 4.34-10.83 6.31-20.25 2.23-10.63 2.12-11.43-1.55-11.4-3.9.04-9.61 7.98-12.72 17.7-2.96 9.27-5.69 16.56-6.69 17.9-.47.62-1.99 4.95-3.37 9.62-1.38 4.67-2.91 9.5-3.4 10.75-1.29 3.24-.13 16.59 1.4 16.08.67-.22 2.52-2.77 4.1-5.65zm-114.63-88.66c7.97-3.61 21.25-14.99 24.09-20.64 1.12-2.23 2.69-6.1 3.48-8.59.8-2.49 3.15-7.12 5.24-10.3 2.1-3.17 3.83-6.22 3.85-6.78.03-.56 1.55-2.78 3.4-4.93 1.84-2.16 3.34-4.57 3.34-5.37 0-1.84-5.73-1.9-15.7-.15-7.14 1.25-7.84 1.67-15.12 9.06-4.2 4.26-7.64 8.43-7.64 9.27 0 .84-1.76 3.77-3.93 6.5-2.16 2.73-4.26 6.5-4.66 8.36a21 21 0 0 1-2.86 6.4c-1.16 1.64-2.12 3.59-2.12 4.3 0 .73-1.07 3.82-2.39 6.88-4.11 9.56-.81 11.35 11.02 5.99zm96.17-10.6c8.42-14.43 8.49-14.67 4.07-14.66-9.6.05-21.22 5.9-24.57 12.38-1.53 2.94-1.48 3.46.59 6.09 2.38 3.03 6.88 4.06 12.93 2.97 2.63-.47 4.18-1.99 6.98-6.79zm49.54 1.7c3.53-2.7 7.4-8.83 7.4-11.73 0-2.2-6.87-1.33-10.36 1.3-7.94 5.99-10.83 10.94-8.02 13.75 1.41 1.42 6.97-.27 10.98-3.33zm71.14-11.83c9.8-4.65 12.77-6.98 11.52-9.01-.93-1.5-8.98-1.52-14.17-.05-5.42 1.53-10.99 10.13-8.3 12.82 1.04 1.03.42 1.25 10.95-3.76zm-164.4-39.6c0-.63-.54-1.13-1.2-1.13-.66 0-.88.5-.5 1.13.39.62.93 1.13 1.2 1.13.28 0 .5-.51.5-1.13zm72.87-37.9c5.3-5.73 4.97-22.88-.61-31.7-3.44-5.42-4.52-5.84-9.25-3.64-2.43 1.13-3.05 2.19-3.05 5.28 0 2.13-.82 4.77-1.81 5.86-1.2 1.32-1.97 4.94-2.32 10.83-.65 10.87.75 14.2 6.41 15.2 6.91 1.24 7.95 1.06 10.63-1.84zm17.96-88.63c12.78-6.22 18.89-11.2 18.89-15.39 0-3.32-3.26-4.22-14.05-3.89-12.02.37-16.96 2.61-21.8 9.91-4 6.03-6.46 13.21-5.22 15.22 1.36 2.2 10.75-.28 22.18-5.85zm-32.01 4.37c0-.62-.51-1.13-1.13-1.13-.63 0-1.14.5-1.14 1.13a1.13 1.13 0 0 0 2.26 0zM624.94 961.3c-.39-.62-.2-1.13.43-1.13.62 0 1.44.5 1.83 1.13.38.62.19 1.13-.43 1.13-.63 0-1.45-.5-1.83-1.13zM449.05 826.7c0-.62.8-1.13 1.76-1.13.97 0 1.45.5 1.07 1.13-.39.62-1.18 1.13-1.76 1.13-.59 0-1.07-.5-1.07-1.13zm21.5-8.48c0-1.14.73-1.72 1.9-1.5 2.51.49 2.57 2.5.07 2.98-1.24.24-1.98-.32-1.98-1.48zm74.79-32.47c6.6-6.38 15.92-13.48 19.39-14.8 1.1-.4 3-2.42 4.2-4.45a30.12 30.12 0 0 1 6.08-6.76c4.24-3.36 8.64-11.35 8.64-15.7 0-1.55-1-3.39-2.3-4.2-2.75-1.71-1.95-3.63 1.53-3.63 2.44 0 3.88-2.34 9.24-15.02 1.8-4.27 14.85-20.04 16.58-20.04.65 0 2.59-1 4.3-2.22 1.71-1.22 5.61-2.78 8.66-3.46 3.04-.68 6.67-1.97 8.04-2.87 4.07-2.65 7.49-1.95 11.7 2.39 3.37 3.48 3.87 4.7 3.7 9.11-.25 6.22-3.16 10.35-12.32 17.4-3.63 2.8-7.97 6.5-9.65 8.2-1.68 1.72-3.42 3.12-3.86 3.12-.44 0-2.65 1.43-4.92 3.18a177.58 177.58 0 0 1-12.04 8.06c-12.04 7.41-14.13 9.73-14.13 15.66 0 4.57.5 5.46 5.92 10.46 7.82 7.24 13.82 9.04 21.28 6.39 2.93-1.05 6.16-1.9 7.17-1.9 1.01 0 4.38-1.37 7.48-3.05 4.33-2.34 6.34-4.38 8.63-8.76a65.53 65.53 0 0 1 6.8-10.17c2.08-2.44 3.8-4.81 3.8-5.26 0-.45 1.4-1.39 3.1-2.08 4.2-1.7 9.3-4.75 12.04-7.16 1.24-1.09 3.15-1.98 4.24-1.98a15 15 0 0 0 4.9-1.32c2.38-1.08 3.67-.97 6.99.61 3.81 1.82 4.2 1.82 6.17.04 1.71-1.55 2.42-1.64 3.82-.48 2.65 2.2 2.07 5.99-2.24 14.37-6 11.69-4.87 17.36 3.1 15.67 2.02-.43 6.48-1.05 9.9-1.36 3.43-.32 6.7-1.04 7.3-1.61a4.59 4.59 0 0 1 2.77-1.03c.93 0 6.04-2.22 11.36-4.93a242.85 242.85 0 0 1 16.47-7.62 77.12 77.12 0 0 0 13.56-7.55c3.72-2.67 7.54-4.7 8.48-4.53 2.12.4 2.83 5.63 1.18 8.72-.96 1.8-.8 2.97.74 5.32 2.52 3.85 2.8 21.3.4 25.76-2.23 4.18-7.24 5.22-17.04 3.56-6.27-1.07-8.66-2.02-10.34-4.12-2.67-3.36-4.34-7.26-4.34-10.16 0-3.2 5.3-2.85 10.54.72 9.65 6.55 15.91 4.09 15.91-6.26 0-3.03-.67-6.32-1.48-7.3-2.82-3.4-10.9-1.66-22.7 4.9-3.43 1.9-7.34 3.45-8.7 3.47-1.37 0-4.17 1-6.23 2.19-5.2 3-36.6 11.7-39.26 10.87-1.2-.38-2.99-1.94-3.99-3.47-1.98-3.03-4.53-3.61-5.96-1.37-.5.78-3.7 3.14-7.12 5.24-5.24 3.21-7.3 3.82-13.01 3.83-3.73 0-8.46-.38-10.5-.85-2.57-.6-4.33-.38-5.66.7-2.9 2.31-6.82 4.36-8.43 4.4-.78.02-3.97 1.29-7.08 2.82-6.27 3.08-16.35 3.75-20.43 1.35-6.35-3.73-12.07-9.63-14.67-15.12-3.57-7.56-6.15-9.15-9.23-5.72a114.24 114.24 0 0 1-8.29 7.59c-3.32 2.8-7.85 6.65-10.07 8.56-5.78 4.95-10.4 7.98-13.66 8.95-2.2.65-1.42-.52 3.54-5.3zm115.6-16.77c2.88-1.27 6.02-3.7 7.06-5.45a11.5 11.5 0 0 1 4.88-4.3c3.8-1.44 8.2-12.8 6.2-16-1.85-2.95-7.68-2.98-13.14-.07-15.12 8.06-17.83 10.85-19.4 20-1.41 8.13 4.13 10.37 14.4 5.82zm-58.31-30.56c9.68-5.35 12.94-7.75 19.22-14.14 3.64-3.7 8.45-8.44 10.68-10.53 4.01-3.74 6.39-10.11 4.75-12.75-1.93-3.14-23.56 3-28.87 8.19-1.84 1.8-3.71 3.27-4.16 3.27-.44 0-2.33 2.61-4.2 5.8a825.8 825.8 0 0 1-5.89 9.9c-3.85 6.32-6.4 15.8-4.78 17.76 1.12 1.34 1.95 1.06 5.18-1.78a55.55 55.55 0 0 1 8.07-5.72zM1004.43 474c-6.57-.97-12.06-8.54-8.4-11.58 1.09-.9 2.34-.57 4.86 1.3 2.85 2.1 4.37 2.4 9.43 1.88 7.88-.81 11.98.05 13.47 2.83 1.98 3.7-1.06 5.59-9.35 5.8-3.96.1-8.46 0-10-.23zm37.68-2.06a7.88 7.88 0 0 1-3.82-2.16 4.98 4.98 0 0 0-3.33-1.62c-3.94 0-4.28-2.27-3.25-21.5.55-10.26.75-19.32.44-20.12-.68-1.79-2.82-.76-9.46 4.52-8.65 6.88-10.9 8.39-14.88 9.94-2.18.85-7.78 4.07-12.44 7.16-6.97 4.6-9.29 5.56-12.99 5.38-6.13-.29-8.82-2.9-8.22-7.98.55-4.61 6.28-26.12 10.26-38.48 2.8-8.7 4.83-10.65 8.17-7.88 2.12 1.76 2.1 6.87-.05 12.01-.93 2.23-1.7 4.47-1.7 4.97 0 1.7 14.66 11.14 18.41 11.85 3.21.6 4.67.02 9.92-3.92 3.38-2.54 6.84-4.36 7.67-4.04.84.32 3.53.9 5.98 1.3 2.45.39 4.82 1.28 5.27 1.97.45.7 1.08 5.34 1.39 10.32l.57 9.05 8.48.34c17.4.71 19.4-.63 19.8-13.25.3-9.62 1.36-12.22 4.46-11.03 3.15 1.21 4.2 6.58 4.67 23.94.37 13.52.81 17.22 2.19 18.23 2.04 1.51 10.94.79 15.82-1.28 8.72-3.7 13.37-5.08 17.06-5.08 2.2 0 5.04-.55 6.3-1.23 4.43-2.36 9.8.9 8.22 5.01-1.21 3.17-9.09 6.4-15.59 6.4-4.33 0-7.5.71-10.03 2.26-2.47 1.5-5.7 2.26-9.71 2.26-3.3 0-7 .54-8.22 1.19-2.25 1.2-36.9 2.44-41.4 1.47zm22.94-8.85c2.44-1.6 2.78-2.56 2.48-7.08-.43-6.58-1.91-7.06-16.74-5.43l-10.74 1.17-1.44 4.4c-1.24 3.8-1.18 4.8.41 7.24 1.81 2.76 2.07 2.8 12.53 2.18 7.07-.42 11.64-1.26 13.5-2.48zm-74.96-23.55c1.82-.78 3.88-2.96 4.75-5.02 1.42-3.37 1.35-3.78-.92-5.37-1.35-.94-3.32-1.71-4.38-1.71-2.34 0-5.48 5.93-5.48 10.35 0 3.53 1.1 3.85 6.03 1.75zm-96.52 29.75c-2.52-2.52-2.82-5.17-1.12-9.64.92-2.43.7-3.55-1.15-5.9-2-2.54-2.1-3.22-.76-5.22 2.82-4.26 4.71-4.7 8.54-1.97 3.98 2.83 4.53 6.1 1.7 10.15-1.75 2.5-1.7 2.77 1.12 5.59 2.95 2.94 2.98 2.95 6.44.9 3.31-1.95 3.58-1.95 5.66-.07 4.88 4.41.5 8.53-5.26 4.96l-3.5-2.16-2.64 2.8c-3.2 3.4-6 3.58-9.03.56zm34.73.17c-6.25-2.2-7.94-4.18-6.26-7.33 1.03-1.91 2.07-2.11 8.42-1.6 8.3.66 10.62 2.09 10.62 6.51 0 4.93-3.68 5.63-12.78 2.42zm31.05.87c-4.37-.93-11.49-7.32-11.49-10.31 0-3.07 9.38-2.77 15.88.5 4.25 2.14 5.05 3.07 5.05 5.86 0 3.88-3.3 5.26-9.44 3.95zm17.53-1.98c-4.12-4.55-.49-10.28 5.55-8.76 4.29 1.07 5.4 4.38 2.65 7.88-2.72 3.46-5.59 3.77-8.2.88zm155.63-3.76a4.92 4.92 0 0 1 5.16-8.2c2.51.89 3.04 1.76 3.04 5 0 3.55-.33 3.97-3.4 4.27-1.87.18-4.03-.3-4.8-1.07zm43.52-1.2c-1.11-.81-2.13-3-2.27-4.86-.2-2.73.24-3.45 2.27-3.74 3.08-.44 8.55 4.65 8.01 7.45-.46 2.44-5.3 3.13-8.01 1.15zm-23.35-3.44c-.67-1.76-.47-3.11.66-4.4 2.1-2.38 5.64-1.46 6.48 1.68 1.2 4.45.77 5.27-2.74 5.27-2.52 0-3.7-.68-4.4-2.55zm44.73.44c-4.17-4.6-1.6-7.72 6.64-8.1 8.6-.4 9.62-.17 9.62 2.17 0 3.73-3.64 6.63-9.2 7.31-4.15.52-5.6.23-7.06-1.38zm21.91-6.94c-1.24-1.24-2.26-3.02-2.26-3.96 0-1.75 3.88-6.23 5.37-6.2 1.41.03 3.14 1.53 5.14 4.45 1.8 2.64 1.78 2.9-.54 5.37-3 3.2-4.78 3.27-7.7.34zm-81.44-6.09c0-.86 2.04-3.28 4.53-5.37l8.9-7.48c2.41-2.03 4.87-3.68 5.48-3.68.6 0 5-4.16 9.77-9.24s10.58-10.08 12.9-11.13c2.33-1.04 4.93-2.74 5.79-3.77 2-2.41 6.47-2.42 7.4-.02.77 2.02-2.07 7.2-3.96 7.2-2.1 0-11.07 8.22-12.37 11.34a10.68 10.68 0 0 1-4.3 4.62c-2.96 1.53-6.2 3.67-17.73 11.72-3.12 2.17-6.23 3.96-6.94 3.97-.7 0-1.9.78-2.68 1.71-1.78 2.14-6.79 2.24-6.79.13zm-201.36-5.96c-5.43-3.63-9.26-7.8-11.88-12.93-2.54-5-9.62-12.34-11.87-12.34-1.56 0-7.97-9.14-7.24-10.33.98-1.57 4.7-1.14 5.38.62.34.88 3.1 3.23 6.12 5.2 3.02 1.99 6.7 5.47 8.18 7.73 1.47 2.27 3.74 5.77 5.03 7.79a15.98 15.98 0 0 0 6.37 5.27c5.31 2.13 7.15 4.5 6.27 8.02-.84 3.31-2.48 3.57-6.36.97zm-46.17-1.9-2.49-2.65 2.42-3.07c3.02-3.84 6.55-3.53 8.9.8 1.65 3 1.6 3.3-.93 5.37-3.46 2.84-4.88 2.76-7.9-.45zm327.88-11.99c-1.69-3.15-1.44-6.36.62-8.07 2.2-1.82 4.81-.45 7.2 3.76 1.37 2.4 1.4 3.2.15 4.7-2.06 2.48-6.55 2.26-7.97-.39zm-327-5.26c-1.87-2.26-.15-5.4 3.23-5.91 3.09-.46 5.54 3.7 3.57 6.08-1.77 2.14-4.95 2.06-6.8-.17zm46.46.11c-2.73-3.3.05-7.75 12.52-20.04 6.8-6.7 12.36-12.48 12.36-12.85 0-.37-2.47-3.56-5.48-7.08-3-3.53-6.64-8.37-8.07-10.76l-2.6-4.34 2.32-2.32 2.33-2.32 3.13 2.47c1.72 1.35 4.83 4.98 6.9 8.06 2.08 3.08 4.98 6.39 6.46 7.36 3.5 2.29 5.82 7.82 4.5 10.7-.56 1.2-5.17 6.47-10.26 11.73-5.09 5.25-10.11 11.25-11.16 13.33a34.48 34.48 0 0 1-3.66 5.76c-2.12 2.42-7.39 2.6-9.29.3zm-46.37-13.57c-3.83-4.62 3.62-11.81 8.06-7.8 2.7 2.45 2.66 4.4-.16 7.22-2.67 2.68-5.96 2.92-7.9.58zm325.77-4.48c-1.21-2.27-1.22-3.41-.03-6.28 1.29-3.11 1.91-3.47 5.46-3.17 3.36.29 4.15.88 4.94 3.73.52 1.87.67 4.54.34 5.94-.5 2.09-1.38 2.55-4.91 2.55-3.42 0-4.62-.58-5.8-2.77zm-325.44-11.63c-1.75-2.32-7.02-8.04-11.72-12.72-5.92-5.9-9.1-10.08-10.35-13.6-7.24-20.44-11.01-30.74-13.04-35.63-5.74-13.87-6.06-22.06-.86-22.06 2.12 0 2.94.74 3.45 3.11l1.86 8.77c.66 3.1 2.11 8.2 3.24 11.3 1.12 3.12 2.39 6.94 2.81 8.5.43 1.55 3.36 8.42 6.5 15.26 8.46 18.35 15.57 26.97 19.24 23.3 3.93-3.93 9.26 1.98 6.48 7.18-.8 1.5-1.18 3.84-.83 5.19 1.7 6.52-2.31 7.35-6.78 1.4zm303.3 3c-.42-.68.52-2.59 2.08-4.25 5.38-5.73 13.24-19.15 13.24-22.6 0-2.24 1.31-4.8 3.94-7.72 4.55-5.05 4.77-6.13 1.82-8.8a17.39 17.39 0 0 1-3.53-5.26c-2.17-5.26-.15-6.72 8.7-6.27 4.01.2 7.74.83 8.27 1.38 2.76 2.88.2 10.62-6.46 19.5l-2.84 3.8 2.37 4.74c1.72 3.46 2.13 5.63 1.5 8-1.23 4.6-4.01 6.11-6.72 3.66-2.73-2.47-4.64-2.45-5.67.06-.8 1.95-3.15 4.76-9.7 11.6-3.36 3.52-5.71 4.24-7 2.15zm-152.22-.44c-.39-.38-5.47-1.2-11.3-1.8-17.52-1.82-20-2.33-21.98-4.53-2.5-2.75-1.4-7.12 2.43-9.78 6.67-4.62 12.75-11.37 12.2-13.52-.85-3.24 1.47-8.3 3.78-8.27 1.1.02 3 .79 4.2 1.7 3.42 2.59 4.94 2.07 12.08-4.11 7.17-6.22 9.31-6.49 11.24-1.41 1.62 4.25.93 5.34-6.22 9.92-3.78 2.41-6.28 4.82-6.26 6.01.03 2.85 4 11.2 5.85 12.34.86.53 2.65 2.71 3.97 4.84l2.4 3.88-2.64 2.07c-2.83 2.23-8.61 3.8-9.75 2.66zm-6.07-9.66c1.3-2.12-.7-5.64-3.63-6.37-7.3-1.84-15.48 3.79-9.19 6.3 3.57 1.44 11.95 1.48 12.82.07zm-135.3-9.33c-6.09-6.57-17.85-24.36-18.2-27.5-.46-4.24 1.53-4.54 5.88-.89a51.2 51.2 0 0 0 7.15 4.96c3.53 1.9 4.54 3.9 5.83 11.62.4 2.36 1.46 4.58 2.36 4.93 2.06.79 6.1-.3 8.77-2.35 1.95-1.5 1.89-1.9-1.42-8.2-1.91-3.63-4.1-7.48-4.86-8.56-1.13-1.59-1.04-2.3.44-3.79 2.34-2.33 5.33-.88 9.53 4.63 4.37 5.72 9.61 5.54 17.02-.58 5.9-4.87 7.13-5.28 9.28-3.13 1.1 1.1-.07 2.77-5.63 7.99a202.47 202.47 0 0 1-14.73 12.34c-4.25 3.15-7.72 6.13-7.72 6.62 0 1.12-7.17 5.59-8.96 5.59-.74 0-2.88-1.65-4.75-3.68zm199.86-.9c-7.04-2.1-16.5-14.82-16.5-22.18 0-3.69 4.93-13.17 8.76-16.85 4.07-3.9 9.4-6.16 14.54-6.16 3.27 0 4.93.84 7.88 3.96 3.74 3.97 7.36 4.95 10.63 2.88 1.43-.9 1.41-1.31-.17-3.1-1-1.12-2-3.06-2.22-4.3-.25-1.39-2.87-3.58-6.75-5.66-11.24-6-12.33-8.13-6.87-13.36 3.57-3.42 7.14-3.9 9.34-1.26.8.98 3.35 2.74 5.65 3.91 4.63 2.36 5.59 4 5.59 9.6 0 4.14 3.5 7.48 9.33 8.89 3.8.91 4.02 3.53.83 9.78-1.44 2.83-3.32 4.72-5.13 5.18-3.4.85-12.37-1.45-14.2-3.65-.7-.86-2.78-1.56-4.6-1.56-1.82 0-4.85-.8-6.73-1.76-3.16-1.64-3.73-1.6-7.58.38-4.93 2.55-6.95 6.01-6.97 11.95-.03 6.68 2.89 10.66 8.39 11.49 9.02 1.35 10.61 1.85 12.5 3.93 1.52 1.69 1.64 2.58.6 4.51-2.23 4.19-8.97 5.58-16.32 3.39zM890.73 340.7c-.39-2.38-.8-4.99-.91-5.81-.12-.83-3-2.44-6.43-3.6-10.39-3.49-16.82-13.87-14.13-22.79 1.07-3.54 7.31-10 9.65-10 1.03 0 2.79-1.03 3.91-2.27 1.13-1.24 3.21-2.26 4.64-2.26 3.06 0 4.06-1.22 2.75-3.35-1.35-2.18-.16-4.57 2.28-4.57 3.16 0 3.78 2.04 2.13 7.02-1.25 3.8-2.38 4.91-7.2 7.07-7.34 3.28-11.04 8.14-10.1 13.27 1 5.46 3.47 8.81 7.82 10.63 6.53 2.73 7.6 2.26 6.73-2.93-.73-4.3-.62-4.52 2.17-4.52 2.48 0 3.69 1.2 2.64 2.65-.16.22.42 1.24 1.27 2.27 2.69 3.23 9.47 2.38 15.04-1.89 4.76-3.65 4.9-3.93 4.87-10.15-.01-3.52-.56-6.92-1.2-7.57-.65-.65-4.2-1.73-7.9-2.41l-9.33-1.73c-5.18-.95-1.78-3.22 5.35-3.57 9.66-.46 15.76 2.48 19.13 9.24 4.18 8.37 3.17 13.3-4.25 20.62-3.79 3.74-6.2 5-12.44 6.5-4.27 1.03-8.54 1.87-9.5 1.87-2.7 0-3.44 2.2-1.8 5.28 1.68 3.12.44 6.34-2.69 6.95-1.3.26-1.99-.84-2.5-3.95zm74.66-5.35a23.63 23.63 0 0 1-6.37-4.77c-7.13-7.76-5.12-12.32 9.95-22.56 6.34-4.3 9.39-4.38 15.09-.39 5.38 3.77 7.1 3.6 12.48-1.2 5.5-4.92 8.24-5.36 8.8-1.42.28 1.97-2.94 5.9-14.13 17.25-13.2 13.36-14.86 14.7-18.46 14.65a22.22 22.22 0 0 1-7.36-1.56zm9.7-8.89c2.1-1.41 4.56-3.9 5.48-5.52 1.48-2.65 1.45-3.27-.28-5.92-2.62-4-5.56-3.72-10.8 1.02-5.15 4.65-6.17 7.43-3.9 10.66 2.1 3.01 4.77 2.95 9.5-.24zm254.54 7.34c-.74-1.4-.38-4.82 1.17-11.03 1.24-4.96 2.5-14.35 2.8-20.88.3-6.54 1.03-12.36 1.62-12.96 1.38-1.39 1.37-8.04-.04-14.95-1.14-5.6-5.07-35.41-6.2-47.05-.7-7.27-4.02-16.95-6.9-20.13-1.35-1.5-2.8-1.9-5.2-1.42-2.5.5-3.99.03-6.09-1.95-3.42-3.2-3.56-7.05-.36-10.03 3.27-3.04 2.35-8.35-2.69-15.54a188.44 188.44 0 0 1-6.94-10.78c-3.9-6.67-22.63-25.52-32.03-32.23-3.92-2.8-7.13-5.7-7.13-6.46 0-2.06 2.44-4.09 4.93-4.09 3.81 0 16.85 9.87 28.5 21.56 9.38 9.41 11.78 11.25 14.71 11.25 4.35 0 6.75 3.75 5.64 8.81-.55 2.5 0 4.92 2 8.9 1.52 3.01 3.12 7.25 3.57 9.43a23.5 23.5 0 0 0 2.4 6.47c.88 1.37 1.6 3.16 1.6 3.97 0 .82 1.27 3.36 2.82 5.65 4.58 6.73 8.13 18.62 9.54 31.98.72 6.85 1.9 15.5 2.6 19.23 2.88 15.12-.12 76.56-4.04 82.85-1.3 2.09-5.03 1.72-6.28-.6zm-18-5c-3.13-3.12.02-9.95 4.59-9.95 2.22 0 6.5 5.23 6.5 7.95 0 3.32-8.28 4.81-11.09 2zm-319.89-19.5c-1.01-2.63.01-5.66 2.05-6.06 2.17-.41 4.78 3.7 3.86 6.09-.8 2.1-5.1 2.08-5.9-.03zm55.4-.07c-1-2.58.35-6.42 3.52-10.07 1.57-1.8 2.86-3.71 2.86-4.24 0-1.5-4.8-1.04-7.92.74-3.35 1.92-8.61 2.2-9.65.5-1.68-2.7.98-6.54 9.32-13.47a977.76 977.76 0 0 0 16.26-13.86c7.41-6.5 10.66-7.77 13.25-5.18 2.34 2.34 1.5 4.18-2.91 6.43-4.16 2.13-14.96 12.65-14.96 14.58 0 .93 6.11 5.91 7.25 5.91.9 0 15.27-10.22 15.98-11.38 1.02-1.64 4.61-1.25 6.2.67 1.2 1.44.98 2.23-1.27 4.68a27.13 27.13 0 0 1-7.23 5.03c-2.5 1.15-9.11 6.41-14.7 11.7-10.12 9.54-14.55 11.75-16 7.96zm264.75-2.04c-2.98-2.56-3-2.67-1.16-6.22 1.28-2.48 2.68-3.6 4.49-3.6 4.67 0 6.85 4.68 5.41 11.58-.38 1.82-5.86.72-8.74-1.76zm-181.22-2.12c-3.61-3.62-1.12-7.78 13.9-23.17 3.73-3.83 8.31-8.68 10.18-10.8 4.95-5.59 5.43-5.7 13.23-3.1 12.13 4.06 17.87 11.44 17.87 22.98 0 7.06-1.9 8.74-6.49 5.74-2.5-1.63-2.7-2.34-2.03-6.83.68-4.51.43-5.32-2.54-8.29a21.3 21.3 0 0 0-8.06-4.57c-7.12-1.92-7.63-1.5-28.27 22.92-5.74 6.8-5.96 6.95-7.79 5.12zm-179.57-8.2c-1.26-1.92-1.73-5.02-1.6-10.45.12-4.25.17-13.58.12-20.73-.05-7.15.38-14.79.95-16.97.58-2.17 1.8-6.93 2.72-10.57.92-3.64 2.5-8.37 3.52-10.51a95.69 95.69 0 0 0 3.28-8.03c1.65-4.76 3.11-5.62 5.5-3.23 1.46 1.46 1.49 2.52.21 7.69-1.46 5.95-6.3 18.39-7.7 19.78-.4.4-.73 1.88-.73 3.3 0 1.41-.5 2.89-1.13 3.27-1.43.89-1.45 7.02-.04 13.27.6 2.66 1.67 11.15 2.4 18.88 1.23 13.13 1.18 14.15-.74 15.55-2.98 2.18-4.72 1.86-6.76-1.24zm-626.85-10.92c-2.65-2.53-4.88-5.7-4.96-7.05-.08-1.36-.21-6.84-.3-12.2-.15-9.72-.15-9.73-5.22-16.18-7.09-9.03-13.44-18.02-13.5-19.14-.09-1.41-13.52-19.98-17.74-24.5-2.03-2.18-5.49-7.49-7.69-11.79-2.2-4.3-4.96-8.88-6.15-10.18-1.19-1.3-3.2-4.44-4.48-6.99-3.15-6.27-8.27-10.52-19.55-16.2-19.67-9.9-28.96-15.08-36.82-20.5-4.45-3.09-8.52-5.6-9.04-5.6-.52 0-2.48-1.58-4.34-3.5-1.87-1.92-7.72-6.8-13.01-10.84a233.5 233.5 0 0 1-14.7-12.17 178.6 178.6 0 0 0-11.88-10c-10.43-7.95-14.7-12.24-17.78-17.79a378.8 378.8 0 0 0-6.94-11.8c-2.27-3.7-4.13-7.47-4.13-8.38 0-.9-1.24-4.24-2.77-7.42-1.53-3.17-2.93-6.49-3.11-7.37-.19-.89-3-5.67-6.27-10.64-6.27-9.53-6.94-11.45-4.33-12.45 1.63-.62 12.02 12.07 15.7 19.17.97 1.88 2.5 4.04 3.4 4.78.89.74 3.32 5.28 5.4 10.1a143.9 143.9 0 0 0 10.18 18.36c5.23 7.87 8.26 11.02 16.75 17.38 5.7 4.27 12.2 10 14.43 12.72 2.23 2.73 4.58 4.96 5.22 4.96.64 0 3.6 2.3 6.6 5.1 3 2.79 6.16 5.08 7.05 5.08.88 0 2.3.83 3.14 1.85 2.02 2.43 23.4 16.52 27.02 17.8 1.55.56 3.59 1.66 4.52 2.47.94.8 4.78 2.17 8.55 3.04 4.58 1.06 8.9 3.1 13 6.18 3.4 2.53 7.27 4.93 8.62 5.34 4.43 1.34 8.2 5.2 12.38 12.67 5.1 9.14 19.6 31.43 23.53 36.2 1.6 1.96 2.92 3.87 2.92 4.26 0 .96 6.92 10.83 14.58 20.81a1396.7 1396.7 0 0 1 12.37 16.4l6.03 8.15-.86 6.22c-.92 6.6-.8 19.99.24 25.16.84 4.22-.4 3.9-6.06-1.5zm987.67 1.63c-3.52-3.8-3.51-6.55.03-10.1 2.71-2.7 2.93-2.74 5.7-.92 5.3 3.46 6.62 8.86 3 12.14-2.94 2.66-5.54 2.33-8.73-1.12zm-196.3-5.03c-2.14-2.14-2.28-3.12-1.51-10.46 1.1-10.41 1.01-11.33-1.26-14.8-1.84-2.81-2.3-2.91-13.49-2.91-10.88 0-11.77-.18-14.73-2.92-2.8-2.6-2.96-3.1-1.44-4.61 1.3-1.3 5.82-1.85 19.44-2.35l17.75-.65 3.3-4.63c1.8-2.55 4.77-6.4 6.6-8.55 3.02-3.57 3.56-3.8 6.22-2.58a7.38 7.38 0 0 1 3.66 4.29c.62 2.47-.1 3.83-4.38 8.24-9.03 9.3-13.24 20.7-13.26 35.87-.01 8.12-2.58 10.38-6.9 6.06zm-126.01-1.76a58.07 58.07 0 0 0-12.02-1.5c-8.62-.03-9.2-.95-8.36-13.1.92-13.3 3.69-18.45 11.32-21.01 3.03-1.02 6.1-2.67 6.84-3.68 1.69-2.3 4.34-2.34 6.21-.09 1.17 1.41 1.15 2.28-.12 4.65-1.44 2.7-1.32 3.1 1.69 5.7 3.8 3.26 7.17 2.87 12.27-1.41 3.86-3.25 8.46-4.63 10.71-3.2 3.02 1.9 2 3.17-6.68 8.31-11.03 6.54-13.38 8.73-13.38 12.5 0 5.51 3.35 7.2 12.9 6.47 7.17-.54 8.69-.33 10.25 1.4 1.7 1.87 1.7 2.18.01 3.86-2.12 2.13-1.39 2.02-15.24 2.33-6.06.14-13.21-.4-16.4-1.23zm-.05-8.7c1.79-1.31 2-2.62 1.47-9.2-.7-8.64-1.53-9.6-8.35-9.62-4.87-.02-8.05 2.22-6.57 4.63.46.74.75 3.77.65 6.73-.13 3.62.4 5.98 1.6 7.18 2.2 2.2 8.37 2.35 11.2.28zm227.82 8.67c-4.37-1.15-7.53-2.87-10.08-5.5-3.35-3.46-3.71-4.5-3.8-10.94-.1-5.61.4-7.84 2.36-10.58 1.35-1.9 2.8-4.8 3.22-6.45.71-2.85 1.15-3.01 8.84-3.33 7.84-.32 17.96 1.56 20.78 3.86 1.58 1.29 8.24-1.17 8.23-3.05-.02-2.33-6.95-8.49-9.57-8.49-3.69 0-12.05-3.75-14.51-6.5-1.95-2.18-1.95-2.44 0-6.65 3.5-7.55 4.38-7.64 11.4-1.19 2.94 2.7 8.38 7.01 12.12 9.6 6.92 4.8 11.93 10.2 14.33 15.47 1.16 2.54 1.02 3.27-1.08 5.37-2.32 2.31-2.83 2.36-10.67 1.09-4.53-.74-8.87-1.31-9.65-1.28-5.03.2-8.24.05-12.73-.57-4-.55-5.6-.26-7.47 1.36-5.26 4.55-6.54 11.65-2.91 16.13 1.59 1.97 3.68 2.7 9.21 3.24 8.92.86 10.97 3.08 6.88 7.43-3.08 3.27-5.56 3.43-14.9.98zm95.34-12.63c-3.1-2.4-3.05-7.7.1-9.68 2.31-1.44 7.13.76 9.22 4.2 1.02 1.68.68 2.54-1.93 4.8-3.77 3.28-3.98 3.3-7.39.68zm-1.09-24.16c-3.2-3.2-.34-9.66 3.6-8.15 2.09.8 3.54 5.24 2.55 7.81-.78 2.04-4.26 2.23-6.15.34zM1077.06 238c-10.42-3.25-17.24-11.07-17.2-19.71.09-15.73 8.47-32.92 16.06-32.92 1.77 0 5.05-.76 7.28-1.7 5.98-2.5 10.45-2.06 16.8 1.6 11.47 6.65 14.31 11.23 13.6 21.96-.6 9.11-2.37 13.45-8.9 21.77-7.6 9.68-16.35 12.53-27.64 9zm17.38-8.26c5.5-4.52 8.85-10.68 10.24-18.77 1.67-9.75.8-11.67-7-15.44-4.45-2.16-6.41-2.44-12.78-1.87-7.03.63-7.8.98-11.7 5.3-2.72 3.03-4.13 5.68-4.08 7.68.04 1.68-.3 5.23-.75 7.9-1.34 7.84 2.87 12.14 15.16 15.51 7.12 1.96 8.2 1.93 10.91-.3zm-180.51 3.73c-2.8-1.49-8.3-5.54-12.23-9-3.93-3.46-7.85-6.3-8.72-6.3-.86 0-2.86-.59-4.45-1.3-2.5-1.15-2.88-2.03-2.88-6.74 0-5.11.28-5.6 4.87-8.77 2.68-1.85 5.6-4.23 6.5-5.3.88-1.07 3.6-3.2 6.05-4.75 4.04-2.55 5.14-2.73 12.45-2.03 9.7.94 11.3 1.9 16.95 10.11 5.6 8.15 5.98 14.9 1.4 24.58-5.94 12.57-10.27 14.63-19.94 9.5zm10.81-12.44c4.8-3.66 6.26-11.78 3.27-18.08-2.28-4.81-3.82-5.78-10.88-6.84-4.74-.7-5.82-.42-10.38 2.72-5.8 3.99-9.79 8.6-9.79 11.34 0 1.02 1.51 2.75 3.35 3.84a31.74 31.74 0 0 1 5.13 3.75c2.62 2.63 9.8 5.97 12.9 6.02 1.5.03 4.38-1.21 6.4-2.75zm-36.19 9.81a7.1 7.1 0 0 1 .02-4c1.07-2.8 5.24-.19 4.79 3-.45 3.14-3.9 3.87-4.8 1zM1209.6 221c-1.71-2.62-1.71-3.03 0-5.65 1.02-1.56 2.52-2.83 3.33-2.83 1.96 0 6.4 4.8 6.4 6.92 0 4.82-6.86 5.93-9.73 1.56zm-343.42-14.24c-2.4-1.35-1.76-8.54 1.29-14.6 3.45-6.88 3.8-9.93 1.22-10.75-3.2-1-2.88-3.95.42-3.95 3.99 0 13.44-11.35 12.95-15.55-.33-2.84 0-3.15 3.65-3.46 3.16-.26 5.69-1.9 11.88-7.74a202.2 202.2 0 0 1 14.03-12.03c3.4-2.54 9.24-7.91 13-11.93 7.71-8.24 19.53-16.5 31.92-22.3 8.44-3.96 10.79-6.39 8.44-8.74-3.13-3.12-.65-8.74 3.86-8.74 2.96 0 6.67 3.84 5.83 6.04-1.17 3.03 1.52 4.15 5.74 2.39 2.16-.9 5.4-1.65 7.19-1.65 2.98 0 3.14-.19 1.85-2.26-2.94-4.71 3.22-8.9 7.04-4.79 1.13 1.22 4.09 2.53 6.56 2.93 5.71.91 6.72 3.3 2.73 6.45-2.51 1.98-4 2.29-8.29 1.72-4.7-.62-5.42-.4-7.06 2.1-1.14 1.74-3.39 3.09-5.96 3.57a70.58 70.58 0 0 0-9.9 3 156.96 156.96 0 0 1-10.87 3.7c-2.8.8-6.37 1.96-7.92 2.58-3.19 1.25-14.42 9.44-20.28 14.8-2.14 1.94-4.28 3.53-4.77 3.53-.49 0-2.12 1.81-3.62 4.03-1.5 2.21-5.72 6.22-9.37 8.9-3.65 2.69-8.17 6.51-10.03 8.5a38.52 38.52 0 0 1-7.64 6c-2.33 1.32-4.24 2.8-4.24 3.28s-2.67 3.47-5.94 6.63l-5.94 5.75 3.24 2.63c2.44 1.99 3.04 3.22 2.47 5.04-.93 2.9-3.63 3.1-6.53.47-2.94-2.66-5.85-.68-6.34 4.3-.2 2.12-.96 4.55-1.68 5.42-.71.86-1.56 4.11-1.88 7.22-.66 6.36-3.59 9.48-7.05 7.51zm17.9-10.73c-1.63-4.23-.79-6.13 2.7-6.13 3.13 0 3.4.31 3.4 3.96 0 3.42-.37 3.95-2.71 3.95-1.49 0-3.02-.8-3.4-1.78zm183.68-15.11c0-.59.51-1.39 1.14-1.77 1.6-1 5.82.5 5.03 1.78-.85 1.38-6.17 1.36-6.17-.01zM881.98 153.6c-2.43-1.41-2.6-5.91-.29-7.83 2.56-2.12 5.3.64 4.87 4.91-.38 3.8-1.66 4.62-4.58 2.92zm324.51-5.37c-2.2-2.43-2.43-5.97-.51-7.88 1.94-1.95 3.97-1.69 6.48.83 1.9 1.89 2.02 2.67.89 5.65-1.48 3.92-4.1 4.46-6.86 1.4zM878.18 137.4c-.8-2.06 1.45-6.3 3.33-6.3 2.23 0 4.14 2.45 4.14 5.3 0 2.15-.6 2.6-3.43 2.6-1.92 0-3.7-.7-4.04-1.6zm329.1-9.1c-3.44-2.4-4.04-6-1.45-8.6 2.73-2.73 4.7-2.76 7.1-.11 2.41 2.66 2.46 8.77.08 9.68-2.55.98-3.08.89-5.74-.97zm-328.37-7.3c-1.77-3.32-.26-5.93 3.21-5.52 2.43.28 3.03 1 3.32 4.02.32 3.27.04 3.67-2.5 3.67-1.67 0-3.35-.9-4.03-2.18zm270.67-1.8c-3.01-2.17-7.38-5.29-9.72-6.93-2.34-1.64-8.93-4.18-14.7-5.68-6.56-1.69-12.57-4.1-16.12-6.46-7.99-5.32-14.01-8.16-19.04-8.96-5.14-.82-7.54-2.55-7.54-5.44 0-2.78 4.1-3.73 12.7-2.95 4.43.4 8 1.47 10.09 3.01 8.51 6.3 12.14 8.16 21.9 11.26 12.03 3.81 16.24 5.81 22.61 10.75 9.37 7.25 11.8 11.87 7.46 14.19-1.74.93-3.24.38-7.64-2.8zm54.41-8.97c-2.3-3.5-1.44-7.97 1.88-9.74 4.61-2.47 10.48 6.69 6.38 9.96-3.47 2.78-6.34 2.7-8.26-.22zm-325.45-1.33c-1.73-1.73-.78-7.15 1.46-8.35 1.24-.66 2.26-2.17 2.26-3.34 0-5.71 3.63-7.55 7.18-3.64 2.63 2.9 2.32 5.5-.9 7.6a7.64 7.64 0 0 0-3.1 4.84c-.27 2.28-1.06 3.1-3.22 3.36-1.58.18-3.24-.03-3.68-.47zm21.25-7.24c-1.24-.47-3.42-2.1-4.83-3.63l-2.57-2.77 2.37-3c2.68-3.42 7.83-4.08 10.14-1.3.78.94 1.48 3.55 1.55 5.78.14 4.52-2.53 6.49-6.66 4.92zm33.81-6.1c-.33-.88-.45-3.05-.24-4.81.26-2.32 1.06-3.3 2.9-3.57 3.38-.48 5.64 4.06 3.76 7.57-1.46 2.72-5.49 3.23-6.42.8zm-18.46-1.14c-1.9-2.3-.44-6.31 2.3-6.31 2.66 0 4.06 3.02 2.53 5.46-1.58 2.5-3.22 2.8-4.83.85zm33.19-1.22c-.97-3.84.13-6.22 2.87-6.22 2.44 0 4.21 4.29 3.04 7.35-1.08 2.82-5.12 2.05-5.91-1.13zm253.51.62c-2.02-2.24-2.03-2.4-.05-4.58 3.93-4.34 10.2-1.93 9.42 3.61-.51 3.62-6.42 4.23-9.37.97zm-185.7-2.07c-2.72-2.72-.26-4.53 9.56-7.03 10.56-2.7 22.5-3.08 27.5-.88 3.3 1.45 4.04 5.6 1.4 7.79-2.33 1.93-36.55 2.04-38.46.12zm46.81-2.6c-3.88-2.26-.86-7.57 3.52-6.18 3.16 1 4.08 4.22 1.7 5.96-2.34 1.7-2.64 1.72-5.22.22zm48.96-2.1c-1.72-3.2-1.44-5.5.8-6.68 2.56-1.34 6.59.2 8.14 3.08.99 1.85.75 2.58-1.31 4.03-3.4 2.37-6.22 2.22-7.63-.43zm18.69-1.45c-2.5-3.57-2.19-6.2.99-8.29 3.29-2.16 6.16-1.03 8.5 3.35 1.38 2.56 1.32 3.17-.5 5.18-2.71 3-6.8 2.88-9-.24zm17.49-1.6c-3.94-3.32-4.33-7.74-.87-9.9 2.36-1.49 4.75-.26 8.03 4.14 2.09 2.8 2.1 3.11.31 5.85-2.37 3.6-3.08 3.6-7.47-.1zm22.9.75c-3.78-3.51-4.3-6.72-1.54-9.48 2.78-2.78 5.23-1.87 7.97 2.95 1.32 2.32 1.38 3.48.3 5.83-1.6 3.5-3.51 3.7-6.73.7zm22.85-.07a5.22 5.22 0 0 1 3.16-8.8c2.46-.29 3.32.24 4.22 2.61 1.51 3.96 1.45 4.62-.64 6.71-2.38 2.38-4.24 2.24-6.74-.52z"/>
</svg>
