<?xml version="1.0" encoding="utf-8"?>
<svg xmlns="http://www.w3.org/2000/svg" viewBox="0 0 1503 1490">
	<title>A ground plan of a boathouse situated on the bank of River Cranshaw, with two different sets of footprint tracks passing nearby.</title>
	<path d="M837.18 1484.29c-2.88-2.74-5.9-4.99-6.73-4.99-.81 0-2.22-1.12-3.12-2.5-1.54-2.35-2.15-2.5-10.46-2.5-4.85 0-9.1-.45-9.44-1-.8-1.28-7.22-1.3-7.66-.02-.42 1.21-41.82 1.91-41.82.7 0-.47-1.9-.51-4.24-.1-3.74.66-57.7 1.63-82.16 1.47-7.82-.05-9.23-.34-11.31-2.29l-2.37-2.23-1.77 2.34-1.77 2.35-38.4.15-38.4.15-.96 2.2c-.53 1.21-2.36 2.95-4.05 3.86-2.66 1.43-3.77 1.5-8.03.45-2.72-.67-7.71-1.52-11.1-1.89-3.82-.41-6.94-1.37-8.2-2.52-1.3-1.18-3.5-1.83-6.02-1.8-4.28.06-6.49-1.62-5.93-4.52.27-1.43 1.72-1.93 7.2-2.47 3.78-.38 8.95-1.67 11.5-2.89l7.44-3.56c1.55-.76 4.99-1.37 7.63-1.37 4.34 0 5.15.39 8.45 4.04l3.65 4.05 18.7-.05c10.3-.02 20.5-.23 22.67-.46 5.6-.6 25.17-.76 96.5-.81 34.35-.02 63.81-.06 65.46-.08 1.65-.02 12.08.09 23.17.24l20.17.28 3.41-2.6c1.88-1.44 3.72-2.61 4.09-2.61.36 0 3.18-2.05 6.26-4.55 5.58-4.56 9.87-5.62 9.87-2.45 0 1.12-5.23 4.66-8.24 5.57-.13.04-.52 1.5-.87 3.25-.6 2.99-.46 3.18 2.27 3.18 2.26 0 4.42-1.54 9.84-7 3.82-3.85 7.5-7 8.18-7 .69 0 1.73.9 2.31 2 1.3 2.4 4.26 2.6 6.09.4 1.85-2.23 6-3.7 7.17-2.53 1.22 1.22-.03 5.13-1.64 5.13-1.62 0-7.17 5.78-6.34 6.6 1.43 1.44 7.75-.89 11.35-4.18l6.2-5.66c1.8-1.64 2.73-1.9 4-1.1 2.46 1.55 2.56 4.94.22 7.28-1.13 1.13-2.06 2.5-2.06 3.03 0 .55 5 1.09 11.64 1.25 9.73.23 11.82.56 12.72 2 1.98 3.13-1.81 4.8-10.86 4.75-9.62-.05-16 .5-16 1.38 0 .35 1.27 1.98 2.82 3.62 5.69 6.03.28 11.14-5.98 5.67-1.56-1.36-4.9-4.31-7.44-6.56-4.63-4.1-7.2-5.02-8.43-3.01-.79 1.27 3.06 5.63 5.7 6.47 3.13 1 4.28 4.3 2.26 6.53-.95 1.05-2.51 1.92-3.47 1.92-.96 0-5.17-3.65-9.36-8.1-5.5-5.86-8.07-7.92-9.27-7.46-1.36.52-.78 1.54 3.15 5.52 5.53 5.62 5.67 8.38.39 7.85-2.5-.25-3.58-1.1-5.1-4.06-1.07-2.06-2.47-3.75-3.11-3.75-.64 0-1.6-1.01-2.15-2.25a7.3 7.3 0 0 0-3.24-3.23c-1.23-.55-2.25-1.39-2.25-1.87 0-.5-.67-.33-1.5.35-2.2 1.83-1.98 2.28 3.62 7.73 4.07 3.97 4.97 5.42 4.43 7.12-1.06 3.34-3.6 2.55-9.28-2.86zm20.9-17.64c1.97-1.78 2.39-3.34.9-3.34-1.2 0-4.07 2.87-4.07 4.07 0 1.38 1.12 1.13 3.17-.73zm-111.87-46.6c-5.94-.95-4.42-.34-7.42-2.08-3.14-1.83-2.78-1.81-3.52-3.17-.52-.93-.16.82-2.75-8.15-1.38-4.75-.53-14.48 1.3-15.1.65-.2 2.13-2.48 3.29-5.04 2.53-5.58 14.73-17.7 18.63-18.5 1.5-.31 5.08-1.13 7.98-1.81 4.3-1.02 6.15-1 10 .1 2.6.73 6.07 1.56 7.72 1.83 5.98 1 11.02 9.57 8.67 14.74-1.75 3.84-5.3 3.03-6.64-1.52-1.46-4.99-2.15-5.76-5.79-6.54-1.78-.38-3.8-1.14-4.47-1.69-.69-.55-2.71-.71-4.5-.36-1.8.35-4.38.8-5.76.98-4.52.63-8 1.81-8 2.72 0 .49-.87.9-1.94.9-2.17 0-7.7 5.39-8.7 8.47a21.03 21.03 0 0 1-2.64 4.7c-1.76 2.38-1.93 3.65-1.36 10.4.36 4.24 1.12 8.26 1.7 8.95.57.7 4.79 1.8 9.37 2.44l8.34 1.19 7.54-3.68c5.13-2.5 8.22-3.46 9.67-3 2.58.82 2.3 3.83-.4 4.35-2.03.39-3.52 1.42-6.98 4.83a12.8 12.8 0 0 1-4.91 2.86c-1.49.38-2.95 1.08-3.26 1.57-.67 1.1-6.9.94-15.17-.39zm-364.83-.38c-1.41-.57-1.7-3.94-.39-4.75 1.4-.87 3.35-15.36 2.63-19.62-.63-3.74-.53-3.96 1.86-3.96 1.4 0 2.82-.46 3.17-1.04.36-.57 2.42-2.16 4.6-3.53 4.42-2.8 7.93-8.76 6.18-10.51-1.98-1.98-12.74-2.33-16.34-.54-1.8.9-3.8 1.63-4.46 1.63-2.93 0-6.2 7.18-5 10.97a4.1 4.1 0 0 0 2.64 2.35c3.34.87 1.57 3.07-3.21 4-5.67 1.1-7.72 3-9.08 8.37-.6 2.38-1.48 4.57-1.96 4.87-.48.3-.88 2-.88 3.76 0 3.98-2.45 7.66-5.1 7.66-2.7 0-6.9-4.39-6.88-7.2.01-1.26 1.36-4.27 3-6.7 1.64-2.41 2.98-4.75 2.98-5.2 0-.43 1.35-2.79 3-5.23 1.65-2.45 3-5.28 3-6.31a4 4 0 0 1 1.75-2.97c.96-.61 3.08-3.68 4.7-6.81 1.63-3.14 3.76-6.14 4.75-6.67.99-.53 1.8-1.62 1.8-2.42 0-2.85 24.13-2.32 30.74.67 3.86 1.74 4.2 2.18 3.61 4.64-.85 3.56-3.22 8.22-4.18 8.22-.41 0-1.26 1.34-1.88 2.99a7.42 7.42 0 0 1-3.8 4c-3.13 1.2-4.82 2.76-5.92 5.5-1.78 4.45-3.51 13.3-3.55 18.13-.03 4.46-.33 5.2-2.28 5.73-2.57.69-3.73.68-5.5-.03zm119.94-5.03c-3.32-3.4-4.24-5.08-4.24-7.76 0-1.88.45-3.7 1-4.04.54-.34 2.15-3.07 3.57-6.06 2.43-5.14 7.66-10.43 10.3-10.43.65 0 2.3-.73 3.66-1.62 2.78-1.82 13.1-2.46 14.24-.88.39.55 1.6 1.5 2.7 2.1 3.19 1.76 4.07 7.77 2.07 14.1-1.35 4.3-1.45 5.71-.48 6.88.96 1.17.94 2-.1 3.94-.72 1.35-1.74 2.46-2.24 2.46-.51 0-2.12.85-3.58 1.88-3.19 2.26-11.95 4.16-18.15 3.93-3.89-.14-5.07-.75-8.75-4.5zm10.25-4.3c.89-1.44 6.25-1.24 6.75.24.32.96.75.98 1.83.1.78-.65 2.76-1.32 4.4-1.5 1.8-.21 3.12-1 3.3-2 .26-1.32-1.09-1.88-6.79-2.84-3.91-.66-8.7-.9-10.65-.54-3.03.57-3.45.98-2.95 2.85.32 1.2.59 2.75.6 3.44.01 1.48 2.63 1.67 3.51.24zm16.92-16.15c1.23-2.48 1.31-3.45.36-4.6-2.43-2.93-15.75.63-17.28 4.62-.88 2.28 1.4 3.1 8.67 3.12 6.5.01 6.72-.07 8.25-3.14zm442.38 22.66c-2.75-2.93-2.5-3.58 6.26-17.24 1.5-2.33 2.72-5.36 2.72-6.75 0-2.13-.46-2.52-3-2.52-1.65 0-3 .39-3 .86s-1.98 1.49-4.41 2.26c-3.63 1.16-5.23 2.56-9.04 7.9-2.54 3.56-5.35 8.18-6.25 10.27-1.36 3.17-2.06 3.75-4.2 3.5-4.07-.47-4.08-6.62-.04-14.31 1.73-3.29 3.67-6.43 4.31-6.98.65-.55 2-3.02 3.01-5.5 1.01-2.47 2.24-5.17 2.73-6 .5-.82 1.38-2.62 1.96-3.99a355.3 355.3 0 0 1 6.82-15c.45-.82 2.23-1.63 3.96-1.8 2.74-.28 3.15 0 3.15 2.05 0 1.3-.66 3.25-1.47 4.31-.8 1.07-1.48 2.51-1.5 3.21-.01.7-1.15 3.05-2.53 5.23-1.37 2.18-2.5 4.62-2.5 5.43 0 .8-.59 1.83-1.32 2.27-1.79 1.08-2.81 4.1-1.64 4.82.53.32 3.83-.79 7.35-2.47 3.92-1.87 7.99-3.05 10.5-3.05h4.1v4.6c0 3.4-1.17 7.1-4.5 14.05-2.46 5.19-4.49 10.23-4.49 11.2 0 .98-1.04 2.76-2.32 3.96l-2.32 2.18zm18.9-.44c-2.38-2.38-2.92-3.77-2.92-7.5 0-6.96 5.95-13.84 16.4-18.95 7.3-3.57 8.4-3.82 14.27-3.35 5.52.44 6.5.26 7.37-1.38 1.48-2.76 5.58-2.45 6.31.48.62 2.46-1.24 9.27-4.4 16.13-1.02 2.2-2.6 5.8-3.54 8-.93 2.2-2.37 4.78-3.21 5.74-1.9 2.18-5.55 2.26-7.29.17-1.64-1.98-6.04-1.26-9.64 1.57a10.16 10.16 0 0 1-13.35-.91zm21.37-10.93c2.3-1.01 4.9-2.1 5.75-2.39.85-.3 2.16-2.4 2.91-4.66 1.25-3.8 1.2-4.24-.55-5.57-3-2.27-6.76-1.78-11.26 1.48-2.27 1.65-4.38 3-4.68 3-.3 0-1.88.98-3.51 2.19-7.72 5.7 1.24 10.41 11.34 5.95zm-556.65 10.3a11.29 11.29 0 0 1-.03-4.71c.32-1.23 1.19-4.7 1.93-7.73a73.75 73.75 0 0 1 2.53-8.31 15.56 15.56 0 0 0 1.17-4.75c0-1.29.7-1.93 2.07-1.93 1.61 0 1.93-.45 1.43-2-.39-1.23-.18-2 .55-2 .83 0 1.06 2.06.78 7l-.4 6.99h2.67c3.62 0 5.47 2.28 3.3 4.07a11.2 11.2 0 0 0-2.53 3.39c-1.4 3.09-5.67 8.71-7.63 10.03-3.77 2.54-5.19 2.53-5.84-.05zm88.23.37c-.39-1.48.38-3.47 2.38-6.2 1.62-2.2 2.95-4.53 2.95-5.17 0-.65.85-2.26 1.9-3.58 1.04-1.32 2.6-4.77 3.45-7.66 3.08-10.37 8.6-14.51 10.82-8.13.65 1.86 1.57 2.86 2.37 2.56.72-.28 2.99-.82 5.04-1.2 2.05-.4 4.89-1.31 6.32-2.06 3.66-1.9 8.47-1.7 10.43.47 4.14 4.57 1.2 6.09-14.36 7.39-10.5.88-13.26 1.42-13.64 2.69-.26.87-.9 2.36-1.4 3.32a8.4 8.4 0 0 0-.93 3.24c0 .84-.42 1.52-.93 1.52-1.04 0-4.07 5.63-4.07 7.57 0 1.92-5.9 7.42-7.96 7.42-1.01 0-2.05-.95-2.37-2.18zm375.16.18c-1.38-1.07-3.01-1.96-3.64-1.98-1.65-.03-4.6-4.94-3.97-6.6.88-2.28 4.81-1.58 9.04 1.61 4.64 3.52 6.68 3.68 11.2.9 2.57-1.6 3.36-2.77 3.36-5 0-2.43-.41-2.92-2.44-2.92-1.34 0-2.72-.45-3.06-1-.34-.55-1.9-1-3.49-1-7.08 0-10.43-4.22-7.78-9.8 1.04-2.17 2.26-2.86 6.28-3.53 2.75-.46 5.77-1.25 6.73-1.75 2.3-1.21 6.49-1.16 7.26.09.34.55 1.62 1 2.86 1 2.88 0 4.64 1.79 4.64 4.73 0 3.35-2.12 3.7-7.44 1.19-3.5-1.65-4.97-1.92-5.82-1.06-.63.62-2.51 1.18-4.19 1.24l-3.04.1 3 .77a23.36 23.36 0 0 1 11.48 6.85c4.09 4.48 4.2 5.65.9 9.8-6.13 7.7-16.36 10.69-21.88 6.36zm121.1.41c-1.08-1.23-1.1-2.48-.12-6.7a46 46 0 0 1 3-8.7c1-1.93 2.05-5.92 2.35-8.88.54-5.28 2.7-9.11 5.15-9.11 1.7 0 2.37 3.52 1.84 9.74-.3 3.47-.08 5.25.66 5.25 1.48 0 9.91-8.18 9.93-9.64.03-1.62 4.71-2.59 6.9-1.42 1.52.82 1.75 1.85 1.33 6.15-.39 4.08-.2 5.07.87 4.71 1.41-.47 5.78-7 8.22-12.3 1.95-4.24 4.2-5.83 7.18-5.08 3.52.88 3.52 6.28 0 9.58-1.37 1.3-2.5 2.88-2.5 3.54 0 .65-1.03 2.7-2.29 4.57a109.27 109.27 0 0 0-4.71 7.89c-3.08 5.73-6.9 10-8.97 10-2.45 0-4-2.08-4.09-5.46a22.4 22.4 0 0 0-1.77-6.9l-1.7-3.85-4.23 4.58c-2.32 2.52-4.22 5.25-4.22 6.07 0 .82-1.33 2.85-2.96 4.52-3.27 3.35-7.62 3.98-9.87 1.44zm-211.5-2.5c-3.39-1.82-4.83-5.84-4.36-12.19.27-3.68.63-4.18 3.55-4.93 1.79-.46 3.25-1.05 3.25-1.32 0-.9-2.5-4.95-3.5-5.7-1.72-1.26-10.88-.8-13.5.7-1.37.78-3.92 2.09-5.67 2.9-3.11 1.45-6.32 6.04-6.32 9.04 0 .82-.6 1.86-1.35 2.3-.75.44-1.91 2.48-2.58 4.54-1.33 4.1-2.66 4.69-4.59 2.05-1.25-1.71-.8-3.26 2.1-7.3.6-.82 2.12-3.97 3.38-6.99 1.26-3.02 2.9-5.86 3.66-6.3.76-.44 1.38-1.38 1.38-2.1 0-2.51 3.06-7.37 4.96-7.87 2.3-.6 3.04-.01 3.04 2.44 0 2.3 3.58 2.45 7.63.34 3.45-1.8 9.5-1.96 11.16-.3.66.66 1.2 2 1.2 3 0 .99.2 1.8.45 1.8.9 0 6.08-2.41 7.55-3.51 3.7-2.77 20.1-3.77 22.43-1.37 1.45 1.5.15 10.06-2.06 13.59a9.6 9.6 0 0 0-1.38 4.18c0 1.1-.45 2.26-1 2.6-.55.34-1 1.6-1 2.82 0 1.21-.84 3.76-1.86 5.67l-1.85 3.45-10.87.03c-8.09.02-11.64-.39-13.85-1.58zm18.5-9.3c3.56-2.42 8.93-11.19 8.93-14.56 0-4.39-13.32-2.51-18.07 2.55-1.25 1.32-2.82 2.41-3.48 2.41-1.4 0-2.4 3.16-2.43 7.68 0 2.5.46 3.27 2.24 3.61 5.72 1.1 9.41.61 12.82-1.7zm-425.86 6.64c0-2.06 1.12-5.96 2.5-8.66 1.37-2.7 2.5-5.79 2.5-6.84 0-1.06.66-3.12 1.48-4.58a43.15 43.15 0 0 0 2.5-5.48c1.13-3.13 3.58-3.31 5.4-.4.82 1.32.8 1.97-.07 2.52-.65.4-1.73 2.97-2.41 5.72-.68 2.74-2.36 6.46-3.73 8.27-1.7 2.26-2.16 3.62-1.46 4.33.7.7.7 2.3.03 4.95-.87 3.42-1.36 3.92-3.87 3.92-2.66 0-2.88-.28-2.87-3.75zm466.94 2.45c-1.1-1.32-.51-5.7.76-5.7.38 0 1.48-1.8 2.45-4 .97-2.2 2.39-4.61 3.14-5.37.76-.76 1.68-2.56 2.04-4 .6-2.42.4-2.62-2.55-2.62-2 0-5.36 1.4-8.92 3.7-5.67 3.65-8.05 6.8-8.12 10.75-.02 1.12-1.12 3.37-2.45 5-2.36 2.9-2.44 2.91-4.46 1.09a6.24 6.24 0 0 1-.39-8.72c1.9-2.1 3.32-4.44 6.59-10.82 2.47-4.84 6.85-10 8.49-10 .55 0 1.57.68 2.25 1.5 1.48 1.79 4.67 1.99 5.23.33.22-.67 2.5-1.2 5.33-1.25 3.89-.06 5.43.42 7.24 2.23 2.08 2.08 2.2 2.66 1.17 5.78-.63 1.9-2.65 5.7-4.48 8.41-1.82 2.72-3.63 6.42-4.02 8.22-.38 1.8-1.39 4.06-2.24 5.02-1.81 2.06-5.53 2.3-7.06.45zm-409.24-20.6c-1.49-.53-1.01-1.37 3-5.27 4.56-4.46 8.45-6.07 10.92-4.53.63.4.92 1.6.64 2.68-.88 3.34-11.1 8.34-14.56 7.12zm-41.11-24.91c-.94-1.52 2.46-5.16 4.83-5.16 1.27 0 2.92.72 3.65 1.6 1.13 1.37 1.05 1.82-.57 3-2.09 1.53-7.1 1.88-7.91.56zm503.65-104.25c-3.55-3.13-3.67-3.44-3.06-8.07.5-3.76.32-4.95-.83-5.4-2.43-.92-6.86 1.9-8.02 5.1-1.56 4.35-4.59 8.5-6.19 8.5-2.1 0-1.66-3.36 1.12-8.59 1.37-2.58 2.5-4.9 2.5-5.14 0-.66-8.35.85-9.5 1.72-.55.42-2.57 1.28-4.5 1.91-2.42.8-4.54 2.69-6.87 6.13-3.62 5.34-4.26 5.72-6.01 3.61-.87-1.05-.38-2.84 2.13-7.75 1.79-3.5 3.51-6.6 3.83-6.88.31-.27.86-1.29 1.22-2.25.74-2.02 4.71-2.34 6.53-.52.96.96 1.66.95 3.31-.09 1.5-.93 2.4-1 3.18-.22 1.72 1.73 9.67 1.38 9.67-.42 0-.82.35-1.5.77-1.5.41 0 1.2-1.01 1.74-2.25a3.57 3.57 0 0 1 3.49-2.25c2.18 0 2.51.46 2.6 3.61.06 1.98.45 4.16.87 4.84 1.09 1.77 7.64.34 9.3-2.03 1.97-2.83 8.21-2.54 12.81.58 4.56 3.1 5.2 3.1 9.36.03 6-4.42 7.04-.22 1.54 6.2-1.92 2.25-3.5 4.35-3.5 4.68 0 .32 1.35.59 3 .59s3-.45 3-1 .8-1 1.78-1c2.98 0 6-2.81 7.26-6.75 1.5-4.68 2.2-5.47 4.23-4.7 3.64 1.4 2.8 3.6-6.78 17.77l-2.58 3.83-7.2-.5c-3.96-.28-8.9-.81-10.97-1.19-2.08-.38-5-.22-6.5.36-6.78 2.6-8.83 2.45-12.73-.96zm12.5-6.86c0-.55.66-1 1.47-1 .8 0 1.93-.88 2.5-1.95.83-1.55.62-2.35-1-3.86-2.64-2.46-6-1.8-9.53 1.87-2.29 2.4-2.53 3.12-1.46 4.4 1.4 1.7 8.02 2.13 8.02.54zm11-5.5c0-.83-.9-1.5-2-1.5-2 0-2.6 1.07-1.34 2.33 1.22 1.22 3.34.7 3.34-.83zm24.98 11.22c0-2.22.75-4.08 2.13-5.32 1.17-1.05 2.98-3.7 4-5.9a70.66 70.66 0 0 1 3.83-7 83.58 83.58 0 0 0 3.6-6.24c1.85-3.62 4.44-4.34 4.44-1.24 0 1.83-.72 3.64-3.15 7.98a727.75 727.75 0 0 0-9.87 19c-.37.82-1.65 1.64-2.83 1.81-1.84.28-2.15-.17-2.15-3.1zm15.6 2.55c-1.38-1.39-.44-5.8 1.9-8.86 1.37-1.8 2.5-3.8 2.5-4.44 0-.64.89-2.42 1.98-3.95a47.11 47.11 0 0 0 3.86-7.16c1.03-2.41 2.6-4.98 3.47-5.7 1.74-1.45 3.68-.79 3.68 1.25 0 1.96-3.02 7.6-4.07 7.6-.51 0-.93.6-.93 1.35 0 .75-1.17 3.08-2.6 5.19a40 40 0 0 0-4.09 8.45c-1.4 4.37-4.35 7.6-5.7 6.27zm15.01-1.08c-.27-.45.04-1.73.7-2.87.64-1.13 2.26-4.03 3.57-6.44 5.56-10.2 10.37-9.9 5.37.33a106.8 106.8 0 0 0-3.64 8.03c-.57 1.78-5.05 2.49-6 .95zm21.37-.7c0-.82-.45-1.5-1-1.5s-1-1.57-1-3.5c0-4.11 1.45-4.46 4.18-1 1.93 2.46 5.2 3.33 6.22 1.66.29-.47-.8-2.13-2.44-3.69-1.67-1.6-2.96-3.88-2.96-5.24 0-5.3 9.64-8.61 12.03-4.14 1.75 3.27.55 5.1-2.57 3.9-5.23-1.98-7.95-.07-3.06 2.16 4.64 2.11 3.48 10.85-1.61 12.21-4.2 1.13-7.79.73-7.79-.86zm-162.93-1a7.18 7.18 0 0 1-1.24-3.95c0-2.82 5.73-10.54 7.83-10.54.78 0 1.41-.45 1.41-1s.34-.9.75-.79c.42.12 1.78-.35 3.04-1.05 1.97-1.1 2.78-.97 5.75.87 5.2 3.21 4.81 6.9-1.4 13.1-4.52 4.53-5.2 4.86-9.87 4.86-3.25 0-5.46-.53-6.27-1.5zm11.53-3.5c1.47-.56 2.9-1.91 3.18-3 .29-1.1.92-2 1.4-2 .5 0 .89-1.12.89-2.5 0-3.74-3.8-3.23-8.28 1.12-5.94 5.77-4.45 9.14 2.81 6.37zm-34.8-2.24c-.4-1.1 1.86-6.37 3.31-7.75.3-.27 1.4-2.46 2.45-4.86 2.47-5.58 5.02-7.19 12.5-7.87 4.93-.44 6.41-.21 8.03 1.25 2.7 2.43 2.5 5.72-.56 9.35a16.5 16.5 0 0 1-13.15 6.13c-4.49 0-10.3 2.27-10.3 4.02 0 1.41-1.74 1.2-2.28-.27zm19.57-9c1.48-.69 2.7-2 2.7-2.94 0-.93.48-1.98 1.06-2.34 2.02-1.25-1.23-3.46-5.1-3.46-4.7 0-9.95 4-9.95 7.58 0 2.17.43 2.41 4.3 2.41 2.37 0 5.51-.56 7-1.25zm157.64-5.23c-1.47-1.79-.64-4.51 1.38-4.51 1.7 0 2.47 1.78 1.83 4.24-.55 2.14-1.58 2.23-3.2.27zm-326.1-17.17c-3.24-.56-3.8-2.22-3.78-11.33.04-21.47 1.65-74.66 2.3-75.65.42-.65.3-1.46-.25-1.8-1.42-.88-1.3-14.83.14-16.27.87-.87.84-1.53-.13-2.7-1.04-1.25-1.04-1.83 0-3.08.97-1.17 1-1.82.13-2.7-.64-.63-1.16-3.27-1.16-5.85 0-4.97.88-5.9 5.58-5.9 1.75 0 2.42-.55 2.42-2 0-2.07-2.42-2.76-3.5-1-.94 1.51-2.5 1.2-2.5-.5 0-.82-.46-1.5-1.01-1.5-.6 0-.5-.83.25-2.03 1-1.62 1-2.18.01-2.8-.88-.55-1.17-3.53-1-10.22l.25-9.44-14.5-.8c-17.22-.97-42.97 1.04-42.97 3.35 0 1.57-2.58 1.08-4.3-.81-1.28-1.43-1.44-2.88-.82-7.44.42-3.11 1.38-6.4 2.13-7.3 1.15-1.39 1.14-1.78-.08-2.55-1-.63-1.05-.91-.18-.92.69-.01 1.25-.92 1.25-2.02s-.45-2-1-2c-1.23 0-1.33-6.23-.12-7.54 1.38-1.5 2.04-14.13.8-15.37a4.15 4.15 0 0 0-6.68 1.42c-.52 1.38-1.65 2.5-2.5 2.5-.86 0-3.14 1.58-5.06 3.5-4.16 4.16-5.33 4.3-8.43 1-2.71-2.88-4.23-3.12-6.04-.95-1.6 1.93-6.46 1.52-6.46-.55 0-1.07.98-1.45 3.42-1.33 2.55.12 3.9-.45 5.33-2.25 1.32-1.68 2.9-2.42 5.2-2.42 1.81 0 3.88-.7 4.6-1.55.7-.86 2.78-2.19 4.61-2.95 1.83-.76 3.33-2.09 3.33-2.94 0-1.24-1.45-1.6-7.24-1.76-13.65-.4-22 .34-25.6 2.27-1.9 1.02-3.82 1.63-4.26 1.36-.44-.27-3.7.01-7.24.63-7.47 1.3-44.3-.33-46-2.04-.56-.56-3.37-1.01-6.25-1.01s-5.52-.45-5.86-1c-.34-.55-4.1-1-8.35-1-4.26 0-8.2-.45-8.75-1.01-.56-.56-7.93-1.9-16.38-2.99-8.46-1.09-15.83-2.43-16.39-2.99-.55-.55-2.6-1.03-4.55-1.06-4.24-.05-19.64-3.2-20.66-4.23-.4-.4-3.76-.71-7.49-.71-3.72 0-7.03-.43-7.36-.95-.32-.52-3.6-.99-7.3-1.04-42.07-.55-65.04-1.23-66.7-1.98-2.58-1.18-7.38-1.88-21.48-3.14-6.32-.56-11.92-1.45-12.45-1.96-.52-.51-2.77-.93-5-.93-5.02 0-21.65-2.95-23.1-4.1-.61-.48-1.51-.42-2.07.14-1.71 1.71-29.87 3.03-39.69 1.85-4.86-.58-9.97-.77-11.35-.43-1.48.37-3.39.06-4.65-.76-2.5-1.63-25.08-2.37-26.96-.89-1.57 1.23-16.93 2.63-28.66 2.61-14.29-.02-38.33-1.58-39.58-2.55-.61-.48-5.33-1.13-10.5-1.45-5.16-.32-10.07-.86-10.9-1.2-.82-.34-3.51-.66-5.99-.71-8.79-.18-26.5-1.77-27.48-2.47-1.38-.98-13.37-2.88-22.74-3.6-4.25-.33-7.96-.96-8.23-1.4-.83-1.34-10.23-2.08-27.5-2.14-16.28-.06-19.64-.54-27.5-3.97a44.34 44.34 0 0 0-7.14-2.39 10.64 10.64 0 0 1-4.95-2.64c-1.8-2-1.76-2 20.14-1.42 27.04.7 37.5 1.36 38.88 2.44.58.46 3.98 1.1 7.55 1.41 14.85 1.33 25.37 2.75 26.4 3.58.6.48 4.01 1.17 7.58 1.53 16.47 1.66 25.07 2.89 25.54 3.64.28.46 4.33.56 9 .23 5.23-.37 9.37-.2 10.73.46 3.89 1.86 13.76 3.24 23.28 3.24 6.09 0 9.38.39 9.63 1.15.56 1.65 22.44 1.37 24.48-.32 2.4-2 54.31-1.87 56.72.13 1.22 1 4.75 1.55 11.4 1.73l10.64.31c3.2.12 12.18-1.4 13.23-2.24.96-.77.8-1.61-.75-3.78-2.69-3.77-2.85-13.72-.24-14.68a5.73 5.73 0 0 0 2.35-1.53c.32-.48 3.07-1.13 6.1-1.45 4.98-.51 5.66-.34 7.15 1.79 1.56 2.22 1.53 2.46-.6 4.57-1.24 1.23-4.02 2.82-6.18 3.53-2.15.7-4.12 1.92-4.38 2.69-.36 1.12.4 1.26 3.88.7 2.38-.38 4.9-1.16 5.58-1.73 1.47-1.22 3.34-.33 3.34 1.57 0 1.14-7.4 5.4-11.99 6.9-.82.28.1.53 2.05.58 1.95.04 4.04.56 4.63 1.16.79.79 1.28.79 1.76 0 .77-1.24 4.55-1.49 4.55-.29 0 1.37 13.93 3.28 28 3.83 7.41.29 14.38.9 15.48 1.36 5.73 2.37 25.23 4.9 27.42 3.56.64-.4.66-1.5.06-3.08-.83-2.16-.26-3.18 4.86-8.7 3.2-3.45 6.1-7.09 6.48-8.1a4.33 4.33 0 0 1 2.67-2.37c1.1-.29 2-1.08 2-1.77 0-2.02 4.04-6.58 6.87-7.73 3.33-1.35 16.6-1.07 20.85.45 3.87 1.39 5.24 5.98 3.23 10.83-1.01 2.44-1 3.5.02 5.4 1.7 3.18.52 7.38-2.39 8.49-2.65 1-3.91 5.27-2.2 7.46.6.78 2.9 1.57 5.08 1.75l3.98.32.9-4.89c1.28-6.9 8.22-14.07 14.63-15.11 2.47-.4 4.8-1.2 5.15-1.76.42-.66 2.17-.29 4.87 1.05 3.25 1.6 4.61 1.84 5.96 1 .96-.6 2.53-.8 3.48-.43 2.72 1.04 1.12 5.12-4.52 11.61-5 5.74-6.16 9.42-3.74 11.83 1.72 1.72 5.8 1.51 5.8-.3 0-.83.44-1.5 1-1.5.54 0 1-.59 1-1.31 0-1.14 2.2-4.04 11.03-14.53 1.21-1.44 2.6-2.12 3.55-1.75.86.33 3.97.6 6.92.6 4.84 0 5.55.29 7.57 3.12 2.01 2.83 2.07 3.2.56 4.05-.9.5-1.65 1.5-1.65 2.22 0 .72-2.7 4.03-6 7.36s-6 6.5-6 7.04c0 1.51 2.38 2.12 12.85 3.27 5.3.59 10.07 1.48 10.6 2 .52.5 1.75.92 2.74.92 1 0 1.8.45 1.8 1 0 1.38 6.34 1.26 7.74-.14.85-.86 3.02-.87 8.45-.06 10.62 1.58 17.97 2.1 39.78 2.74 19.99.6 28.45-.3 33.72-3.6 1.67-1.05 2.65-1.09 4.45-.18 1.28.64 3.21 1.3 4.31 1.45 1.73.25 1.99-.24 1.87-3.63-.07-2.32-.78-4.4-1.72-5.1-1.43-1.04-1.34-1.41.87-3.5 1.77-1.65 2.48-3.38 2.48-5.99 0-4.09 2.39-6.98 5.76-6.98 2.1 0 2.55.79 3.71 6.62.5 2.47.08 3.76-2.04 6.28-2.42 2.88-2.53 3.33-1.14 4.88a9.25 9.25 0 0 1 1.87 4.18c.5 3.56 6.73 5.06 13.83 3.32l3.5-.86.3-6.96c.17-3.83.73-7.39 1.25-7.91.52-.52.95-6.43.95-13.12 0-9.6-.32-12.44-1.5-13.42-2.11-1.75-1.86-3.63.72-5.44 2.52-1.76 10.32-2.1 11.31-.5.43.7 5.86 1.01 15.3.9 8.06-.09 15.47.17 16.47.57 1.02.42 2.3.24 2.95-.4.62-.62 3.71-1.12 6.87-1.12 3.26 0 6.04-.5 6.45-1.16.4-.64.84-18.4.99-39.46.14-21.07.53-38.73.85-39.25 1.1-1.76.73-41.3-.38-42.42-1.31-1.31-1.39-6.92-.12-8.2 1.12-1.13 1.57-18.18.55-20.7a3.5 3.5 0 0 1 .52-3.25c.98-1.19.97-1.8-.05-3.04-1.43-1.72-2.07-14.26-.77-15.06 1.15-.71 1-6.14-.19-6.88-.55-.34-1-3.45-1-6.92 0-4.93.47-6.9 2.15-9.03 1.96-2.5 2.52-2.67 6.74-2.03 2.53.38 31.37.85 64.08 1.04 32.7.19 60.02.37 60.68.4 1.93.08 3.69 4.05 2.38 5.35-.6.6-1.1 2.78-1.1 4.85 0 2.06-.5 4.86-1.12 6.21-.82 1.82-.83 3.31 0 5.66.63 1.84.75 3.83.26 4.7-.7 1.26-1.11 1.13-2.49-.84a9.69 9.69 0 0 1-1.64-4.62c0-2.24-.16-2.27-12.43-2.27-7.21 0-12.7-.42-13.06-1-.33-.55-3.7-1-7.5-1-3.78 0-7.15.45-7.49 1-.82 1.33-8.2 1.29-9.02-.05-.44-.71-1.12-.66-2.1.16-1.1.91-1.74.92-2.61.05-1.49-1.49-37.33-1.64-38.24-.16-.92 1.49-9.24 1.2-11.78-.4-4.9-3.09-6.34-2.9-8.22 1.05-1.5 3.14-1.65 5.31-1.08 14.43.47 7.39.34 10.94-.41 11.4-.8.5-.78 1.06.03 2.05.8.97.95 6.51.5 19.15-.82 22.96-1.75 84.98-1.46 97.25.32 13.37.3 123.23-.03 154.43-.08 8.24-.1 16.11-.01 17.49.08 1.37.25 25.21.38 52.97.14 27.77.32 51.04.42 51.73.13.94 4.41 1.25 17.6 1.25 10.55 0 17.68.4 18.05 1 .34.55 1.5 1 2.56 1 1.07 0 1.94-.45 1.94-1 0-1.52 26.53-1.3 29 .24 1.58.99 2.4.99 3.97 0 2.62-1.64 17.38-1.63 20.15 0 1.7 1 2.2 1 2.57 0 .34-.94 6.1-1.24 24.2-1.24 21.4 0 23.91.17 25.34 1.76 1.92 2.12 1.28 9.53-.99 11.4-1.93 1.61-59.03 2.68-83.75 1.58-6.15-.27-57.9 1-65.47 1.61-3.02.25-6.73.24-8.24-.02zm51.95-10.94c-.33-.33-1.2-.36-1.91-.08-.8.32-.56.56.6.6 1.05.05 1.64-.19 1.31-.52zm-45.7-3.4a1 1 0 0 0-1-1 1 1 0 0 0-1 1 1 1 0 0 0 1 1 1 1 0 0 0 1-1zm3.5-9.99c-.35-.55-1.05-1-1.56-1-.52 0-.95.45-.95 1s.7 1 1.56 1c.86 0 1.28-.45.94-1zm-5.73-41.79c.21-.65-.32-1.19-1.19-1.19-.87 0-1.58.72-1.58 1.59 0 1.76 2.15 1.45 2.77-.4zm-6.45-98.1c1.31-6.65.67-6.87-20.79-6.94-15-.05-18.52.2-19.53 1.42-.67.82-1.79 1.48-2.48 1.48s-1.81.68-2.5 1.5a4.57 4.57 0 0 1-3.06 1.5c-1 0-3.09 1.16-4.63 2.57l-2.8 2.57 5-.5c2.74-.27 8.14-.19 11.99.18 3.85.37 13.95.67 22.46.65l15.47-.02zm-46.9-5.65c1.36.34 2.77.14 3.13-.44.44-.71-.95-.96-4.17-.76-3.91.25-4.9.7-5.21 2.31-.37 1.96-.33 1.96 1.7.13 1.4-1.27 2.86-1.67 4.55-1.24zm11.1-4.39c.78-1.26 11.18-1.31 11.96-.05.76 1.23 21.6.12 23.32-1.24.83-.66 1.19-2.83 1-6.11-.3-5.02-.35-5.1-3.8-5.42-1.92-.18-3.98-.74-4.59-1.25-.6-.5-8.33-.88-17.16-.84-10.59.05-16.82-.32-18.28-1.1-1.75-.94-2.38-.9-3.06.17a5.69 5.69 0 0 0-.87 2.05c-.01.4-1.33-.05-2.94-.97-2.76-1.58-3.04-1.57-4.92.13-1.53 1.39-1.98 3.03-1.94 7.22l.05 5.42H651c3 0 5.2.55 6 1.5 1.4 1.7 9.5 2.08 10.49.5zm35.98-24.48v-7l-18.18-.27c-17.3-.26-18.28-.17-20.11 1.8-1.44 1.54-2.61 1.9-4.57 1.4-1.45-.36-2.89-1.05-3.19-1.54-.73-1.18-7.09-1.14-9.32.05-2.34 1.25-2.7 8.31-.53 10.12.9.74 4.96 1.42 9.64 1.6 4.45.17 8.21.43 8.35.57.15.15 8.73.26 19.09.26h18.82zm-58.98-7.77c-2.04-1.13-2.94-.34-2.1 1.84.52 1.37.9 1.43 2.18.37 1.4-1.16 1.39-1.38-.08-2.2zm8.08-3.37c1.97-1.3 3.9-1.51 9.14-1.02 3.65.34 7.1 1.08 7.65 1.64 1.32 1.32 12.3 1.33 13.12.02.34-.55 2.14-1 4-1 1.86 0 3.66.45 4 1 .97 1.58 8.3 1.17 11.03-.61 2.05-1.35 2.46-2.41 2.46-6.46 0-6.16-1.3-6.92-11.87-6.92-4.4 0-8.28-.45-8.62-1-.8-1.3-7.2-1.3-8 0-.35.57-2.27.74-4.43.4-2.45-.4-4.07-.2-4.54.55-.52.85-1.24.7-2.62-.54-1.05-.95-1.9-1.26-1.9-.7 0 .57-2.62 1.54-5.83 2.17-7.84 1.55-9.53 2.92-9.36 7.59.12 3.25 1.55 6.52 2.85 6.52.23 0 1.54-.74 2.92-1.64zm-170.5-12.78c0-.79 1.03-2.25 2.28-3.25 3.02-2.41 7.72-8.68 7.72-10.29 0-1.93-8.15-.38-10 1.9a9 9 0 0 1-3.74 2.53 4.75 4.75 0 0 0-2.86 3.1c-.34 1.34-.96 2.44-1.4 2.44-1.07 0-2.12 2.97-1.44 4.09.98 1.57 9.44 1.1 9.44-.52zm213.76-4.15 8.36-.62-.4-6.36c-.23-3.5-.63-6.58-.9-6.85-.8-.8-46.2-.98-48.9-.2-5.69 1.67-7 2.85-7 6.28 0 2.62.42 3.33 1.92 3.33 1.06 0 2.08.5 2.28 1.1.2.6 2.5 1.34 5.1 1.63 2.61.3 4.92.81 5.13 1.15.55.9 24.6 1.27 34.41.54zm-281.72-5.42c1.29-.83 1.26-.97-.2-.98-.92-.01-1.96.43-2.3.98-.78 1.27.54 1.27 2.5 0zm-9.24-.69a10.9 10.9 0 0 0-4-.01c-1.24.23-.46.44 1.74.45 2.2.01 3.22-.18 2.26-.43zm48.98-2.3c.96-.56 3-1.46 4.55-2 2.3-.82 2.76-1.51 2.5-3.76-.25-2.18-.9-2.81-3.17-3.07-1.57-.18-4.17.22-5.77.88-2.9 1.2-7.87 6.26-7.87 8.02 0 1.24 7.58 1.18 9.76-.08zm-32-3.65c3.64-2.27 2.78-4.15-2.25-4.9-2.47-.38-4.5-1.08-4.5-1.57 0-1.22-4.73-1.12-5.5.12-.33.55-3.27 1-6.51 1-4.96 0-6.08.33-7.02 2.08-.62 1.15-.93 2.28-.7 2.5.85.86 19.31 3.1 21.73 2.64 1.38-.25 3.52-1.1 4.75-1.87zm236.2-7.54c3.41.1 6.84.69 7.6 1.33 1.07.88 2 .84 3.89-.17 1.9-1.02 2.76-1.06 3.66-.15.79.78 5.56 1.18 14.32 1.18 11.73 0 13.33-.21 14.9-1.94 2.26-2.5 1.31-10.01-1.29-10.13-8.16-.38-52.39.11-53.15.58-1.6 1-1.12 7.68.7 9.68 1.22 1.36 1.87 1.53 2.41.65.47-.76 3.02-1.14 6.96-1.03zm-237.95-4.31c.69-.82 1.87-1.5 2.62-1.5.76 0 1.38-.41 1.38-.92 0-.5.25-1.57.56-2.37.86-2.24-3.7-2.91-11.03-1.64-6.38 1.11-9.29 2.88-8.05 4.89.36.57 1.94 1.04 3.53 1.04 1.58 0 3.16.45 3.5 1 .94 1.53 6.1 1.19 7.5-.5zm337.34-197.4c.34-.56.17-1-.38-1s-1.28.44-1.62 1c-.33.54-.16 1 .39 1s1.27-.46 1.61-1zm-42.23-5.67a3.86 3.86 0 0 0-2.5 0c-.68.28-.12.5 1.25.5 1.38 0 1.94-.22 1.25-.5zm159.01 450.89c-.98-2.57 1.26-3.77 7.39-3.95 7.78-.23 10.27.37 10.27 2.49 0 1.33-1.12 1.9-4.64 2.39-7.98 1.1-12.36.78-13.02-.93zm28.18.6c-1.3-2.1 2.5-5.03 6.52-5.03 3.85 0 9.1 3.16 7.66 4.61-1.36 1.37-13.37 1.73-14.18.43zm28.71-.07c-1.32-.53-2.25-1.76-2.25-2.99 0-1.86.5-2.05 4.74-1.78 3.7.24 4.82.71 5.1 2.18.6 3.21-3 4.44-7.59 2.6zm21.83-1.22c-1.04-2.74-.54-3.75 1.85-3.75 2.4 0 4.25 2.34 3.47 4.38-.92 2.39-4.34 1.99-5.32-.63zm21.09-.5c.22-1.97.95-2.84 2.56-3.07 2.67-.37 3.03 1.9.68 4.25-2.35 2.35-3.6 1.9-3.24-1.18zm54.79 1.81-4.5-.56-.3-6.33c-.39-8.14.59-9.39 6.69-8.58 3.78.5 4.93.27 6.35-1.3 2.93-3.24 2.92-1.48 2.26-207.97-.14-42.49-.42-77.4-.63-77.6-.2-.18-3.43.11-7.17.66-5.97.88-7.02.78-8.74-.77-4.6-4.16-.82-6.13 9.64-5.06l6.44.66-.12-48.51c-.07-28.33-.49-48.5-1.02-48.5-1.23 0-1.16-3.73.1-4.5 1.4-.87 1.24-7.13-.25-9.51-1-1.6-.97-2.42.14-4.2.98-1.56 1.05-2.3.24-2.58-.63-.2-1.14-2.46-1.15-5.04-.01-2.56-.35-5.17-.75-5.8-1.2-1.82-12.75-2.47-46.48-2.6-23.28-.1-32.07.19-32.94 1.05-1.76 1.77-7.85 1.44-10.03-.54-1.8-1.64-1.96-1.64-2.88 0-.8 1.45-2.5 1.73-10.35 1.73-5.18 0-9.66-.45-10-1-.78-1.26-8.19-1.32-8.96-.07-.63 1.02-12.35 7.07-13.7 7.07-.47 0-2.76.88-5.1 1.96-4.84 2.25-15.04 5.03-18.45 5.03-1.26 0-3.08.41-4.03.9-3.06 1.6-12.37 4.1-15.29 4.1-1.55 0-3.13.5-3.5 1.1-.39.62-1.92.85-3.52.53-1.56-.31-3.11-.13-3.44.4-.33.53-2.03.96-3.79.94-2.64-.02-3.49-.63-4.95-3.57-2.1-4.2-1.36-6.28 1.35-3.83 2.33 2.12 8.44 1.48 14.61-1.52 2.31-1.13 5.77-2.05 7.69-2.05 1.92 0 3.72-.38 4.01-.85.3-.48 3.8-1.65 7.81-2.61 4-.97 7.73-2.1 8.28-2.5.54-.42 5.04-1.74 9.99-2.94 12.86-3.13 13-3.23 13-9.16 0-2.75-.49-5.31-1.08-5.7-1.85-1.25-2.36-4.03-.95-5.2 1.65-1.37 4.28-1.61 7.18-.66 1.84.61 2.5.03 4.45-3.87 2.46-4.92 6.96-7.9 11.06-7.32 3.03.43 3.78 4.4 1 5.28-1.08.34-3.17 1.74-4.65 3.12-2.2 2.03-2.48 2.77-1.5 3.96a3.9 3.9 0 0 0 5.82.22c.97-.97 14.03-1.28 57.93-1.35 31.17-.06 58.86-.45 61.53-.88 5.29-.85 6.6-.02 6.62 4.23 0 1.23.46 2.24 1.01 2.24 1.23 0 1.35 10.67.13 11.42-.48.3-.86 42.73-.84 95.52.02 78.11.26 95.17 1.36 96.09 1.57 1.3 9.32.39 13.85-1.64 1.7-.75 10.56-1.84 20.4-2.5 9.57-.64 18.19-1.65 19.16-2.26 1.3-.81 2.13-.78 3.2.1.99.82 5.75 1.18 14.83 1.11 15.65-.1 36.35 1.43 38.13 2.82.68.54 4.16 1.24 7.74 1.55 6.37.57 14.49 2.2 18.48 3.73 3.29 1.25 12.3 2.74 24.49 4.04 6.32.68 11.92 1.61 12.44 2.08.52.46 6.15.87 12.5.9 13.7.07 32.32 2.11 34.3 3.76.78.64 5.2 1.41 9.82 1.7 4.62.3 11.7.98 15.72 1.51 9.26 1.23 11.45 1.22 10.67-.03-.34-.55-1.69-1-3-1-1.3 0-2.65-.45-3-1-.33-.55-3.23-1-6.43-1-3.93 0-6.21-.48-7.05-1.48-1.5-1.82-.67-4.34 1.72-5.19 2.3-.81 6.46-5.23 7.88-8.36.62-1.35 3.23-5.04 5.8-8.2l4.7-5.75h7.39c13.82 0 19.03 5.46 12.2 12.78-1.8 1.93-1.95 2.6-.92 4.25 1.02 1.64.85 2.53-1.04 5.44-1.24 1.92-2.62 3.5-3.07 3.5-.45 0-2.25 1.1-4 2.42-1.75 1.33-4.3 2.56-5.68 2.75-1.66.23-2.5.97-2.5 2.23 0 1.45 1.26 2.19 5.5 3.23 3.02.75 6.28 1.8 7.23 2.37a8.57 8.57 0 0 0 3.64 1c2.21 0 11.23 2.65 15.77 4.63 1.73.76 4.54 1.37 6.23 1.37 3.93 0 12.1 2.17 12.1 3.21 0 .44 2.17.8 4.8.8 2.64 0 5.23.42 5.75.94.57.57 6.14.7 13.79.35 10.22-.49 12.95-.92 13.42-2.14.33-.85.06-1.71-.59-1.93-.65-.22-1.19-1.14-1.2-2.06-.01-.91-.84-2.72-1.83-4.02l-1.81-2.35-3.25 4.1c-3.63 4.58-6.08 5.3-6.08 1.8 0-1.35 1.62-3.88 4-6.2 2.2-2.14 4-4.29 4-4.76 0-2.3 10.42-15.72 12.2-15.72.46 0 1.32 1.07 1.91 2.37 1.23 2.69-.26 6.62-2.5 6.62-1.37 0-3.62 4.07-3.62 6.55 0 1.6 1.64 2 2.17.5.43-1.24 9.56-3.65 10.45-2.75 1.04 1.03-2.65 4.7-6.62 6.56-3.44 1.63-3.5 1.76-3.54 7.9-.04 6 .05 6.23 2.5 6.3 24.33.73 28.55 1.1 30.27 2.65 1.38 1.25 2.07 1.36 2.98.46 1.43-1.44 4.48-1.55 4.94-.18.18.55 4.38 1.27 9.33 1.6 6.56.43 9.94 1.16 12.49 2.68 3.49 2.1 10.93 3.4 22.71 4 4.9.25 6.76.82 8.75 2.7 3.21 3 3.2 6.02-.02 9.05-2 1.88-2.9 2.16-4.25 1.32-.94-.59-4.86-1.85-8.7-2.81-3.85-.96-7.45-2.08-8-2.48-1.2-.89-10.05-2.77-17.24-3.67-2.89-.36-5.25-1.04-5.25-1.52s-1.77-.87-3.94-.87c-2.16 0-4.17-.39-4.46-.85-.29-.47-3.93-.89-8.08-.93-4.16-.05-9.68-.73-12.28-1.53-5.84-1.8-19.08-3.46-34.2-4.31-6.33-.35-12.02-1.05-12.65-1.55-.63-.5-5.67-1-11.2-1.12-6.44-.13-10.5-.66-11.3-1.46-.68-.69-2.52-1.25-4.07-1.25-1.56 0-3.95-.73-5.32-1.63-1.37-.89-4.5-1.7-6.94-1.81-2.46-.1-4.77-.5-5.15-.87-.38-.38-1.64-.69-2.82-.69-1.17 0-2.56-.4-3.08-.9-1.52-1.44-14.5-5.01-16.05-4.41-.78.3-2 .05-2.72-.54-.71-.6-5.77-1.56-11.23-2.14-5.46-.58-11.85-1.5-14.2-2.03-2.34-.53-7.98-.97-12.54-.97-4.55 0-8.7-.41-9.23-.91-.52-.5-8.6-1.45-17.94-2.11-26.37-1.87-26.86-1.92-28.98-2.9-1.1-.5-6.05-1.67-11-2.6-4.95-.92-9.9-2.05-11-2.5-3.4-1.4-18.29-3.97-23-3.97-2.47 0-4.48-.45-4.48-1s-.83-1-1.83-1c-1.01 0-2.06-.23-2.33-.5-1.48-1.48-43.27-2.12-69.3-1.07-18.01.73-25.5 1.56-28 3.12-1.1.69-3.96 1.57-6.36 1.96-3.08.5-4.52 1.26-4.87 2.6-.27 1.03-.89 1.88-1.37 1.88-1.33 0-1.07 7.42.31 8.8.94.93.94 1.47 0 2.4-1.53 1.54-1.73 44.78-.2 44.78 1.33 0 1.31 15.68-.02 16.5-1.44.9-1.2 57.13.25 59.46.64 1.01.75 2.52.27 3.62-1.2 2.75-1.58 25.2-.45 25.9 1.4.86 1.16 7.22-.3 7.75-.98.35-.99.89-.05 2.49 1.02 1.72 2.76 22.04 2.6 30.2-.05 2.52-1.22 22.77-1.54 26.5-.33 4.08-4.84 6.2-14.25 6.72a80.9 80.9 0 0 1-11.5-.17zm11.82-6.4c.25-1.33-.16-1.74-1.48-1.48-1 .19-1.98 1.17-2.18 2.18-.25 1.32.16 1.73 1.48 1.47 1-.19 1.99-1.17 2.18-2.18zm4.86-6.38c-.25-.98-.48-.42-.5 1.23-.02 1.65.19 2.44.46 1.77.28-.68.3-2.03.04-3zm1.3-133.2c0-.56-.67-1-1.5-1-.82 0-1.5.44-1.5 1 0 .54.68 1 1.5 1 .83 0 1.5-.46 1.5-1zm3-84.28c0-1.63-3.48-.14-3.82 1.63-.3 1.59-.1 1.65 1.74.5 1.15-.71 2.09-1.68 2.09-2.13zm269.09-5.57c3.08-1.18 5.58-5.72 4-7.3-.62-.62-4.85-1.35-9.38-1.62l-8.25-.47-3.77 4.38c-3.28 3.8-3.54 4.47-2.04 5.07 2.56 1 16.73.96 19.43-.06zm5.21-15.64c1.47-2.23 1.49-2.7.18-4-.92-.92-1.71-1.1-2.1-.47-.34.55-2.36 1-4.48 1-5.11 0-7.02.83-7.02 3.05 0 1.48.94 1.91 4.75 2.21 2.61.21 5.26.46 5.88.56.63.1 1.88-.96 2.8-2.35zm-351.5-190.63c-.24-.69-1.25-1.25-2.26-1.25-1 0-2.02.56-2.25 1.25-.26.8.57 1.25 2.25 1.25 1.7 0 2.52-.46 2.25-1.25zm-59.73-1.75c0-.55-.7-1-1.56-1-.85 0-1.28.45-.94 1 .34.55 1.04 1 1.56 1s.94-.45.94-1zm80.3 442.22c-.34-.87.08-2.27.92-3.1 2.88-2.89 13.23.45 11.26 3.63-.35.57-3.1 1.04-6.11 1.04-4.06 0-5.63-.4-6.08-1.57zm-126.28-8.73c0-2.99 2.6-5.49 4.13-3.96 1.8 1.8.6 5.74-1.88 6.09-1.8.25-2.25-.17-2.25-2.13zm-30.01-13.24c-1.19-2.21-1.15-2.92.26-5.25 2.13-3.5 4.18-3.43 4.6.18.78 6.85-2.23 10-4.86 5.07zm2.25-22.67c-.57-.7-1.35-3.34-1.72-5.87-.58-3.9-.41-4.71 1.13-5.3 2.47-.95 4.36 1.86 4.36 6.48 0 4.17-2.07 6.75-3.77 4.69zm242.64-17.8c-1.42-2.65-.78-4.44 4.43-12.37 2.38-3.63 4.9-8.62 5.59-11.09.69-2.46 1.58-4.48 1.97-4.48.75 0 4.02-9.32 4.02-11.44 0-1.32 3.23-4.34 6.73-6.3 1.22-.68 5.8-1.48 10.17-1.76 7.23-.47 8.18-.32 10.56 1.74 2.1 1.82 2.63 3.2 2.7 7 .04 2.61-.57 5.72-1.36 6.92-1.3 1.95-1.2 2.65.85 6.78 2.23 4.47 2.25 4.77.72 10.08-2.42 8.43-3.54 10.13-8.28 12.64-3.86 2.03-5.8 2.32-15.69 2.32-6.44 0-11.54.43-11.9 1-.33.55-2.6 1-5.02 1-3.4 0-4.65-.46-5.49-2.03zm32.95-5.78c4.66-2.83 7.08-6.64 7.74-12.15l.6-5.06-4.4.11c-2.4.06-6.63-.19-9.38-.56-9.35-1.25-13.5 1.46-17.43 11.39a23.84 23.84 0 0 1-2.24 4.26c-.9 1.25-.92 2.01-.08 3.03 1.79 2.15 21.29 1.36 25.2-1.02zm-1.06-23.23c5.18-1.11 7.4-3.24 8.68-8.34 1.05-4.17-1.1-5.88-6.38-5.1-6.8 1.03-12.02 4.18-13.75 8.33-.82 1.96-1.27 4.16-1 4.87.62 1.59 5.72 1.68 12.45.24zm25.93 27.17c-6.05-1.4-8.79-9.8-4.82-14.84 1.1-1.4 2-3.12 2-3.82 0-1.38 7.75-8.44 9.26-8.44.5 0 2.06-.9 3.46-2 2.53-2 7.55-2.57 12.02-1.37 1.45.39 3.05 2.34 4.49 5.48 1.23 2.69 2.62 4.88 3.1 4.88.46 0 2.04-1.25 3.5-2.8a20.25 20.25 0 0 1 6.15-4.15c1.92-.75 3.92-1.74 4.44-2.2 1.39-1.23 10.55-1.04 10.55.21 0 .6.97.38 2.22-.5 1.22-.85 2.8-1.55 3.5-1.55 1.47 0 1.7 4.2.38 6.76-.5.95-3 6.12-5.57 11.48l-4.67 9.75h-6.73c-3.97 0-7.22.5-7.95 1.22-.96.97-1.64.97-3.18 0a8.42 8.42 0 0 0-3.65-1.22c-.92 0-2.5-.75-3.51-1.66-1.62-1.47-2.33-1.5-6.08-.33-2.33.74-5.14 2.1-6.24 3.03-2.28 1.93-8.71 2.98-12.67 2.07zm13.82-8.94c.69-.92 2-3.25 2.92-5.17l3.05-6.33c2.77-5.7 1.36-6.66-6.98-4.72-3.91.9-9.64 5.43-9.64 7.62 0 .65-.67 1.75-1.5 2.43-1.72 1.43-2 7.08-.44 8.65 1.5 1.5 11.01-.38 12.59-2.48zm34.58-6.36c2.93-3.1 4.75-5.95 4.75-7.42 0-2.13-.45-2.38-4.13-2.38-7 0-14.86 6.52-14.86 12.31 0 3.04 1.4 3.75 6 3.05 2.52-.38 4.8-1.93 8.24-5.56zm45.05 14.57c-.9-2.32 1.3-10.1 3.74-13.18a43.1 43.1 0 0 0 3.94-6.62 90.51 90.51 0 0 1 2.86-5.57c.5-.83 2.19-4.2 3.76-7.5 4.35-9.14 8.2-14.5 10.42-14.5 2.63 0 2.6 4.1-.05 6.5-1.1 1-2 2.46-2 3.25 0 .8-.76 2.74-1.7 4.31-.93 1.58-1.45 3.13-1.14 3.43.3.3 2.92.04 5.8-.58 4.72-1 5.54-.92 7.9.84 4.27 3.18 4.08 4.21-3.42 18.49-.8 1.51-2.02 3.99-2.73 5.5-1.61 3.45-5.27 4.2-6.2 1.27-.46-1.45.28-3.59 2.4-6.9 1.7-2.63 3.09-5.31 3.09-5.95 0-.63.9-1.71 2-2.4s2-2.32 2-3.63c0-2.14-.33-2.32-3.16-1.75-7.31 1.46-19.83 13.28-19.83 18.72 0 1.98-2.7 5.65-5.07 6.92-1.55.83-2.1.7-2.61-.65zm-26.81-1.39c-2.14-2.36-1.93-2.89 6.3-15.99 1.2-1.92 2.2-4.54 2.2-5.8 0-2.18-.27-2.28-4.5-1.64-4 .6-4.5.46-4.5-1.24 0-2.99 2.04-4.31 6.63-4.31 4.1 0 7.37-1.87 7.37-4.22 0-1.75 7-9.77 8.54-9.77 1.95 0 2.78 4 1.5 7.35-1.7 4.46-1.3 5.49 2.2 5.83 2.87.27 3.25.65 3.25 3.3 0 2.9-.18 3.02-5 3.31-4.3.26-5.58.88-9.18 4.39-3.98 3.9-7.31 10.98-7.31 15.58 0 1.98-2.9 5.21-4.67 5.21-.56 0-1.83-.9-2.83-2zm118.88-1.07c-1.63-1.8-2.6-1.98-7.4-1.43-3.15.37-6.72.2-8.3-.4-5.45-2.08-5.62-9.48-.35-15.17a14.5 14.5 0 0 0 3.06-5.64c.75-3.4 3.9-6.8 5.42-5.86 1.24.77.14 4.45-3.29 11-2.62 5.02-3.42 10.58-1.51 10.58.58 0 3.06-.5 5.5-1.12 3.52-.89 5.3-2.18 8.45-6.13 2.19-2.75 3.98-5.38 3.98-5.84 0-1.59 5.72-9.85 6.37-9.2.86.86-.34 7.44-1.67 9.1-.57.71-1.15 3.41-1.3 6-.42 7.56-1.52 12.56-3.17 14.44-2.01 2.29-3.5 2.2-5.79-.33zm20.83-1.28c-2.86-1.54-8.27-7.42-8.27-8.97 0-1.98 4.1-2.87 5.96-1.3 2.54 2.14 9 4.78 10.82 4.44 3.4-.65 2.56-5.06-1.74-9.27-2.23-2.17-4.05-4.6-4.05-5.4 0-2.35 4.95-8.13 6.97-8.13 1.02 0 2.06-.56 2.3-1.25.32-.9 1.03-.72 2.56.63 2.48 2.2 2 3.62-1.23 3.62-2.95 0-5.67 3.02-5 5.53.3 1.08 1.97 2.64 3.72 3.46 3.64 1.72 6.13 6.13 5.27 9.32-1.3 4.85-4.13 7.02-9.96 7.66-3.07.34-6.38.19-7.35-.34zm35.02-1.88c-4.94-3.57-6.12-7.74-4.14-14.48 1.11-3.75 1.97-4.74 5.51-6.36 2.3-1.05 4.44-2.3 4.74-2.8.81-1.3 9.3-2.37 11.06-1.38.83.47 2.34 2.47 3.35 4.45 1.73 3.4 1.74 3.72.12 5.86-1.6 2.12-2.2 2.23-9.2 1.63-6.45-.54-7.71-.38-9.12 1.18-3.92 4.33-.15 8.14 8.05 8.14 4.43 0 5.79-.48 8.75-3.08 3.76-3.3 5.56-3.15 5.56.46 0 4.6-6.82 8.76-14.95 9.12-4.86.21-6.16-.15-9.73-2.74zm9.53-16.37c1.84-.37 3.35-1.42 3.72-2.58.84-2.66 0-3.24-4.35-2.98-3.47.2-7.21 2.95-7.21 5.29 0 1.03 3.43 1.15 7.84.27zm-551.57 14.93c.02-4.68 1.4-7.3 3.01-5.7 1.77 1.78.8 8.8-1.28 9.2-1.42.26-1.74-.4-1.73-3.5zm434.44 1.85c-2.06-2.27-2.21-8.74-.23-9.5.78-.3 1.57-1.79 1.75-3.3.22-1.93 2.16-4.3 6.48-7.97 5.33-4.52 6.93-5.32 11.84-5.94 4.83-.6 5.96-.42 7.56 1.18 4.06 4.05 2.08 15.01-4.02 22.3l-4.23 5.06h-8.75c-7.2 0-9.04-.33-10.4-1.83zm18.75-6.65c3.14-4.12 5.58-10.57 5.58-14.77 0-2.94-.09-3-4.12-2.45-6.27.84-13.87 8.96-13.87 14.82 0 3.31 2.85 5.88 6.53 5.88 2.5 0 3.82-.78 5.88-3.48zm71.68-14.85c-1.52-1.84-.34-4.85 1.74-4.45.96.19 1.63 1.3 1.63 2.72 0 2.83-1.72 3.71-3.37 1.73zm-523.64-3.37c-.68-.25-1.24-1.46-1.24-2.67 0-1.22-.5-2.7-1.09-3.3-1.43-1.44 1.01-5.47 3.08-5.08 1.04.2 1.6 1.79 1.81 5.16.32 5.03-.4 6.68-2.56 5.89zm-.1-29.52c-1.61-1.63-1.43-6.43.28-7.09 1.38-.53 4.57 3.15 4.57 5.26 0 1.76-3.56 3.1-4.84 1.83zm-318.26-6.35c-.91-.92.25-3.44 3.92-8.53 1.84-2.55 3.34-5.14 3.34-5.75 0-.62.4-1.12.88-1.12.49 0 1.1-.78 1.34-1.75.4-1.54-.53-1.78-8.13-2.07-5.33-.2-9.1-.82-9.93-1.63-.84-.82-1.35-3.61-1.35-7.43 0-5.63-.17-6.1-2.2-6.1-1.2 0-2.63.4-3.15.91s-2.29 1.07-3.92 1.25c-1.83.2-3.39 1.16-4.04 2.47-2.5 5.04-6.89 10.35-8.56 10.35-2.9 0-3.1-1.62-.6-4.66a21.38 21.38 0 0 0 2.98-4.58c.35-.96 1.1-1.75 1.67-1.75 2.08 0 .95-3.08-1.47-4-4.2-1.6-3.04-3.67 2.46-4.4 4.95-.65 5.58-1.04 9.78-5.96 1.23-1.45 2.7-2.63 3.25-2.63 1.37 0 1.27 4.33-.13 5.73a2.75 2.75 0 0 0-.53 2.7c.47 1.22 2.2 1.57 7.88 1.59 12.84.04 18.69 2.74 18.75 8.66.02 1.82-.68 2.28-4.23 2.73-8.45 1.1-9.17 1.3-4.81 1.44 2.89.09 5.16.82 6.52 2.1l2.1 1.96 4.35-7.39 4.36-7.39 7.1.56c11.53.91 13.4 4.33 6.5 11.82-4.07 4.4-4.24 4.47-10.5 4.47-5.04 0-6.8.42-8.37 2-1.1 1.1-2 2.38-2 2.85 0 .46-.94 1.69-2.08 2.73a16.45 16.45 0 0 0-3.36 4.94c-2.1 5-5.86 7.84-7.82 5.88zm27.25-24.77c3.27-.98 4.5-1.86 4.5-3.23 0-1.43-.61-1.82-2.5-1.6-5.17.6-9.95 3.98-7.7 5.41l1.2.77 4.5-1.35zm-22.99-5.62c2.39-.76 2.36-.8-.69-.9-1.75-.06-3.46.35-3.8.9-.72 1.15.9 1.15 4.5 0zm101.06 18.62c-.62-.76-1.23-3.43-1.34-5.95-.15-3.62.3-5.12 2.16-7.1 1.3-1.38 2.71-2.3 3.14-2.03.88.54 1.14 12.05.33 14.7-.64 2.1-2.71 2.28-4.29.38zm253.75-4.15c-3.96-3.31-4.5-3.48-9.34-2.86-2.82.36-5.65 1.06-6.3 1.57-.64.5-3.52.79-6.39.62-3.84-.23-5.52-.8-6.33-2.18-.83-1.42-.8-2 .15-2.34a2 2 0 0 0 1.25-1.72c0-.7 1.35-3.13 3-5.4 1.65-2.28 3-4.9 3-5.8 0-.92 1.12-3.14 2.5-4.95 1.37-1.8 2.5-3.86 2.5-4.59 0-.72 2.38-3.9 5.3-7.06 5.22-5.65 5.4-5.75 10.77-5.75 6.3 0 9.24 1.63 10.74 5.94.85 2.44.7 3.4-.9 5.42-2.3 2.91-2.5 7.5-.46 10.2 2.34 3.08 1.82 4.73-2.97 9.43-5.28 5.18-5.61 7.36-1.46 9.51 1.66.86 2.76 2 2.44 2.52-1.08 1.74-3.23 1-7.5-2.56zm-1.26-6.56c1.21-.45 3.24-2.4 4.5-4.35 1.25-1.95 2.85-3.54 3.53-3.55.69 0 1.25-1.15 1.25-2.53v-2.53l-11.46.35c-9.04.27-11.87.7-13.34 2.04-2.14 1.93-4.6 9.18-3.64 10.73.74 1.2 15.84 1.07 19.16-.16zm-6.16-16.85c.52-.52 3.38-1.08 6.34-1.25 3.59-.2 5.63-.8 6.1-1.8.38-.83 1.16-2.43 1.73-3.55 2.35-4.64-5.34-7.39-11.7-4.17-2.93 1.49-8.4 9.27-7.52 10.7.78 1.28 3.8 1.31 5.05.07zm-308.96 22.47c-2.01-4.83-1.84-7.62.52-8.23a4.26 4.26 0 0 0 2.62-2.66c1.24-4.1 4.52-6.64 8.58-6.64 2.1 0 3.83.4 3.83.88s1.35 1.14 3 1.47c2.37.48 3 1.12 3 3.1 0 1.84-.67 2.68-2.5 3.14-1.77.44-2.5 1.3-2.5 2.95 0 4.63-1.69 7.04-5.77 8.27-6.95 2.08-9.15 1.62-10.78-2.28zm348.41-1.01c-.83-1-3.02-1.53-6.42-1.53-5.5 0-9.6-2-9.6-4.69 0-2 7.44-11.15 11.91-14.64 2.86-2.23 4.42-2.66 9.64-2.66 6.95 0 7.91.88 6.47 5.91-1.33 4.65-7.03 15.79-8.99 17.55-1.56 1.42-1.88 1.42-3 .06zm-.64-8.69c4.42-3.28 5.62-4.74 5.62-6.87 0-3.89-2.49-5.73-4.85-3.6-1 .9-2.15 1.64-2.58 1.64-1.83 0-9.56 10.06-9.56 12.45 0 .3 1.29.55 2.87.55 1.8 0 4.96-1.55 8.5-4.17zm19.34 7.1c-6.37-5.26-4.1-9.47 2.55-4.73 3.3 2.34 7.59 2.6 8.9.54 1.63-2.57.77-4.73-2.43-6.09a17.04 17.04 0 0 1-5.14-3.5c-2.4-2.68-1.17-4.39 5.27-7.32 3.75-1.7 5.37-1.92 9.09-1.2 3.56.69 4.52 1.3 4.52 2.87 0 1.74-.77 2.04-5.75 2.3-4.93.26-5.74.58-5.74 2.25 0 1.3.68 1.95 2.04 1.95 2.8 0 5.14 5.48 3.7 8.65-1.31 2.88-7.99 7.34-11 7.34-1.25 0-3.96-1.38-6.01-3.07zm-91.57-.71c-1.57-2.94-.91-11.72.88-11.72 1.15 0 1.56 1.46 1.74 6.2.25 6.36-.88 8.75-2.62 5.52zm146.82 1.47c0-1.45 3.55-8.67 5.6-11.37 4.26-5.66 2.3-7.98-4.3-5.1-2.57 1.12-7.3 5.24-7.3 6.35 0 .26-1.13 2.26-2.51 4.45-1.56 2.46-3.27 3.97-4.5 3.97-2.95 0-2.53-3.87.87-8.01 1.57-1.92 3.15-4.42 3.52-5.57 1.46-4.64 4.63-6.23 13.11-6.58l8-.33-.05 4.6c-.04 3.2-.75 5.5-2.3 7.5a101.6 101.6 0 0 0-4.49 6.39c-1.22 1.92-3 3.64-3.94 3.82-.94.18-1.71.13-1.71-.12zm-527.53-2.3c-6.54-1.61-10.06-4.75-8.85-7.9 1.05-2.75 3.81-2.89 8.46-.42 5.7 3.02 14.79 3.4 16.53.68 1.6-2.52-.1-4.69-5.33-6.73-6.76-2.64-7.77-8.62-2.16-12.76 4.15-3.07 13.26-4.84 16.98-3.3 4.16 1.72 6.8 4.77 5.37 6.2-.81.82-2.2.68-5.2-.52-4.67-1.87-9.3-2.1-12.1-.6-3.28 1.76-2.24 4.3 2.96 7.21 4.25 2.39 4.95 3.23 5.36 6.5 1.36 10.7-7.25 15.25-22.02 11.63zm497.98-1.02c.37-1.45 1.76-4.25 3.1-6.23 1.36-1.98 2.46-4.04 2.46-4.57 0-.53 1.18-2.67 2.63-4.76 1.8-2.6 3.4-3.8 5-3.8 2.96 0 2.95.6-.12 6.36-6.16 11.59-14.9 20.27-13.07 13zm-160.35-17.62c0-.68 1.36-3.9 3-7.14 2.28-4.5 2.72-6.2 1.86-7.24-2.92-3.53-9.62 1.38-12.11 8.88-1.02 3.04-2.04 4.35-3.6 4.57-3.34.5-3.73-2.38-.82-6.19 1.4-1.84 2.85-4.53 3.21-5.98.37-1.45 1.07-2.64 1.56-2.64s.89-.8.89-1.8c0-.99.49-2.29 1.09-2.89 1.4-1.4 8.89-.49 10.99 1.33 1.36 1.18 1.82 1.12 3.25-.46.91-1 1.66-2.58 1.66-3.5 0-2.4 6.88-9.67 9.16-9.67 1.06 0 3.05 1.2 4.42 2.69 2.16 2.33 2.28 2.8.92 3.56-.86.49-2.57.75-3.79.6-1.22-.16-2.78.06-3.46.49-1.5.92-1.67 5.28-.25 6.15 1.88 1.17 1.03 3.5-1.28 3.5-3.63 0-6.4 2.62-8.12 7.68-1.7 4.99-5.08 9.31-7.27 9.31-.73 0-1.32-.56-1.31-1.25zm-74.56-2c.36-1.23.93-3.82 1.26-5.74.33-1.93 1-4 1.48-4.63 1.15-1.47 3.84-11.8 3.84-14.76 0-2.74 3.05-5.8 4.74-4.76.9.56.94 1.7.16 4.55-.58 2.08-.78 4.06-.46 4.39.33.32 2.55-1.33 4.94-3.67 4.79-4.7 5.54-4.34 5.69 2.72.04 2.01.32 3.05.62 2.29.3-.76 1.28-2.15 2.17-3.1.9-.94 2.4-3.13 3.33-4.87 1.75-3.23 4.8-4.3 4.8-1.69 0 1.43-3 8.53-4.01 9.53-.28.28-1.4 2.22-2.5 4.32s-2.78 4.52-3.74 5.4c-.99.9-1.75 3.02-1.75 4.86 0 3.65-2.38 6.68-4.87 6.2-2-.37-2.71-5.82-1.14-8.75.88-1.65.78-2.18-.5-2.67-2.12-.82-7.48 4.33-7.48 7.17 0 2.54-2.91 5.46-5.45 5.46-1.38 0-1.63-.5-1.13-2.25zm43.26.78a9.5 9.5 0 0 0-5.75-.87c-3.75.76-3.99-1.59-.6-6.06a19.61 19.61 0 0 0 3.02-6.09c.66-2.87.49-2.78-4.09 2.04-2.62 2.77-5.54 6.48-6.48 8.25-1.82 3.43-4.8 4.34-4.79 1.46 0-.97 1.35-3.78 3-6.25 1.64-2.48 3.27-6.07 3.6-8 .34-1.92 1.13-3.95 1.76-4.5.63-.55 2.43-3.58 4-6.74 3.8-7.61 6.11-7.78 5.19-.38-.6 4.78-.46 5.42 1.28 5.87 1.16.3 2.21 1.73 2.6 3.52.53 2.38 1.09 2.9 2.64 2.5a6.88 6.88 0 0 0 3.29-2.39c1.58-2.26 9.97-3.73 11.08-1.95.98 1.6-1.3 10.7-3.05 12.14a4.96 4.96 0 0 0-1.4 3.4c0 1.22-.83 2.96-1.84 3.87-2.29 2.07-9.64 2.18-13.46.18zm9.64-5.63c2.58-1.18 4.65-4.7 4.65-7.94 0-2.83-1.15-2.42-5.1 1.8-6 6.42-6.46 7.25-4.06 7.25 1.14 0 3.17-.5 4.5-1.11zm64.32 1.4c-.27-.43-.65-3.48-.84-6.76-.3-5.05-.09-6.02 1.4-6.32 2.39-.48 3.62 3.25 2.86 8.7-.57 4.1-2.27 6.28-3.42 4.39zm.46-30.53c-1.45-1.44-1.52-9.4-.1-10.28 1.89-1.16 4.94 2.65 4.94 6.15 0 3.74-2.82 6.15-4.84 4.13zm-341-12.53c0-.98 2.24-4 4.98-6.69 2.73-2.69 5.66-6.35 6.5-8.12 2.23-4.7 10.38-14.39 12.1-14.39 2.73 0 2.76 3.03.04 5.86-5.32 5.56-2.4 8.65 4.87 5.14 4.67-2.26 7.5-2.13 7.5.34 0 1.94-1.9 3.3-5.78 4.12-4.04.87-7.04 4.83-5.27 6.97 1.77 2.12.93 7.97-1.2 8.37-1.2.23-1.74-.3-1.74-1.68 0-1.1-.45-2.3-1-2.63-.55-.34-1-1.62-1-2.84 0-2.27-2.54-6.66-3.84-6.66-.4 0-3.3 3.15-6.45 7-5.7 6.97-9.7 9.12-9.7 5.2zm858.33 1.19c-1.12-1.13.69-3.9 5.97-9.14 2.91-2.9 5.3-5.7 5.3-6.26 0-1.08 14.74-1.41 17.4-.39 2.46.94 1.93 4.87-.86 6.36-1.34.72-3.84 3.05-5.54 5.17-3.12 3.88-6 5.06-6 2.45 0-.78 1.37-2.57 3.06-4 3.85-3.24 3.06-4.59-2.7-4.59-4.1 0-5.03.5-10.27 5.5-3.17 3.02-6.03 5.22-6.36 4.9zm-13.22-4.4c-.34-.55-2.42-1-4.63-1-4.58 0-10.87-4.07-10.87-7.03 0-.99 1.8-3.23 4.01-4.97 5.05-4 15.41-6.17 19.36-4.06a7.9 7.9 0 0 0 5.04.67c3.51-.88 3.5 2.17 0 5.47a73.53 73.53 0 0 0-6.2 7.17c-3.55 4.66-5.48 5.74-6.7 3.75zm3.86-7.07c2.89-2.27 3.5-4.93 1.13-4.93-.82 0-1.5-.45-1.5-1s-1.12-1-2.5-1c-1.37 0-2.5.45-2.5 1s-1.12 1-2.5 1c-2.44 0-6.49 3.08-6.49 4.94 0 .88 3.14 1.54 9.11 1.9 1.44.09 3.8-.77 5.25-1.91zm-742.01 4.74c0-1.88 4.65-6.04 5.4-4.83 1.12 1.82-1.26 6.16-3.38 6.16-1.11 0-2.02-.6-2.02-1.33zm234.04-4.91c-1.76-1.76-1.45-12.89.43-15.58 1.2-1.7 1.92-2 2.9-1.19 1.52 1.27 2.94 11.1 2.02 14-.87 2.72-3.85 4.26-5.35 2.77zm-21.15-4.32c0-2.26 2.44-4.43 4.98-4.43 3.42 0 4.68 1.5 2.98 3.54-1.13 1.36-7.96 2.12-7.96.89zm-504.76-5.81c0-.76.66-1.92 1.46-2.59a8.33 8.33 0 0 0 2.14-3.37c1.48-4.76 6.3-9.46 10.4-10.16 2.2-.37 4.24-1.08 4.55-1.58.9-1.47 6.3-1.05 8.98.7 4.22 2.77 3.13 4.38-2.98 4.38-3 0-5.68.4-5.99.89-.3.49-2.05 1.17-3.9 1.51-2.13.4-3.73 1.46-4.39 2.9-2.82 6.19-10.27 11.5-10.27 7.32zm-66.97-3.42c0-1 .41-2.23.91-2.75 1.06-1.11 4.65-7.36 7.28-12.7 1.93-3.9 4.43-4.89 5.48-2.16.78 2.04-3.06 9.75-7.56 15.16-3.73 4.49-6.1 5.44-6.1 2.45zm-13.62.03c-.63-.4-1.69-3.43-2.36-6.73-1.3-6.33-2.44-8.5-4.52-8.5-1.3 0-8.68 7.1-11.65 11.2-1.57 2.16-1.77 2.2-3.4.61-1.64-1.6-1.36-2.09 5.01-8.97 3.7-4 7.55-8.86 8.54-10.8 3.07-6.02 5.22-7.28 13.25-7.78 4-.25 8.83-.05 10.75.46 2.94.76 3.55 1.4 3.8 4 .33 3.21-2.75 7.29-5.48 7.29-.73 0-1.31.42-1.31.93 0 .5-2.53 1.49-5.61 2.18l-5.6 1.25.68 4.57c1.48 9.76.96 12.28-2.1 10.3zm5.88-21.27c4.3-1.2 4.76-2.53 1.39-4.07-3.6-1.64-10.31 2.11-7.97 4.45.9.91 2.19.84 6.58-.38zm25.31 20.38c-.38-1 .47-3.28 2.14-5.75a55.61 55.61 0 0 0 3.98-6.84c1.76-4 5.3-3.78 5.3.34 0 2.1.4 2.9 1.25 2.5.69-.32 2.04-.86 3-1.2.96-.34 1.75-1.01 1.75-1.49s1.46-1.54 3.25-2.36a37.04 37.04 0 0 0 4.97-2.74c2.6-1.88 4.26.23 3.06 3.87-.63 1.9-1.74 2.94-3.36 3.17-1.34.18-2.85.74-3.37 1.25-.53.5-1.72.91-2.65.91a2.6 2.6 0 0 0-2.26 1.5c-.32.83-1.46 1.5-2.53 1.5-1.08 0-3.23 1.06-4.78 2.35-5.65 4.7-8.73 5.65-9.75 3zm940.28-3.74c-.58-1.03-3.58-1.5-11.08-1.75-7.76-.26-10.5-.71-11.2-1.84-2.92-4.73 6.54-17 13.12-17 1.08 0 3.03 1.24 4.33 2.75 2.09 2.41 2.2 2.94.94 4.34-.79.88-3.9 2.19-6.92 2.9-4.3 1.04-5.48 1.74-5.48 3.26 0 1.71.59 1.88 5.25 1.52 2.88-.22 6.06-.77 7.05-1.22 1.38-.62 1.94-.31 2.37 1.31.93 3.56 3.1 2.43 7.92-4.11l4.6-6.25 6.15-.1c3.85-.05 7.16.49 8.86 1.46 2.53 1.43 2.61 1.66 1.12 3.3-1.31 1.47-2.61 1.67-7.34 1.18-6.29-.66-5.72-.98-13.17 7.47-3.91 4.45-5.24 5.02-6.52 2.78zm-363.9-3.85c-.57-.68-1.18-3.89-1.38-7.12-.37-6.25 1.1-8.62 4.52-7.31 1.27.49 1.63 2.02 1.63 6.95 0 7.46-2.1 10.75-4.77 7.48zm318.96-.8c-.74-.75-.31-2.6 1.45-6.25 1.38-2.86 3.02-6.31 3.65-7.68 1.6-3.53 4.32-3.76 5.57-.48.7 1.84 1.5 2.48 2.58 2.07.87-.33 2.17-.6 2.91-.6.74 0 2.75-1.19 4.48-2.64 3.48-2.93 5.41-2.23 4.85 1.76-.26 1.83-1.13 2.48-3.92 2.93a18.88 18.88 0 0 0-6.66 2.76c-1.68 1.2-3.55 2.19-4.15 2.19-.6 0-2.84 1.57-4.97 3.5-4.33 3.9-4.32 3.9-5.79 2.43zm-18.79-.88c-.31-.51.34-2.42 1.45-4.25 1.11-1.82 2.81-4.93 3.78-6.9 2.32-4.71 4.93-7.24 6.75-6.54 1.89.73 1.88 2.05-.02 3.63-.83.68-1.5 1.62-1.5 2.08 0 .78-2.89 5.5-6.51 10.66-1.68 2.4-3 2.84-3.95 1.32zm-34.59-3.19c-.86-1.62-.83-2.69.14-4.5.7-1.3 1.62-2.37 2.05-2.37.43 0 1.48-1.46 2.34-3.25 2.3-4.8 12.82-15.55 16.9-17.26 6.08-2.53 10.1-1.94 14.62 2.13 2.2 2 4 4.22 4 4.96 0 1.2-4.48 6.42-5.5 6.42-.23 0-2.46 1.24-4.95 2.74-4.22 2.55-4.54 3.04-4.54 6.88 0 4.18-1.98 7.13-3.96 5.9-.57-.35-1.04-2.16-1.04-4.02 0-1.85-.44-4.53-.98-5.94-.8-2.13-1.61-2.56-4.76-2.56-4.04 0-3.99-.05-8.05 8.29-2.49 5.1-4.48 5.92-6.27 2.58zm31.92-16.73c2.46-2.47 2.8-5.67.67-6.48-1.93-.74-11.13 2.02-13.5 4.05-1.82 1.56-1.81 1.65.3 3.48 2.87 2.48 9.56 1.92 12.53-1.05zm-494.63 4c0-3.86-.47-7.3-1.05-7.67-.67-.41-.7-1.06-.1-1.8.53-.64 1.11-2.29 1.3-3.66.2-1.38.8-2.5 1.35-2.5 1.55 0 1.31 21.72-.25 22.24-.92.3-1.25-1.43-1.25-6.6zm35.6-11.13c-2.39-2.2-4.84-4-5.46-4-.6 0-1.85-1.13-2.75-2.5-.9-1.38-2.21-2.5-2.91-2.5-.7 0-2.68-1.3-4.39-2.9-2.97-2.78-3.1-3.23-3.1-11 0-6.82.32-8.41 2.05-10.14 2.03-2.03 5.12-1.96 7.4.16.52.5 1.21.9 1.54.9.89 0 .5-21.04-.44-24.32-1.35-4.7.63-5.06 5.76-1.06 2.57 2 4.68 4.04 4.68 4.51 0 .48.59.87 1.3.87.72 0 2.78 1.52 4.58 3.38 2.67 2.75 3.09 3.73 2.25 5.25-.57 1.03-1.32 4.47-1.66 7.64-.44 4.03-1.27 6.38-2.74 7.75-2.49 2.32-3.57 2.4-6.13.47-1.04-.79-2.28-1.2-2.75-.91-1.24.77-1.04 15.04.3 19.47.78 2.64 1.98 4.15 3.92 4.96 3.7 1.53 6.3 4.53 5.58 6.43-.91 2.37-2.33 1.87-7.03-2.46zm-6.8-18.43c.46-7.26-.32-9.3-3.85-10.07-1.86-.4-3.61-.2-4.5.54-1.64 1.36-2.02 7.97-.46 7.97.55 0 1 .75 1 1.67 0 2.51 3.12 5.45 5.44 5.12 1.7-.25 2.1-1.14 2.37-5.23zm9.96-16.11c3.37-2.36 2.95-7.09-.98-11.14-1.75-1.82-3.78-3.3-4.5-3.3-1.93 0-1.73 10.93.26 13.77 1.85 2.64 2.31 2.7 5.22.67zm157.79 33.34a30.16 30.16 0 0 1-.63-6.12c-.01-3.57.16-3.8 2.73-3.5 2.57.3 2.77.67 3.05 5.57.17 2.93-.12 5.25-.66 5.25s-1.63.25-2.42.55c-.94.36-1.67-.26-2.07-1.75zM644.7 924.92c-.38-.38-.7-2.41-.7-4.52 0-2.31-.47-3.83-1.2-3.83-.93 0-.93-.27 0-1.2.76-.75 1.2-4.48 1.2-9.94 0-8.31.94-11.38 2.64-8.63.94 1.52.47 25.74-.53 27.54-.4.7-1.03.97-1.4.58zm200.6-3.8c-1.18-3.05.06-5.05 3.12-5.05 2.39 0 3.06.48 3.33 2.38.51 3.64-5.18 6-6.45 2.67zm19.61.16c-3.62-1.84-3.65-4.2-.07-5.68 4.35-1.8 9.97-.05 10.04 3.14.04 1.47-3.24 3.82-5.3 3.81-1.2 0-3.3-.58-4.67-1.27zm20.5-.7c-2.46-2.71-.42-5.23 3.9-4.81 4.22.4 4.95 4.32 1.09 5.8-3.31 1.25-2.89 1.33-4.99-.99zm21.62 1.08c-1.98-1.22-.1-5.1 2.47-5.1 1.84 0 2.38.55 2.38 2.39 0 2.45-2.77 4-4.85 2.7zm14.99-1.23c-1.47-3.96-.4-4.86 5.8-4.86 4.5 0 6.14.44 7.57 2.02 2.62 2.9.78 4.25-6.49 4.78-5.59.4-6.06.27-6.88-1.94zm25.68 1.46a3.89 3.89 0 0 1-2.31-2.12c-.84-2.18 2.89-5.28 5.8-4.84 1.7.26 2.24 1.12 2.48 3.98.28 3.27.07 3.64-2 3.54a23.69 23.69 0 0 1-3.97-.56zm20.24-1.57c-1.19-3.13.45-4.75 4.78-4.74 5.94.02 8.13.97 8.13 3.5 0 2.72-1.68 3.48-7.61 3.48-3.7 0-4.6-.38-5.3-2.24zm30.3.86c-1.41-3.7 1.66-6.32 6.1-5.2 3.04.76 3.68 5.58.75 5.6-.97 0-2.76.28-3.99.61-1.53.41-2.43.1-2.85-1.01zm-128.34-35.6c-.82-.53-3.34-.97-5.6-.98-4.81-.02-7.4-2.3-7.4-6.54 0-2.98 4.3-8.47 6.64-8.47.7 0 1.62-.56 2.06-1.25 1.51-2.36 7.11-4.75 11.12-4.75 7.88 0 8.66 1.5 4.65 9-2.72 5.1-4.89 9.67-5.8 12.24-.67 1.92-3.32 2.27-5.67.75zm3.46-11.1c3.87-3.4 4.71-6.89 1.66-6.89-1.03 0-2.44.68-3.12 1.5-.68.82-1.76 1.5-2.4 1.5-.63 0-2.32 1.33-3.74 2.95-2.18 2.48-2.33 3.02-.97 3.38 3.63.97 5.2.52 8.57-2.44zm36.9 10.64c-.3-.8.9-3.5 2.7-5.99 3.16-4.4 3.2-4.58 1.43-6.53-1.41-1.56-3.08-2.01-7.46-2.01-5.04 0-5.98.34-8.84 3.25a73.11 73.11 0 0 0-6.2 7.5c-1.66 2.33-3.47 4.24-4.04 4.24-2.38 0-2-3.4.92-8.1 1.72-2.76 3.12-5.56 3.12-6.22 0-.65 1.19-2.47 2.64-4.03 2.52-2.72 2.92-2.82 9.24-2.26 3.64.32 8.55.87 10.93 1.22 3.63.52 4.7.26 6.74-1.66 1.34-1.26 2.44-2.88 2.44-3.61s.42-1.33.94-1.33 1.54-1.23 2.26-2.74c1.11-2.32 1.94-2.75 5.3-2.75 3.7 0 4.01.21 4.29 3.03.26 2.66-.1 3.14-3 4-3.6 1.06-5.4 4.77-2.14 4.42 4.3-.45 5.34.05 5.34 2.54 0 1.67-.58 2.53-1.75 2.6-.96.06-2.42.21-3.25.33-.82.13-2.88.3-4.58.4-2.55.14-3.65 1.07-6.4 5.42-5.83 9.2-9.26 11.86-10.63 8.28zm-105.8-7.28.62-7.75-3.32 3.63c-1.83 2-4.72 5.37-6.43 7.49-2.74 3.4-3.3 3.7-4.77 2.48-2-1.67-1.35-6.97 1.42-11.6a25.14 25.14 0 0 0 2.52-6.94c.88-4.74 4.14-10.55 5.91-10.55 2.16 0 3.65 2.47 2.3 3.82-.9.9-.84 1.21.27 1.33 4.74.5 6.69 1.66 7.38 4.41.63 2.52 1.35 2.91 3.09 1.67 1.09-.78 4.26-5.4 6-8.73 1.3-2.52 4.82-2.63 5.3-.17.2 1-1.48 4.43-3.72 7.62-2.23 3.19-4.54 7.05-5.12 8.59a54.29 54.29 0 0 1-4.2 7.62c-2.28 3.53-3.75 4.82-5.49 4.82-2.35 0-2.36-.08-1.75-7.74zm39.05 4.85c-.95-1.05-1.35-2.06-.9-2.25 1.56-.69 4.3-7.05 4.3-10.02 0-1.65-.34-2.84-.75-2.65-4.82 2.25-8.59 5.68-10.26 9.36-3.24 7.1-9.62 7.3-6.65.21.8-1.93 1.98-3.83 2.62-4.22.64-.4 2.26-3.04 3.61-5.87 1.36-2.84 3.12-6.28 3.91-7.66.8-1.37 2.04-3.84 2.75-5.5 1.57-3.63 5.77-4.81 5.77-1.62 0 1.1-.4 2.26-.9 2.57-.5.3-1.37 1.9-1.94 3.54l-1.05 3 4.1-.17c3.13-.12 4.51.36 5.87 2.03 1.72 2.13 1.67 2.41-2.04 9.92-2.1 4.25-4.08 8.51-4.4 9.47-.74 2.26-1.9 2.22-4.04-.14zm-162.72-6.83c-2.36-1.46-3.01-1.5-5.3-.27-2.27 1.21-2.76 1.2-3.6-.05-.53-.8-.76-2.85-.52-4.56.4-2.77.02-3.36-3.44-5.3-7.91-4.45-8.8-7.75-1.76-6.56 3.5.6 4.03.42 4.52-1.47.85-3.24 2.76-1.87 3.11 2.22.19 2.18 1.18 4.4 2.5 5.57l6.93 6.17c2.6 2.31 4.49 4.6 4.19 5.1-.85 1.35-3.65 1-6.63-.85zm-36.3-1.52c-.25-.69-.35-5.07-.22-9.74.2-7.17.5-8.53 1.99-8.81 1.57-.3 1.75.68 1.75 9.73 0 8.37-.26 10.07-1.54 10.07-.84 0-1.73-.57-1.98-1.25zm35.94-19.87a22.55 22.55 0 0 0-6.19-4.5c-1.78-.77-3.25-1.86-3.25-2.42 0-.56-1.6-1.96-3.55-3.11-4.67-2.76-4.51-6.18.3-6.65 2.94-.28 3.25-.63 3.25-3.55 0-6.95 5.1-7.58 10.66-1.32 2.11 2.38 4.62 4.61 5.59 4.97 1.75.65 2.5 3.71.9 3.71-1.8 0-6.98-3.12-7.52-4.52a2.44 2.44 0 0 0-2.1-1.47c-1.14 0-1.53 1.11-1.53 4.44 0 4 .55 5.03 5.47 10.35 3.02 3.25 5.19 6.2 4.84 6.55-1.44 1.44-4.1.48-6.87-2.48zm-35.74-20.5c-.37-.39-.68-1.94-.68-3.47 0-1.52-.45-3.05-1-3.39-2.7-1.66-.06-13.47 3-13.49 2.08 0 4.52 5.65 3.15 7.3-.57.7-1.18 3.9-1.35 7.14-.28 5.44-1.42 7.6-3.12 5.9zm-415.92-5.11c-.41-.41-3.97-.75-7.9-.75-6.96 0-7.16-.07-7.16-2.49 0-2.22.53-2.56 4.95-3.2 5.07-.72 12.7-4.08 14.68-6.47 1.75-2.11 4.53-1.56 6.82 1.34l2.1 2.68 8.72-1.25c18.08-2.58 22.47-2.9 25.34-1.9 3.32 1.15 3.63 2.79.98 5.18-1.54 1.4-5.21 1.86-20.47 2.58-16.4.77-18.95 1.12-21.52 2.95-3.04 2.16-5.23 2.6-6.54 1.33zm-214.36-4.12c-1.14-.76-1-1.48.87-4.1 3.8-5.33 12.03-6.88 15.6-2.93 1.87 2.07 1.86 2.12-.9 4.5-1.54 1.32-4.06 2.4-5.61 2.4-1.55 0-4.11.24-5.7.53-1.57.29-3.5.1-4.26-.4zm40.51-6.56c-2.6-3.98-.15-4.99 12.22-5.03l10.63-.04.32 2.7c.35 3.06-.37 3.28-13.96 4.23-7.24.5-7.73.4-9.2-1.86zm790.2 1.23c-1.7-1.7-1.5-4.8.32-4.8.85 0 1.92 1.02 2.39 2.25 1.31 3.5-.28 4.99-2.72 2.55zm-508.25-4.08c-1.2-3.14 2.48-4.71 11.05-4.71 4.46 0 8.35-.4 8.64-.87.46-.74 7.83-1.7 19.07-2.49 3.7-.26 5.94-1.57 6.84-4 .6-1.65 1.42-1.8 6.67-1.26l12.23 1.24c6.69.66 8.75 1.66 8.74 4.25 0 1.8-4.22 4.13-7.48 4.13-1.15 0-3.87.92-6.04 2.04a22.8 22.8 0 0 1-7.46 2.25c-3.14.18-3.53-.08-3.82-2.54-.25-2.16-.84-2.75-2.75-2.75-1.33 0-2.43.47-2.43 1.06 0 .58-.43.79-.96.46-.52-.32-1.76-.16-2.75.37-1.56.84-8.74 1.67-32.87 3.81-4.89.44-6.2.24-6.68-.99zm-230.6-5.04c0-2.95 4.23-5.54 6.28-3.84.81.67 1.72.76 2.28.21 1.57-1.54 13.98-1.65 15.8-.14 2.23 1.85 2.06 2.34-1.47 4.35-2.35 1.34-5.38 1.75-12.98 1.75-9.72 0-9.92-.05-9.92-2.33zm50.17-1.92c-2.2-2.65.72-3.45 15.04-4.14 10.87-.52 13.74-.4 13.74.62 0 2.86-4.49 4.14-16.02 4.57-9.34.35-11.76.15-12.76-1.05zm46.78-4c0-1.94 2.09-2.75 7.07-2.75 2.16 0 3.92-.39 3.92-.86 0-.48 3.04-1.15 6.75-1.49 3.7-.34 9.05-.9 11.86-1.25 5.58-.68 7.15.3 5.47 3.42-.85 1.6-2.7 1.96-12.79 2.52-6.48.36-14.15.94-17.04 1.3-4.32.53-5.24.37-5.24-.9zm-68.64-5.31c-.36-.96.56-2.8 2.39-4.75 1.64-1.75 3.26-3.97 3.6-4.93.34-.96 1.08-1.75 1.64-1.75.57 0 1.03-.68 1.03-1.51s.9-2.28 2-3.22c3.15-2.7 2.43-4.12-2.25-4.46-3.48-.25-4.3-.7-4.55-2.48-.35-2.4-.58-2.36 20.64-4.02 11.43-.9 12.9-.58 11.3 2.42-.9 1.68-1.82 1.92-5.97 1.52-6.61-.64-8.85 1-15.76 11.6-3.11 4.75-6.58 9.66-7.7 10.9-2.38 2.6-5.5 2.94-6.37.68zm125.67 0c-3.23-1.4-3.33-1.6-1.73-3.2 1.38-1.38 3.83-1.72 13.18-1.83 11.15-.14 11.48-.08 11.48 2.02 0 1.55-.95 2.51-3.32 3.37-4.55 1.65-15.44 1.44-19.6-.37zm-83.82-1.64c-1.88-1.87-1.42-4.81 1.3-8.38 3.72-4.88 3.32-5.76-2.25-4.93-6.53.98-9.52 2.98-12.88 8.64-2.94 4.96-4.14 5.7-6.07 3.77-1.39-1.4 1.54-6.82 6.57-12.14 3.21-3.4 4.02-3.75 8.77-3.75 2.88 0 5.52-.45 5.86-1 .92-1.5 4.08-1.2 5.5.5 1.56 1.9 5.6 1.96 6.31.1.8-2.07 10.68-2.65 12.93-.76.96.8 1.74 2.15 1.74 2.97 0 1.24.34 1.2 1.96-.27 2.53-2.3 11.69-6.54 14.1-6.54 2.63 0 4.08 3.08 2.48 5.27-.87 1.19-2.64 1.73-5.66 1.73-3.4 0-4.7.48-5.72 2.12-1.87 3-.08 4.62 3.36 3.05 7.03-3.2 10.18.38 3.5 3.96-4.65 2.49-8.86 2.37-11.74-.34l-2.35-2.21-.56 2.14c-.79 3-5.23 4.27-14.9 4.27-6.4 0-8.37.34-8.82 1.5-.69 1.81-1.82 1.91-3.43.3zm16.3-8.04c5.65-3.67 3.98-6.63-3.01-5.32-2.48.47-3.93 1.5-5 3.56-.82 1.6-1.5 3.15-1.5 3.46 0 1.44 6.42.3 9.5-1.7zm113.19 6.35c-.97-.97-1.75-2.02-1.75-2.33 0-1.1 3.63-2 11.39-2.83 4.34-.46 8.37-1.31 8.95-1.89 1.7-1.7 3.3-1.22 5.1 1.51 2.32 3.56.59 5.43-5.02 5.43-2.37 0-4.59.45-4.93 1-1.1 1.78-11.8 1.09-13.74-.89zm43.88-3.93c-1.02-1.13-1.59-2.47-1.27-2.98.31-.51 3.39-1.25 6.83-1.64 3.44-.39 6.84-1.19 7.55-1.77 1.39-1.15 6.23.41 6.23 2.01 0 1.53-8.41 5.35-12.98 5.89-3.7.44-4.85.16-6.36-1.51zm-123.6-1.65c0-.89 1.14-2.83 2.52-4.31 1.39-1.5 3.95-6.18 5.68-10.42 3.2-7.82 5-9.7 7.37-7.72.97.8 1.06 1.78.34 3.65-.53 1.41-.84 2.7-.67 2.86.16.16 2.65.44 5.52.61 2.88.17 5.23.77 5.23 1.34 0 .56-1.61 1.89-3.58 2.95-3.12 1.68-3.53 2.32-3.16 4.97.23 1.68.61 3.65.83 4.4.23.73-.35 1.84-1.3 2.46-1.4.93-2.26.47-5.03-2.74-2.94-3.4-3.6-3.72-5.47-2.72a5.23 5.23 0 0 0-2.46 3.4c-.4 2.77-5.82 3.96-5.82 1.27zm29.2-.77c-1.05-1.29-1.54-3.3-1.33-5.5.07-.69 1.26-1.25 2.64-1.25 2.47 0 2.5-.05.86-2.54-1.58-2.42-1.55-2.64.64-4.98 2.48-2.64 8.54-4.31 10.06-2.79.59.59.51 2.17-.2 4.2-.87 2.5-.85 3.81.1 5.57 1.87 3.5.44 6.33-3.8 7.5-4.91 1.37-7.72 1.3-8.96-.21zm-244.47-.6c-.21-.36-.16-2.15.12-3.98.58-3.8 1.2-4.14 12.75-6.72 4.4-.99 8.45-2.12 9-2.53.55-.4 3.02-.89 5.5-1.07 4.02-.3 4.52-.11 4.81 1.9.39 2.73-2.19 4.02-4.37 2.2-1.2-.98-1.8-1-2.73-.06-.93.93-.92 1.37.03 1.96 1.45.9-6.65 5.15-9.8 5.15-1.1 0-3 .62-4.22 1.38-2.44 1.53-10.5 2.81-11.1 1.77zm633.74.18c-.36-.37-.66-3.87-.66-7.8 0-7.36.95-9.52 4.2-9.52 1.54 0 1.8.9 1.8 6.53 0 7.78-2.76 13.36-5.34 10.8zm-258.22-2.09c-1.2-.2-2.7-1-3.36-1.78-.95-1.15-.71-1.6 1.23-2.34 3.52-1.34 15.23-2.44 17.69-1.66 5.42 1.73.26 4.5-8.43 4.53-1.68 0-3.48.37-4 .81-.52.44-1.93.64-3.13.44zm-88.2-5.66c-2.03-2.16-2.16-2.8-1.16-5.83 2-6.05 10.48-10.5 16.32-8.55 1.79.6 3.65 1.44 4.13 1.87 1.19 1.07-.23 9.93-1.6 9.93-.6 0-2.56 1.13-4.36 2.5-4.43 3.38-10.2 3.41-13.34.08zm9.23-5.96c.38-.97-.04-1.24-1.38-.89-1.05.28-1.66.9-1.36 1.39.81 1.31 2.14 1.07 2.74-.5zm111.63 6.7c0-1.55 1.09-2.23 5.08-3.15 2.79-.64 6.33-1.17 7.87-1.17 3.53 0 5.58-2.41 5.2-6.12-.17-1.58.13-2.87.65-2.87.53 0 1.24-.79 1.58-1.75.34-.96.87-2.28 1.18-2.94.43-.9-.03-.9-2 0-1.4.66-2.55 1.51-2.56 1.9 0 .4-1.4 2.32-3.13 4.27-2.46 2.8-3.4 3.32-4.5 2.41-1.75-1.45-1.7-3.87.13-6.29 1.58-2.08 1.15-3.6-1-3.6-1.86 0-7.4 5.93-8.11 8.67-.6 2.29-2.93 3.73-4.47 2.77-1.35-.83-1.1-3.56.6-6.84.84-1.6 1.34-3.08 1.12-3.3-.7-.7-5.63.88-5.63 1.8 0 .5-1.46.92-3.25.95-2.74.05-3.72.78-6.25 4.68-3.88 5.98-5.92 7.27-8.1 5.1-1.5-1.52-1.51-1.9-.01-4.9.89-1.78 1.61-4.53 1.61-6.1 0-2.18.67-3.15 2.75-4.04 3.46-1.47 7.25-4.77 7.25-6.3 0-.64 1.81-1.76 4.03-2.5 3.94-1.3 4.09-1.26 7.39 1.94 3.64 3.53 5.16 3.4 8.99-.83 2.46-2.72 4.36-2.66 4.76.15.2 1.38 1.12 2.37 2.4 2.55 1.61.23 2.43-.6 3.66-3.75 1.95-4.94 4.35-5.25 6.23-.8.76 1.8 2.3 3.82 3.45 4.51a4.52 4.52 0 0 1 2.05 4c-.03 3.44-3.08 10.26-5.48 12.24-1.7 1.4-1.6 1.53 1.59 2 4.6.67 4.6 3.65-.01 6.23-2.86 1.6-3.8 1.71-5.71.69-1.71-.92-2.64-.94-3.65-.1-.75.62-4.59 1.42-8.53 1.79-6.7.62-7.18.54-7.18-1.3zm-7.26-22.91c-.34-.33-1.2-.37-1.92-.08-.8.32-.56.55.6.6 1.06.05 1.65-.2 1.32-.52zm-92.49 22.4c-1.72-1.73-1.48-3.63.82-6.56l2.02-2.57-2.2-2.34-2.19-2.33 2.35-2.5c1.3-1.38 3.33-2.5 4.52-2.5 1.2 0 4.38-2.03 7.07-4.5 5.14-4.72 7.65-5.88 11.55-5.33 1.7.24 2.43 1.08 2.66 3.03.25 2.15-.31 3-2.82 4.3-1.73.9-3.58 2.89-4.11 4.43-.62 1.78-2.41 3.48-4.92 4.68-2.16 1.04-3.94 2.38-3.94 2.98-.01.6-.87 1.87-1.92 2.82a15.36 15.36 0 0 0-3.12 4.65c-1.27 3.05-3.71 3.79-5.77 1.73zm39.35-.7c-.3-.48.12-1.44.94-2.12 1.77-1.46 1.99-6.56.33-7.59-.68-.41-2.05.39-3.26 1.9-1.4 1.76-2.53 2.35-3.43 1.8-1.07-.67-.94-1.13.63-2.23a6.3 6.3 0 0 0 2.35-3.3c.2-1.05 2.58-3.12 5.28-4.6 2.7-1.49 5.46-3.77 6.15-5.08 1.7-3.24 6.84-6.88 9.72-6.88 1.3 0 3.36 1.06 4.57 2.35 1.93 2.06 2.02 2.5.71 3.59-.9.76-2.65.98-4.46.59-2.33-.52-3.19-.24-4 1.28-1.3 2.41-.55 3.19 3.06 3.19 1.8 0 2.83.52 2.83 1.44 0 2.87 2.22 2.71 5.23-.37 1.69-1.72 3.56-2.97 4.17-2.78 1.41.47 2.06 6.7.7 6.7-.58 0-2.87 2.48-5.1 5.5-6.02 8.15-8.44 7.16-5.47-2.24.67-2.15.46-2.25-4.94-2.25-4.46 0-5.78.36-6.3 1.75a8.01 8.01 0 0 1-2.47 3.05c-1 .72-1.82 1.84-1.84 2.5-.04 1.62-4.71 4.92-5.4 3.8zm111.53-3c-.74-.46-1.19-1.7-.99-2.73.3-1.58 1.62-1.98 8.35-2.52 12.13-1 15.16 1.68 5.26 4.62-5.7 1.69-10.57 1.94-12.62.64zm-413-3.19c-.89-1.66-.76-2.47.63-4.01.99-1.09 2.48-1.7 3.43-1.4.92.3 2.98-.15 4.58-.98s3.69-1.51 4.65-1.52c.96 0 1.75-.43 1.75-.96 0-.52 1.68-1.24 3.75-1.6a66.67 66.67 0 0 0 16.94-5.36c6.52-3.23 11-2.45 9.56 1.67-.69 1.98-14.24 7.96-19.76 8.74-2.75.38-5.45 1.04-6 1.46-.54.43-3.7 1.55-7 2.5-3.29.95-7.02 2.13-8.28 2.63-3.04 1.2-2.97 1.23-4.25-1.17zm13.54-4.91c.34-.55-.11-1-1-1-.9 0-1.34.45-1 1 .34.55.79 1 1 1 .2 0 .66-.45 1-1zm432.72 3.88c-.87-1.42 1.36-2.84 4.57-2.9a8.9 8.9 0 0 0 4.44-1.51c1.08-.82 4.07-1.47 6.75-1.47 3.52 0 4.8-.39 4.8-1.44 0-2.36-1.99-2.88-4-1.05-1.66 1.5-2.26 1.54-4.94.35-2.46-1.09-3.05-1.95-3.05-4.46 0-4.3 6.82-12 11.83-13.35 4.56-1.23 9.54-.03 10 2.4.31 1.59-1.4 6.11-2.84 7.55-1.72 1.72-3 5.52-3 8.93 0 2.17-.56 4.31-1.25 4.76-1.7 1.1-13.29 3.13-18.43 3.23-2.3.04-4.5-.43-4.88-1.04zm18.44-15.31a15.79 15.79 0 0 0 4.07-3c1.13-1.36.9-1.57-1.7-1.57-2.1 0-3.5.75-4.63 2.47-2.6 3.97-2.16 4.38 2.26 2.1zm25.75 11.73c-1.47-1.47 1.99-3.27 7.47-3.9 3.26-.36 6.17-1.06 6.47-1.53.3-.48 2.08-.87 3.97-.87 3 0 3.44.32 3.44 2.48 0 1.77-.64 2.6-2.25 2.93-4.17.85-18.48 1.51-19.1.89zm42.8-1.37c-1.26-2.04 3.8-5.56 9.02-6.27 5.34-.73 6.52-.32 6.52 2.28 0 2.23-1.95 3.95-4.55 4.01-1.07.03-3.81.32-6.08.64-2.8.4-4.39.19-4.91-.66zm-114.93-1.16c-.72-1.85 2.32-8.96 5.63-13.17 1.18-1.5 3.48-2.79 5.68-3.19 2.04-.36 4.3-1.13 5-1.7.9-.7 1.65-.66 2.45.14 1.42 1.42 6.4 1.53 7.25.16.34-.55 1.92-1 3.52-1 2.47 0 2.98.47 3.5 3.25a9.8 9.8 0 0 1-.95 6.25c-.85 1.65-1.56 3.33-1.56 3.74-.01 1.42-4.08 4.82-5.05 4.22-.87-.54-.68-2.61.7-7.72.3-1.1-.08-1.75-1.01-1.75-2.03 0-7.64 4.84-7.64 6.59 0 1.84-3.9 1.83-4.6 0-.3-.79.2-2.59 1.14-4 1.6-2.46 1.6-2.59-.17-2.61-1.04-.01-4.39 2.76-7.54 6.25-4.63 5.12-5.8 5.95-6.35 4.54zm-318.32-1.37c0-2.11 5-6.7 9.7-8.92a40 40 0 0 0 6.17-3.62c3.16-2.46 5.55-2.34 7.34.35 1.18 1.79 2.27 2.16 5.77 1.95 2.43-.14 5.4-1.1 6.79-2.2 1.36-1.08 3.62-1.95 5.01-1.95 1.4 0 3.39-.77 4.43-1.71 1.63-1.48 2.02-1.51 2.82-.25 1.69 2.61.5 4.44-3.56 5.47a32.4 32.4 0 0 0-6 2.12c-1.1.61-4.08 1.41-6.64 1.78-3.84.56-4.76 1.1-5.27 3.13-.43 1.7-1.3 2.45-2.9 2.45-1.25 0-2.76.49-3.36 1.09-.78.78-1.27.78-1.76 0-.87-1.42-7.23-1.42-8.1 0-.37.6-1.52.86-2.56.59s-2.14-.09-2.44.41c-1 1.6-5.44 1.04-5.44-.69zm469.82-.85c-1.87-2.25-.83-5.09 1.75-4.81 1.21.13 2.2-.2 2.2-.75 0-1.4 6.36-1.23 7.8.21 1.97 1.98 1.38 3.56-1.95 5.23-3.95 1.96-8.23 2.02-9.8.12zm-93-4.63c0-1.15 1.46-3.64 3.25-5.52 1.78-1.9 3.5-4.44 3.8-5.67.4-1.65 1.3-2.24 3.49-2.3 1.62-.03 3.9-.38 5.06-.76 2.34-.78 3.77.5 4.67 4.14.4 1.62-.25 3.25-2.19 5.5-1.51 1.75-3.04 3.98-3.39 4.94-.75 2.06-4.7 2.38-4.7.37 0-.75.63-1.9 1.4-2.53a7.03 7.03 0 0 0 1.9-3.12c.67-2.56-3.06-2.76-4.02-.22-.99 2.63-5.9 7.25-7.7 7.25-.93 0-1.57-.85-1.57-2.09zm407.33-3.72c-1.14-2.97 1.85-4.2 11.74-4.86l9.66-.63 1.07 2.81c1.52 4 .22 4.48-11.7 4.34-8.19-.1-10.3-.42-10.77-1.66zm48.2-1.59c-4.22-3.2-1.31-4.35 11.43-4.53 8.31-.1 10.08.87 7.26 3.99-1.45 1.6-3.08 1.93-9.35 1.9-4.72-.02-8.25-.53-9.34-1.36zm-863.84-1.61c-.87-1.41 2.28-5 4.4-5 .88 0 3.12-.93 4.97-2.06 1.85-1.13 4.05-1.8 4.87-1.47a3 3 0 0 0 2.63-.3c.62-.49 2.43-1.2 4.03-1.58 3.2-.77 5.22.98 3.25 2.83-1.56 1.46-8.4 4.59-10.04 4.59-.72 0-2.61.63-4.2 1.4-4.41 2.13-9.11 2.88-9.91 1.59zm264.73-.5c-.66-1.74 1.27-4.5 3.15-4.5 1.69 0 2.54 3.56 1.18 4.92-1.55 1.55-3.65 1.34-4.33-.43zm645.61.46c-5.07-.7-6.13-1.55-4.2-3.36 1.63-1.54 13.01-2.78 14.89-1.62.68.42 1.07 1.6.87 2.63-.43 2.23-5.3 3.22-11.56 2.35zm43.02-2.59c-1.34-3.5 1.04-4.85 9.06-5.15 8.47-.33 10.5 1.06 7.1 4.82-2.41 2.66-15.17 2.92-16.16.33zm-433.9-2.56c-1.27-1.27-1.61-6.56-.6-9.22.94-2.44 5.05-1.98 5.74.64.7 2.7-.23 6.8-1.94 8.52-1.55 1.55-1.71 1.55-3.2.06zm475.72.31c-.74-.47-1.17-1.7-.96-2.73.3-1.5 1.13-1.82 4.1-1.59 2.2.18 3.7-.15 3.7-.8 0-.68 1.62-.99 4.16-.8 4.41.33 6.6 2.38 5.54 5.17-.5 1.31-2.09 1.63-7.91 1.62-4 0-7.88-.4-8.63-.87zm53.73-1.48c-2.57-1.3-3.2-2.6-2.1-4.35.89-1.4 19.5-2.28 20.8-1 .43.43-.32 1.85-1.66 3.15-1.87 1.8-3.9 2.48-8.62 2.84-3.6.28-7.11.01-8.42-.64zm-1022.42-3.4c0-1.42 3-3.7 4.88-3.71.89-.01 1.61-.67 1.61-1.47 0-.89 1.54-1.78 3.93-2.27 2.15-.45 4.44-1.25 5.09-1.79.64-.53 1.46-.67 1.82-.31.36.36.66.16.66-.45 0-.6 2.03-1.4 4.51-1.78 2.49-.37 4.85-1.25 5.25-1.94.4-.7 2.6-1.58 4.9-1.96 3.67-.6 4.23-.44 4.82 1.43.91 2.87-.82 4.68-5.27 5.5-2.04.39-4.16 1.05-4.71 1.48-.55.42-2.8 1.04-5 1.38-2.2.33-5.8 1.46-8 2.5a37.67 37.67 0 0 1-7.81 2.59c-2.1.38-4.47.93-5.25 1.23-.79.3-1.43.11-1.43-.43zm1075.74-.38c-1.66-1.66-1.58-3.33.25-4.85 1.04-.86 1.5-.9 1.5-.12 0 1.42 13.62 1.54 14.5.12.91-1.48 1.86-1.23 4.45 1.18 2.21 2.06 2.23 2.2.44 2.86-1.04.37-5.95 1-10.9 1.38-6.65.5-9.31.36-10.24-.57zm44.45-1.67c-1.04-.2-1.72-1.24-1.72-2.65 0-2.22.37-2.34 8.75-2.7 6.98-.31 8.99-.08 9.96 1.14 1 1.25.83 1.86-.85 3.27-1.56 1.32-3.57 1.69-8.24 1.5-3.4-.13-6.95-.39-7.9-.56zm53.26-4.68c-1.75-2.1.39-4.5 4-4.5 2.69 0 4 1.5 4 4.58 0 1.95-6.38 1.88-8-.08zm36.98-1.47c-3.03-2.33-2.07-3.54 3.5-4.37 5.64-.84 7.34.4 5.14 3.76-2.02 3.08-5.15 3.3-8.64.61zm31.98-2.56c0-1.16.57-1.42 2.05-.95 1.21.39 3.07-.02 4.54-.98 1.65-1.08 4.1-1.54 7.2-1.34 3.94.26 4.7.63 4.7 2.3 0 1.84-.76 2.03-9.24 2.3-7.94.24-9.25.05-9.25-1.33zm37.24.83c-1.74-.34-2.25-1.12-2.25-3.41v-2.98l5.73.3c4.75.25 5.8.63 6.11 2.23.67 3.52-3.21 5.09-9.6 3.86zm33.8-.05c-4.96-.33-7.92-1.96-8.03-4.42-.1-2.15 3.67-3.72 10.5-4.36 6.98-.65 7.75-.53 9.95 1.53 1.99 1.87 2.18 2.54 1.2 4.13-1.79 2.85-5.33 3.66-13.62 3.12zm-2.07-2.69c0-1.05-1.92-1.5-2.49-.57-.34.56.07 1.01.93 1.01.86 0 1.56-.2 1.56-.44zm4-1.55a1 1 0 0 0-1-1 1 1 0 0 0-1 1 1 1 0 0 0 1 1 1 1 0 0 0 1-1zm-438.13 3.33c-1.3-1.3-.64-5.05 1.17-6.68 1.53-1.39 5.25-8.3 10.45-19.4.57-1.23 1.84-2.24 2.82-2.24.97 0 2.03-.42 2.34-.92.31-.51 3.51-1.24 7.12-1.63 5.94-.63 6.73-.5 8.58 1.49 1.55 1.67 1.9 2.97 1.42 5.48-.44 2.32-.17 3.67.9 4.56.83.69 1.52.83 1.52.3 0-.52 2.1-1.43 4.68-2.02 4.66-1.07 6.87-.66 10.52 1.95 1.4 1 2.11.83 4.07-1 4.6-4.33 4.99.15.8 9.1-3.17 6.79-6.9 9.9-9.4 7.82-1.07-.89-2.24-.8-5 .35-1.99.83-4.44 1.5-5.45 1.5-2.4 0-7.22-5.04-7.23-7.55-.01-1.26-1.36-2.59-3.86-3.79-3.58-1.7-4.08-1.73-6.94-.25-1.7.88-3.9 1.6-4.9 1.6-2.78 0-5.56 2.38-7.77 6.65-2.53 4.89-4.25 6.27-5.84 4.68zm45.31-8.83c.69-.83 1.88-1.5 2.65-1.5s1.86-1.2 2.42-2.67c1.18-3.12 0-4.29-4.37-4.31-5.65-.03-9.62 3.55-9.68 8.73-.02 1.81 7.44 1.6 8.98-.25zm-23.03-9.02c4.01-.5 7.01-2.56 7.7-5.27.32-1.26.39-2.5.15-2.73-.8-.8-13.3 1.79-14.04 2.91-.4.61-.74 2.38-.75 3.93 0 2.38.3 2.72 2.02 2.17 1.11-.35 3.32-.8 4.92-1zm42.28 11.37c-.85-.85-.53-1.94 1.3-4.34 2.82-3.7 3.04-5.06.94-5.87-2.88-1.1-1.56-3.54 2.5-4.64 2.2-.59 4-1.4 4-1.82 0-.41 1.31-2.3 2.92-4.21l2.92-3.46.96 2.5c.53 1.4.57 2.64.08 2.83-1.82.69-.79 2.97 1.62 3.58 1.61.4 2.5 1.32 2.5 2.6 0 1.69-.68 1.98-4.55 1.98-4 0-4.69.33-5.75 2.75-1.7 3.88-5.86 9.25-7.18 9.25-.61 0-1.63-.52-2.26-1.15zm32.19-1.17c-.47-1.84-.02-3.5 1.53-5.67 1.77-2.48 1.96-3.37.98-4.54-1.4-1.7-4.97-1.98-4.97-.4 0 1.52-9.26 11.9-10.63 11.91-2.75.03-2.15-4.34 1.3-9.34 1.93-2.83 3.82-5.36 4.18-5.64 1.21-.92 4.15-6.79 4.15-8.29 0-1.42 1.99-2.7 4.2-2.7.58 0 .84 1.5.6 3.5-.3 2.58-.02 3.5 1.06 3.5.8 0 2.94 1.13 4.76 2.52l3.31 2.53-1.96 3.22c-1.08 1.77-1.97 3.92-1.97 4.78 0 .86-1.33 2.83-2.95 4.39l-2.94 2.82zm80.75.83c-1.67-1.2-2.25-2.63-2.25-5.52 0-2.14.57-4.25 1.27-4.69 1.05-.66 3.73-5.5 3.73-6.73 0-.18-1-.6-2.22-.91-2.9-.76-6.78.24-6.78 1.75 0 1.76-2.37 6.57-3.24 6.58-.42 0-.75.84-.75 1.86 0 3.53-5.87 6.79-7.5 4.15-.33-.54.54-2.5 1.94-4.34 3.23-4.23 3.23-6.03-.02-7.5-3.62-1.66-2.54-3.48 2.77-4.65 5.35-1.18 7.16-2.53 8.82-6.53.72-1.75 1.97-2.97 3.04-2.97 2.45 0 3.39 1.76 1.9 3.54-2.58 3.12 2.94 5.73 11.88 5.6 2.42-.04 5.44.65 6.81 1.55 2.18 1.43 2.39 2.09 1.8 5.7-.36 2.26-1.07 4.53-1.56 5.05-.5.52-.9 1.77-.9 2.77 0 1.07-1.13 2.26-2.73 2.87-1.5.57-3.02 1.52-3.39 2.1-1.17 1.9-10.11 2.13-12.62.32zm10.08-2.97c5.4-4.09 8.17-11.04 5.35-13.38-1.97-1.64-7.52 1.7-10.03 6.04-1.76 3.02-1.9 3.97-.88 6.19 1.32 2.9 2.83 3.22 5.56 1.15zm-1000.68.24c.24-1.67 1.3-2.44 4.32-3.14 2.2-.51 4.28-1.37 4.64-1.92.35-.54 3-1.36 5.89-1.81 2.96-.47 6.2-1.72 7.42-2.87a8.09 8.09 0 0 1 4.7-2.04c1.39 0 3.3-.85 4.24-1.9.94-1.03 3.62-2.37 5.94-2.95 2.32-.58 6.78-2.43 9.91-4.1 6.88-3.67 10.3-4.15 6.89-.97-2.6 2.41-12.77 7.93-14.63 7.93-.7 0-1.8.62-2.43 1.39-.64.77-2.67 1.68-4.52 2.03-1.85.34-3.91 1.29-4.59 2.1a5 5 0 0 1-3.4 1.47c-1.2 0-3.06.66-4.13 1.47a9.26 9.26 0 0 1-4.69 1.5c-1.51.02-2.75.47-2.75 1 0 1.36-7.85 5.03-10.75 5.03-1.89 0-2.31-.46-2.06-2.22zm1069.04-4.92c-.4-4.28-1.17-6.74-2.58-8.15-1.9-1.9-2.16-1.92-4.49-.4a8.52 8.52 0 0 0-3.13 4.61c-.37 1.7-1.5 3.26-2.59 3.6-1.06.34-1.93 1.26-1.93 2.05 0 .86-1 1.43-2.5 1.43-1.84 0-2.5-.53-2.5-2.03 0-1.12.68-2.29 1.5-2.6.83-.32 1.5-.98 1.5-1.47 0-1.75 7.21-10.9 8.6-10.9.77 0 1.4-.67 1.4-1.5 0-.82.4-1.5.89-1.5s1.2-1.23 1.58-2.74c1.09-4.37 3.34-6.08 8.89-6.77 3.75-.47 6.32-.19 9.4 1.05 3.74 1.5 4.23 2.06 4.23 4.9 0 3.82-3.84 7.94-9.03 9.69-1.9.64-4.03 1.6-4.72 2.14-1.48 1.16-1.69 6.73-.25 6.73.55 0 1 1.8 1 4 0 3.54-.27 4-2.36 4-2.16 0-2.4-.51-2.91-6.14zm10.92-14.04c3.26-1.59 5.3-6.6 3.22-7.9-2.14-1.37-5.13-1.07-8.96.88-4.81 2.46-9.9 6.16-9.9 7.21 0 2.15 11.12 2.02 15.64-.19zM654 721.26c0-1.7 1.05-3.02 3.56-4.5 4.26-2.51 7-2.68 7.85-.47.8 2.1-1.1 4.34-5.13 6.02-4.72 1.98-6.28 1.72-6.28-1.05zm646.62-1.31c-2.17-5.7 1.68-12.1 9.5-15.79 7-3.31 9.66-3.18 13.4.65 2.54 2.6 2.9 3.5 2.03 5.1-.74 1.4-.73 2.29.04 3.06.8.8 1.1.78 1.1-.04 0-.62.9-1.42 2-1.77 1.1-.34 2-1.4 2-2.36 0-2.52 2-4.13 5.13-4.13 1.5 0 2.99-.4 3.3-.9.93-1.52 7.7-1.87 8.26-.42.38.98 1.11.82 3.02-.68 5.03-3.96 5.98 1.58 1.27 7.5-1.65 2.07-3 4.27-3 4.88 0 .61-1.03 2.39-2.28 3.95-2.1 2.64-2.76 2.84-9.44 2.84-8.79 0-10.4-.77-7.15-3.38l2.38-1.91-4.5.63c-6.26.87-10.62 2.33-12.03 4.03-.82.99-3.23 1.45-7.6 1.45-6.04 0-6.46-.15-7.43-2.71zm15.43-3.19a47.39 47.39 0 0 0 4.65-5.12c2.43-3.07 2.62-3.75 1.46-5.35-1.25-1.7-1.5-1.71-3.63-.23a9.34 9.34 0 0 1-4.43 1.6c-5.75 0-9.85 8.4-5.15 10.57 2.57 1.19 4.46.8 7.1-1.47zm20.63 1.9c0-.55.6-1 1.31-1 1.8 0 6.34-4.9 7.58-8.2 1.66-4.38-.79-4.71-8.64-1.17-3.63 1.64-3.45 1.3-3.7 7.12-.14 3.5.15 4.25 1.64 4.25 1 0 1.81-.45 1.81-1zm23.18.01c-4.42-1.04-6.58-3.9-4.61-6.09a5.84 5.84 0 0 0 1.42-3.28c0-.93.79-2 1.75-2.35a8.08 8.08 0 0 0 2.97-2.22c1.06-1.36 1.23-1.37 1.31-.06.06.88.46.57 1-.75.6-1.51 1.82-2.3 3.68-2.4 1.53-.08 3.46-.24 4.28-.35.83-.11 2.74-.27 4.25-.35 1.98-.11 2.75-.68 2.75-2.04 0-1.04.9-2.95 1.98-4.25 1.7-2.02 2.13-2.14 3.02-.86 1.26 1.82.34 7.92-1.5 10a12.2 12.2 0 0 0-2.05 4.31c-.39 1.56-1.54 3.35-2.57 4-1.07.66-1.88 2.3-1.88 3.81 0 1.5-.69 2.92-1.58 3.26-2.1.81-10.1.6-14.22-.38zm6.16-4.5c.83-.83 2.16-1.5 2.96-1.5.8 0 2.18-1.12 3.07-2.47 1.75-2.67 2.19-7.53.68-7.53-2.4 0-6.46 2.29-9.76 5.49-3.52 3.41-3.56 3.56-1.8 5.5 2.17 2.4 2.89 2.47 4.85.5zm-604.57 1.72c-3.89-.46-7.22-4.64-5.43-6.8 1.9-2.3 20.78-1.6 22.3.81 2.51 3.99-6.56 7.2-16.87 5.99zm-76.96-1.52-4.32-2.5c-1.86-1.08-2.08-1.62-1.12-2.77 1.54-1.86 19.91-2.06 21.73-.24 2.32 2.33 1.42 4.8-1.74 4.8-1.62 0-3.22.45-3.56 1-.84 1.36-8.52 1.16-11-.29zm48.98.3c-.34-.56-2.63-1-5.1-1-4.86 0-6.61-1.84-4.36-4.56 1.87-2.25 16.8-1.65 18.3.74.82 1.3.63 2.18-.8 3.75-1.93 2.14-6.97 2.8-8.04 1.06zM804.6 700c-1.47-1.46-.38-3.2 6.39-10.18 5.78-5.97 7.32-7.07 8.5-6.1.79.66 1.43 2.52 1.43 4.14 0 4.01-8.85 12.8-12.89 12.8-1.52 0-3.07-.3-3.43-.66zm-555.34-4.27c-1.04-.65-1.15-1.27-.39-2.23.58-.73 1.33-3.82 1.67-6.88.34-3.05.91-6.98 1.26-8.74.74-3.67-.54-4.07-6.28-2-4.47 1.62-5.6.25-3.48-4.2 1.42-2.97 2.5-3.71 7.23-5 3.06-.82 6.65-2.2 7.99-3.06 2.77-1.78 7.15-3.49 11.2-4.37 2-.44 2.94-.17 3.37.96.75 1.94-1.85 4.05-6.96 5.64-4.84 1.51-7.68 5.08-7.68 9.66 0 8.08-3.27 20.12-5.67 20.87-.45.14-1.47-.15-2.26-.65zm43.59-2.71c-1.13-1.13 1.45-3.35 3.88-3.35 1.28 0 2.58-.41 2.9-.92.3-.5 1.87-1.2 3.47-1.56 1.6-.35 4.86-1.9 7.24-3.45 2.38-1.55 6.1-3.13 8.27-3.52 2.17-.39 5-1.54 6.3-2.55a15.37 15.37 0 0 1 5.19-2.48 10.2 10.2 0 0 0 4.6-2.56c.97-1.07 2.6-1.95 3.6-1.95 1.02 0 2.75-.9 3.85-2s2.3-2 2.65-2c.36 0 3.1-1.15 6.1-2.57 2.98-1.41 5.62-2.38 5.86-2.14 1.06 1.06-1.04 3.67-3.7 4.6-1.6.55-2.91 1.48-2.91 2.06 0 .58-.88 1.05-1.94 1.05-1.07 0-2.22.45-2.56 1-.34.55-3.18 2.2-6.3 3.66-3.14 1.47-6.77 3.5-8.08 4.5-1.31 1.01-3.16 1.84-4.11 1.84-.95 0-2.8.82-4.12 1.82-1.3 1-4.38 2.61-6.82 3.57-2.44.96-5.6 2.53-7 3.5-4.5 3.08-14.6 5.2-16.37 3.45zm640-3.38c-1.42-2.66-.33-5.96 1.96-5.96 6.85 0 10 2.38 8.02 6.07-1.5 2.78-8.47 2.7-9.98-.11zm30.93-.28c-2.25-2.41-2.39-3.67-.67-6.01.93-1.28 3.16-1.82 8.75-2.13 10.1-.55 11.99-.01 11.99 3.41 0 4.22-2.62 5.74-10.83 6.3-6.48.43-7.55.25-9.24-1.57zm-693.85-2.93c-.52-1.4.89-14.35 1.71-15.68.91-1.47 10.41-6.06 12.55-6.06 2.47 0 3.65 2.5 2.08 4.39-.63.75-2.48 1.63-4.11 1.96-3.37.67-6.96 5.63-6.99 9.64-.03 4.37-1.16 7-3 7-.97 0-1.98-.57-2.24-1.25zm738.08-1.07c-2.53-2.69-2.17-3.25 3.02-4.74 4.1-1.17 7.8-.2 7.8 2.04 0 2.27-1.93 3.85-5.6 4.59-2.26.45-3.42.03-5.22-1.9zm40.37.42c-.38-.62-2.56-1-4.84-.86-3.36.2-4.22-.1-4.53-1.6-.2-1.02.02-2.25.5-2.74 1.01-1 20.7-1.88 22.16-.99.53.33.72 1.83.43 3.34-.41 2.16-1.08 2.75-3.15 2.76-1.45 0-4.27.28-6.26.6-2.22.37-3.89.17-4.31-.51zm-132.72-2.82c-1.66-.25-3.93-1.94-5.86-4.38-3.04-3.84-3.09-4.05-1.38-5.94 2.3-2.53 2.36-2.52 7.28 1.26 3.4 2.61 4.18 3.82 4.18 6.5 0 1.8-.34 3.21-.75 3.13-.41-.08-1.97-.34-3.47-.57zm177.35-1.62c-2.7-1.5-1.93-2.66 1.75-2.66 1.45 0 3.12-.49 3.72-1.08.6-.6 2.15-.94 3.45-.75 1.73.24 2.44 1.07 2.68 3.08.3 2.67.17 2.75-4.5 2.71-2.65-.02-5.84-.6-7.1-1.3zm45.97-1.7c-1.9-3.03-.68-3.96 5.18-3.96 6.13 0 6.48.22 5.85 3.52-.42 2.21-.97 2.48-5.12 2.48-3.58 0-4.92-.46-5.91-2.04zm-849.15-.79c-2.96-3.27-2.03-6.72 3.49-12.9 6.87-7.7 9.92-10.18 12.52-10.22 2.05-.04 2.2.48 2.52 8.7.36 9.48-.67 12.25-4.6 12.26-1.15 0-3.44.9-5.09 1.99-3.74 2.48-6.7 2.54-8.84.17zm7.34-5.17c0-.55.53-1 1.17-1 2.4 0 4.83-3.35 4.83-6.65 0-1.84-.31-3.34-.69-3.34-1.26 0-5.3 4.33-5.3 5.67 0 .73-.64 1.32-1.4 1.32-1.87 0-2.72 2.49-1.33 3.88 1.4 1.4 2.72 1.45 2.72.12zm881.6 5.25c.03-3.83 1.5-4.45 11.27-4.78 7.82-.27 9.65-.05 10.13 1.2.83 2.16-.18 3.33-2.9 3.33-1.3 0-2.58.56-2.86 1.25-.4.98-.71.96-1.44-.08-.75-1.06-2.1-1.1-6.76-.25-7.5 1.39-7.46 1.4-7.44-.67zm6.48-2.25c.34-.55.14-1-.44-1-.58 0-1.06.45-1.06 1s.2 1 .44 1c.25 0 .72-.45 1.06-1zm45.2.4c-.4-.4-.72-1.74-.72-2.97 0-2.12.54-2.28 9.66-2.96 8.73-.66 9.8-.55 11.01 1.11 2.3 3.15.95 3.91-7.26 4.1-4.35.1-8.82.46-9.94.8-1.11.35-2.35.31-2.74-.09zm57.83-3.28c-.39-.62 0-1.4.85-1.73.86-.33 1.31-1 1.01-1.48-.3-.49.04-.7.76-.48 4.9 1.53 6.73 1.55 6.17.09-.8-2.08 1.58-1.89 4.51.36 3 2.3 2.07 2.87-6.08 3.7-4.44.46-6.75.3-7.22-.46zm50.78-2.2c-3.76-1.1-6.03-3.4-4.36-4.43.62-.38 3.14-.39 5.6-.02 4.65.7 6.8 3.02 4.27 4.62-1.6 1.01-1.4 1.02-5.51-.17zM319 669.96c-4.16-.62-6.11-3.53-6.01-9 .08-4.42.48-5.15 5.54-10.02 5.57-5.37 8.43-6.38 10.6-3.76 1.64 1.97.58 4.51-1.87 4.51-2.42 0-8.1 5.53-8.1 7.88 0 4.47 5.97 5.6 8.58 1.62 2.68-4.09 6.05-2.91 4.89 1.7-.6 2.35-5.47 6.14-9 7-1.1.25-3.17.3-4.63.07zm1056.63-.8c-1.6-1.92-1.05-2.44 3.63-3.5 4.5-1.01 9.06-.27 9.78 1.6.8 2.08-1.54 2.95-2.9 1.08-1.6-2.18-3.06-2.09-5.49.34-2.4 2.4-3.35 2.5-5.02.48zm42.44-2.9a8.43 8.43 0 0 1 4.55-1.57c1.44 0 3.15-.55 3.82-1.21.94-.94 1.57-.84 2.88.48.93.92 1.47 1.9 1.21 2.15-.26.26-3.6.75-7.43 1.1-6.43.56-6.82.49-5.03-.96zm44.9.47c-5.96-1.42-6.7-1.92-5.36-3.54.68-.82 1.58-1.27 2-1 .43.26 1.3-.17 1.96-.95 1.57-1.9 6.33-2.87 10.04-2.05 3.28.72 3.99 2.9 1.27 3.94-1.44.56-1.49.8-.28 1.55 1.13.7.84 1.12-1.34 1.95-3.09 1.17-3.77 1.18-8.3.1zm5.95-.6c.88-.35 1.26-1.35.95-2.53-.43-1.66-1.06-1.85-4.13-1.3-4.96.92-5.91 2.73-1.85 3.5 1.77.34 3.3.68 3.39.75.09.08.83-.12 1.64-.43zm-639.5-1.43c-1.94-3.13 1.92-22.12 5.1-25.11 2.2-2.06 2.44-2.09 4.85-.5 2.88 1.88 2.92 2.14 1.47 10-1.92 10.4-8.82 19.82-11.42 15.61zm72.88-8.18c.38-2.93 1.12-5.48 1.64-5.66.51-.18.93-1.4.93-2.68 0-4.6 1.78-7.48 4.61-7.48 2.64 0 2.66.04 2.02 5.53-.36 3.04-1.05 6.3-1.52 7.25-.48.94-1.27 3.06-1.76 4.7-.68 2.3-1.56 3.09-3.75 3.34l-2.87.33zm-562.58 2.3c-.33-.54-.57-2.93-.52-5.3.05-2.38.01-8.21-.09-12.97-.2-9.67 1.24-14.16 4.72-14.66 3.24-.46 4.55 2.87 3.8 9.62l-.62 5.69 3.04-3.5c1.66-1.92 3.04-4.01 3.06-4.64.04-1.67 2.6-2.38 3.9-1.08 1.33 1.33 1.48 4.38.26 5.13-.47.3-1.43 2.57-2.13 5.06-1.23 4.4-1.2 4.6 1.42 6.64 3.47 2.73 3.29 7.2-.31 7.72-1.32.18-2.67-.05-3-.52-.34-.47-1.9-1.43-3.48-2.12-3.42-1.5-5.7-.17-5.35 3.15.15 1.52-.4 2.23-1.94 2.45-1.18.17-2.42-.13-2.76-.67zm52.42-13.09c-1.24-.79-1.12-1.3.82-3.37a11.8 11.8 0 0 1 5.3-3.04c1.66-.33 4.16-1.5 5.57-2.61 1.4-1.1 3.13-2 3.83-2 1.54 0 12.7-6.04 24.94-13.48 2.2-1.34 4.72-2.45 5.6-2.48.9-.02 3.32-1.4 5.4-3.04 2.07-1.65 4.27-3 4.89-3 .61 0 1.7-.93 2.4-2.06 1.64-2.62 5.58-2.24 5.98.56.2 1.44-.64 2.4-3 3.41a30.5 30.5 0 0 0-6.1 3.75c-1.56 1.29-3.49 2.34-4.29 2.34-.8 0-1.7.67-2.03 1.5-.31.82-1.1 1.5-1.75 1.5-.65 0-2.74 1.33-4.64 2.95-1.9 1.63-4.4 2.98-5.53 3-1.14.02-3.84 1.5-6 3.3-4.72 3.9-8.57 6.04-13.92 7.77-2.2.7-4.45 1.83-5 2.5-.55.66-3.11 1.72-5.69 2.34-5.55 1.33-4.95 1.32-6.78.16zm-24.01-.81c-2.31-.75-5-3.38-5-4.9 0-.75 1.15-1.89 2.55-2.53 2.1-.95 3.09-.84 5.52.6 2.92 1.72 3.02 1.7 6.02-.82l3.06-2.57h-3.47c-4.1 0-7.23-2.42-8.1-6.27-.64-2.81.37-4.27 6.25-8.97 4.33-3.47 8.16-1.26 8.16 4.7 0 2 .74 4.74 1.64 6.1 2.08 3.19.8 8.41-2.46 10.04a12.2 12.2 0 0 0-3.47 2.64c-1.25 1.57-8.06 2.83-10.7 1.98zm545.2-27.3c-.8-1.27.39-13.55 1.52-15.82.43-.87 1.18-2.93 1.67-4.57.93-3.11 3.8-4.47 5.6-2.65 1.66 1.65 1.1 6.41-1.83 15.61-2.08 6.52-3.14 8.52-4.5 8.52-1 0-2.1-.49-2.47-1.08zm-71.79-2.6c-1.19-1.2.45-12.6 2.46-17.05 1.47-3.27 2.46-4.25 4.28-4.25 3.71 0 4.92 2.32 4.41 8.45-.54 6.57-4.8 13.54-8.26 13.54-1.2 0-2.5-.31-2.89-.7zm-410.79-6.14c-3.46-3.82-.75-17.36 4.1-20.46a3 3 0 0 0 1.25-2.25c0-.99 1.1-1.45 3.53-1.45 3.92 0 8.46-2.47 8.46-4.6 0-.77.38-1.4.84-1.4 1.03 0 3.44-7.02 3.1-9.03-.3-1.75.99-5 2.66-6.69a7.63 7.63 0 0 0 1.58-2.3c.25-.77 1.16-.78 3.09-.05 2.22.84 2.72 1.66 2.72 4.4 0 2.1-.75 4.05-2 5.18-2.82 2.56-2.61 4.7.4 3.94 1.3-.33 2.68-.12 3.05.47 1.02 1.66-2.5 8.15-5.06 9.32-1.87.85-2.11 1.4-1.29 2.94.56 1.04.88 4 .7 6.6-.22 3.62-.72 4.78-2.12 5.05-1.3.24-1.76-.2-1.59-1.5.33-2.5-1.12-9.23-2.12-9.85-1.25-.77-3.96 5.45-3.96 9.1 0 5.57-9 14.41-14.66 14.41-.56 0-1.77-.82-2.68-1.83zm7.8-6.32c1.4-.64 2.54-1.78 2.54-2.53 0-.76.68-1.63 1.5-1.95.83-.32 1.5-1.38 1.5-2.36 0-2.02-2.26-3.22-4.47-2.37-1.75.67-4.52 5.9-4.52 8.52 0 2.17.13 2.2 3.45.69zm105.7-1.04c-2.35-2.35-1.11-4.5 6.54-11.42 7.55-6.82 7.84-6.98 11.56-6.19 4.15.88 6.52.07 10.68-3.68a14.63 14.63 0 0 1 5.33-2.91 12.16 12.16 0 0 0 5.12-3.13c2.28-2.46 5.93-3.27 7-1.54.7 1.14-9.38 10.06-11.43 10.1-1.83.05-5.02 2.34-5.02 3.61 0 1.5-7.1 8.36-8.66 8.36-.8 0-3.33.98-5.63 2.17-6.67 3.45-7.58 3.83-9.19 3.83-.83 0-1.5.45-1.5 1 0 1.39-3.35 1.25-4.8-.2zm-49.68-9.8c-1.75-1.93-1.75-2.07 0-4 1-1.1 2.57-2 3.5-2 1.5 0 4.29-1.65 18.04-10.66 1.96-1.28 4.07-2.33 4.7-2.33.63 0 1.5-.58 1.94-1.28.44-.7 2.83-2.15 5.3-3.22 2.48-1.08 5.1-2.78 5.85-3.78 1.43-1.95 5.24-1.99 5.87-.06.58 1.78-5.61 8.28-8.58 9a17.67 17.67 0 0 0-5.37 2.74c-6.6 5.07-8.52 6.29-12.76 8.11-2.47 1.07-5.09 2.74-5.8 3.71-.72.97-1.78 1.77-2.35 1.77-.57 0-2.17.9-3.57 2s-3.09 2-3.75 2c-.67 0-2.03-.9-3.02-2zm358.7-17.76c-2-1.3-2.56-6.6-.93-8.75a7.8 7.8 0 0 0 1.53-3.68c.06-3.47 2.32-6.8 4.6-6.8 1.24 0 2.46.57 2.71 1.26.79 2.17-.5 12.18-1.76 13.74-.67.83-1.5 2.29-1.84 3.25-.65 1.83-2.4 2.23-4.3.98zM507 570.06a11.35 11.35 0 0 1-.62-5.14c.32-1.69-.34-2.89-2.43-4.44-3.14-2.31-3.68-4.83-1.45-6.68 1.67-1.39 4.21-9.54 5.08-16.3 1.1-8.5 6.18-12.34 12.92-9.77 2.17.82 2.56 1.6 2.56 5 0 2.83.43 4.02 1.44 4.02.8 0 1.7-.42 2.02-.94.32-.51 1.96-1.62 3.64-2.46 3.6-1.8 5.6-.93 8.2 3.6 2 3.49 2.3 13.39.5 17.3-2 4.42-11.14 6.98-15.86 4.45-1.25-.66-1.93-2.09-1.93-4 0-3.68-2.67-4-5.78-.7-1.74 1.85-2.18 3.74-2.42 10.25-.28 7.4-.46 8-2.55 8.3-1.69.24-2.51-.38-3.32-2.5zm26.86-23.07c.31-6.64-.48-7.6-3.7-4.5-1.96 1.87-3.62 8.6-2.55 10.32.35.58 1.84.9 3.3.74 2.51-.3 2.66-.63 2.95-6.56zm-15.8-2.25c0-.55 1.13-1 2.5-1 3.08 0 3.3-2.32.44-4.33-1.48-1.03-1.7-1.58-.75-1.9 1.07-.36 1.06-.75-.08-2.13-1.31-1.58-1.56-1.56-3.67.43-2.8 2.63-3.9 6.66-2.35 8.53 1.34 1.62 3.92 1.88 3.92.4zm409.64 15.4c-1.34-1.35-1.38-2.35-.29-7.59 1.43-6.82 3.89-10.33 5.48-7.8 1.24 1.95 1.22 6.58-.04 11.13-1.34 4.81-3.12 6.28-5.15 4.25zm-358.66-14.79c0-1.7.7-2.57 2.48-3.01 2.57-.65 8.75-4.33 11.77-7.03.96-.86 2.04-1.56 2.4-1.56.36 0 2.27-1.24 4.24-2.75 5.36-4.1 10.1-7.25 10.91-7.25.4 0 2.44-1.4 4.53-3.13 2.76-2.28 4.1-2.83 4.9-2.02 2.03 2.04-.9 5.86-8.14 10.58-3.85 2.52-7.36 5.15-7.8 5.86-1.24 1.99-10.43 7.7-12.39 7.7-.96 0-3.09 1.13-4.72 2.5-3.96 3.34-8.18 3.4-8.18.11zm-23.95-1.3c-1.78-2.25-2.07-3.8-1.83-9.74.26-6.3.51-7.06 2.3-7.06 1.73 0 2.03.77 2.3 5.8.28 5.45.43 5.76 2.5 5.15 2.4-.72 4.69-3.16 4.69-5.03 0-.66.65-2.45 1.45-3.99 1.29-2.48 1.26-3.1-.22-5.6-1.55-2.64-1.55-2.93.02-4.5 1.58-1.59 1.8-1.58 3.61.05 2.28 2.07 3.27 8.34 1.72 11-.8 1.39-.77 2 .1 2.31 1.27.46-3.46 9.3-4.98 9.3-.44 0-2.46 1.13-4.48 2.5-2.03 1.38-4 2.5-4.38 2.5-.38 0-1.64-1.2-2.8-2.68zm389.33-13.24c-1.63-1.8-1.64-2.17-.15-5.15.88-1.77 1.6-4.97 1.6-7.12 0-4.02 2.56-13.32 4.27-15.53.54-.68 1.87-1.25 2.97-1.25 1.83 0 1.95.47 1.4 5.25-1.13 9.73-3.13 18.33-4.9 21-.95 1.47-1.74 3.13-1.74 3.7 0 1.62-1.52 1.22-3.45-.9zm-365.77-3.64c-.33-.87-.6-3.34-.6-5.5 0-2.15-.46-3.91-1-3.91-2.32 0-.67-3.27 4.37-8.68 4.7-5.05 5.57-5.6 7-4.42 2.22 1.85 2.03 3.62-.63 5.78-2.88 2.33-4.75 7.7-4.75 13.63 0 3.93-.3 4.68-1.9 4.68-1.03 0-2.16-.71-2.49-1.58zm296.76.6c-.37-.6-.12-4.22.57-8.04.92-5.17 1.7-7.09 3.07-7.52 1-.32 2.29-.3 2.84.04 1.43.88 1.23 10.51-.28 13.5-1.33 2.65-5.06 3.86-6.2 2.02zm-232.4-22.8c0-1.75 7.96-9.2 9.82-9.2.52 0 1.68-1.13 2.58-2.5.9-1.38 2.12-2.5 2.7-2.5 1.13 0 14.58-10.72 16.8-13.38 1.66-2 6.08-2.15 6.08-.2 0 .78-2.28 3.37-5.08 5.75-2.8 2.38-7.18 6.17-9.75 8.42a64.15 64.15 0 0 1-7.9 5.96c-1.8 1.03-3.25 2.45-3.25 3.16 0 .7-.6 1.28-1.33 1.28-.73 0-2.38 1.13-3.67 2.5-2.78 2.96-7 3.4-7 .71zm-18.38-3.79c-.34-.87-.6-5.7-.58-10.74.04-9.95.89-12.1 5.2-13.19 1.44-.36 3.4-1.51 4.35-2.56.95-1.05 2.55-1.91 3.56-1.91 1.01 0 3.04-1.35 4.51-3 3.24-3.64 8.22-4.19 9.05-1 .29 1.1.83 2 1.2 2 1.46 0 3.09-2.51 3.09-4.77 0-1.3.5-3.34 1.12-4.54 1.72-3.37 7.1-8.68 8.76-8.68 1.92 0 7.1 4.93 7.1 6.75 0 .79.77 1.24 1.76 1.05 1.44-.29 1.75-1.47 1.8-6.82.01-3.57.55-7.42 1.19-8.57 2.05-3.7 9.15-9.4 11.72-9.4 3.16 0 4.39 2.37 5.18 9.97.35 3.35 1.02 6.32 1.5 6.6 1.6 1 .85 3.28-1.3 3.96-2.68.85-5.8-2.75-5.83-6.73-.03-3.57-1.68-4.43-4.17-2.18-1.8 1.64-1.96 2.65-1.44 9.55.48 6.38.3 7.87-.99 8.6-.86.48-2.1 1.96-2.76 3.29-.66 1.33-2.56 2.87-4.22 3.42-1.65.55-4.29 2-5.85 3.25-3.14 2.48-8 2.92-12.03 1.08-3.2-1.45-3.72-.92-3.8 3.84-.07 4.04-1.37 6.67-2.85 5.75-.5-.3-.89-2.77-.89-5.49 0-4.46-.22-4.93-2.26-4.93-3.36 0-5.08 3.6-4.84 10.14.21 5.99-.64 7.38-3.9 6.34-1.4-.44-2-1.5-2-3.56 0-2.21-.46-2.93-1.9-2.93-2.46 0-4.1 4.64-4.1 11.64 0 4.98-.16 5.35-2.38 5.35-1.32 0-2.67-.7-3-1.58zm44.34-32.08c1.83-2.34 2.48-5.86 1.03-5.58-.28.05-2.43 1.93-4.79 4.18l-4.29 4.08h2.97c2.03 0 3.63-.85 5.08-2.68zm216.26 18.1c-.92-2.41 2.07-13.64 3.95-14.83 3.74-2.36 5.06 3.69 2.7 12.44-.88 3.27-1.5 3.96-3.55 3.96-1.37 0-2.77-.71-3.1-1.58zm41.94-12.17c-5.65-5.91-10.95-12.06-11.78-13.65-1.64-3.16-2-6.6-.68-6.6.46 0 1.36-2.27 2-5.05 1.19-5.15 5.07-11.28 8.21-12.96 1.3-.69 2.77-.17 5.83 2.05 2.26 1.63 4.3 2.97 4.55 2.97s.69-5.06.97-11.24c.69-14.6.97-17.45 1.87-18.34.4-.4.73-1.8.73-3.08 0-1.3.54-3.21 1.2-4.27 1.46-2.33-.03-5.84-4.53-10.73-1.78-1.93-2.7-3.8-2.33-4.75.77-1.99 5.03-2.03 6.66-.06 1.74 2.1 2.26 1.9 4.25-1.59 3.24-5.69 1.38-11.15-4.5-13.23-2.2-.77-2.34-5.51-.18-6.34.86-.33 2.08-.09 2.7.53.62.63 2.39 1.14 3.93 1.14 2.52 0 2.8-.34 2.8-3.44 0-4.1 1.04-4.93 5.01-4.06 2.07.46 3.45 1.69 4.6 4.1.9 1.9 2.7 4.29 4 5.32 2.52 1.97 3.33 7.07 1.13 7.07-.69 0-3.37-2.36-5.95-5.25l-4.7-5.24-.05 4.8c-.04 4.44.35 5.23 5.09 10.24 4.3 4.55 4.92 5.67 3.87 6.93-1.7 2.05-3.34 1.9-5.5-.48-1-1.1-2.85-2-4.12-2-2.49 0-3.77 1.74-4.79 6.5-.57 2.66-.06 3.6 4.36 8 2.75 2.74 5.01 5.78 5.02 6.74.04 2.67-4.22 2.17-7.52-.88l-2.83-2.63-2.31 2.68c-1.27 1.48-2.3 3.04-2.3 3.47 0 .43 2.7 3.5 6.03 6.83l6.04 6.04-1.1 8.86c-1 8.19-1.37 9.15-4.74 12.62-3.2 3.27-4.07 3.67-6.95 3.13-3.06-.57-3.29-.43-3.29 2.1 0 1.48-.86 3.92-1.92 5.4-1.09 1.52-2.22 5.32-2.58 8.65l-.65 5.95 5.07 4.96c5.9 5.76 6.83 9.53 2.37 9.53-2.15 0-4.86-2.24-13-10.74zm1.3-16.86c.35-1.87 1.03-3.65 1.52-3.95.49-.3.89-2.29.89-4.41 0-3.47-.3-3.93-2.98-4.51-1.63-.36-3.4-.4-3.92-.07-.52.32-1.26 3.5-1.64 7.07-.56 5.22-.37 6.98 1 9.05 2.09 3.2 4.17 1.9 5.12-3.18zm17.2-19.58c.66-.66 1.2-3.79 1.2-6.96 0-4.67-.37-5.96-1.93-6.8-4.07-2.17-4.76-1.4-4.27 4.72.74 9.11 2.23 11.81 5 9.04zm10.71 41.22c-.32-.54-.33-3.12-.02-5.75.32-2.63.74-6.58.95-8.78.68-7.44 1.72-10.41 3.86-11.1 1.55-.48 2.66.08 4.38 2.23 2.93 3.66 2.9 5.78-.2 12.18-1.37 2.85-2.49 6-2.49 7.03 0 3.3-5.01 6.55-6.48 4.19zm-250.73-19.7c-1.58-1.57-.4-4.32 3.23-7.5 2.15-1.88 9.57-8.78 16.5-15.33 14.32-13.53 15.12-14.11 17.14-12.44 1.97 1.64 1.82 3.7-.31 4.38-.97.3-2.2 1.57-2.75 2.81-.55 1.24-2.23 2.85-3.74 3.56-1.51.72-2.75 1.68-2.75 2.12 0 1.74-10.86 12-13.36 12.63-1.45.37-2.63 1.15-2.63 1.75 0 1.45-7.84 8.7-9.42 8.7a3.1 3.1 0 0 1-1.91-.67zm190.91-13.99c-1.92-1.91.87-18.3 3.58-21 1.59-1.58 1.81-1.57 3.71.15 1.26 1.14 1.7 2.25 1.16 2.93-.48.6-1.4 4.21-2.06 8.02-.65 3.81-1.62 7.75-2.15 8.75-.99 1.83-3 2.38-4.24 1.15zm70.69-11.76c-.34-.86.12-4.77 1-8.69.89-3.91 1.6-8.56 1.6-10.33 0-4.06 2.97-7 6.06-6.01 2.01.63 2.15 1.16 1.64 6.15-.31 3-1.1 6.1-1.76 6.9-.66.8-1.48 4.03-1.82 7.18-.57 5.34-.8 5.76-3.37 6.05-1.8.2-2.96-.23-3.35-1.25zm-199.1-30.75c-1.91-1.92-1.43-3.54 2.3-7.67 1.93-2.12 3.5-4.37 3.5-4.98 0-.62 1.57-1.77 3.5-2.58 1.92-.8 3.5-1.95 3.5-2.54 0-.6 2.7-3.79 6-7.1 3.3-3.3 6-6.29 6-6.62 0-.33 1.14-2.11 2.54-3.95 2.92-3.83 5.68-4.27 7.8-1.24 1.36 1.94 1.2 2.46-2.06 6.75a68.67 68.67 0 0 1-4.16 5.14c-.35.28-1.12 1.4-1.73 2.5a8.93 8.93 0 0 1-3.24 3.09c-1.17.6-3.17 2.62-4.43 4.5-1.27 1.87-3.56 4.01-5.1 4.75a8.57 8.57 0 0 0-3.8 4.25c-.56 1.6-1.63 2.9-2.38 2.9s-1.85.9-2.44 2c-1.2 2.24-3.98 2.62-5.8.8zm141.43-13.71c-.8-1.6-1.1-3.3-.66-3.75.44-.46.95-1.96 1.13-3.33.4-2.96 3.53-3.42 5.2-.77.83 1.31.68 2.42-.64 4.65-.95 1.6-1.72 3.64-1.72 4.52 0 2.54-1.73 1.85-3.31-1.32zm72.46-10.74c-1.3-2.41 1.06-17.01 3.07-19.02 1.17-1.16 1.66-1.06 3.25.7 1.67 1.85 1.75 2.57.68 6.55a38.7 38.7 0 0 0-1.23 6.2c-.01.95-1.1 3.03-2.39 4.61-2.23 2.73-2.41 2.78-3.38.96zm-145.09-17.8c-.96-1.15-.92-2.04.2-4.24 2.67-5.3 4.27-7.79 5.52-8.58.69-.44 1.25-1.28 1.25-1.86 0-.58 1.38-2.8 3.08-4.95 2.08-2.62 3.88-3.89 5.53-3.89 1.37 0 2.73-.74 3.1-1.69.35-.93 2.47-3.56 4.7-5.85a79.14 79.14 0 0 0 7.08-8.5c3.57-5.16 4.89-5.51 5.3-1.4.2 2.16-.45 3.85-2.26 5.8-1.4 1.51-2.54 3-2.54 3.31 0 .31-1.64 2.8-3.63 5.51-3.24 4.4-3.5 5.23-2.47 7.5 1.47 3.22.5 4.48-5.73 7.43-2.57 1.22-6.84 4.61-9.5 7.55-4.92 5.44-7.47 6.46-9.63 3.87zm80.23-3.2c-.82-2.14 1.54-11.94 3.21-13.33 2.64-2.19 3.73-.08 3 5.78-.38 3.05-.9 6.1-1.17 6.78-.75 1.95-4.37 2.5-5.04.78zm-91.05-17.52c-1.93-1.93-1.5-2.8 4.3-8.88 3.02-3.17 5.5-6.29 5.5-6.92 0-.64 3.4-5.06 7.59-9.82 4.17-4.77 9.02-11.1 10.76-14.09 3.53-6.02 4.45-6.67 6.87-4.83 1.54 1.17 1.5 1.63-.52 6.26-1.2 2.75-2.95 5.9-3.88 7-6.17 7.24-12.82 16.18-12.83 17.24 0 .68-.6 1.25-1.31 1.25-1.59 0-6.69 5.14-6.69 6.74 0 .63-.82 1.73-1.81 2.44-1 .72-2.11 2.1-2.47 3.06-.75 2.01-3.75 2.31-5.51.55zm164.9-5.88c-.81-1.3-.95-2.5-.38-3.24 1.14-1.46 2.15-5.48 3.2-12.82.45-3.1 1.6-6.84 2.56-8.31l1.75-2.67 2.34 2.52c2.85 3.07 2.97 6.4.42 10.8-1.06 1.82-2.24 5.56-2.62 8.3-.4 2.75-1.16 5.56-1.7 6.25-1.5 1.89-4.11 1.5-5.57-.83zm-17.53-8.1c-.9-.5-1.64-1.32-1.64-1.82s-1.13-2.03-2.5-3.4l-2.5-2.5-1.62 2.45c-1.74 2.66-5.12 3.29-5.96 1.11-.28-.74-.14-3.55.32-6.25.86-5.06-.37-8.17-5.1-12.9-2.13-2.13-2.13-5.5.01-5.5.91 0 3.18 1.58 5.05 3.5 1.87 1.93 4.26 3.5 5.31 3.5 2.04 0 3.99 2.74 3.99 5.61 0 .96 2.25 4.32 5 7.48 2.74 3.16 5 6.4 5 7.21 0 1.83-3.19 2.73-5.36 1.52zm-45.78-11.56c-.18-1.95-.03-3.18.99-8.23.87-4.36 3.66-5.2 5.3-1.61 1.59 3.47-1.37 11.6-4.22 11.6-1.1 0-1.98-.76-2.07-1.76zm47.34-2.45a4.2 4.2 0 0 1-1.2-2.46c0-.7-1.34-2.78-2.97-4.64-4.6-5.25-5.23-7.84-3.33-13.73.9-2.78 2.5-5.53 3.57-6.1 6.33-3.39 16.72 5.96 16.72 15.04 0 2.19-.46 4.26-1.01 4.6-.56.35-1.92 2.4-3.02 4.56-1.61 3.15-2.56 3.93-4.79 3.93-1.52 0-3.31-.54-3.97-1.2zm6.8-12.98c0-4.36-2.7-7.8-6.12-7.8-2.72 0-2.88.23-2.88 4.19 0 3.18.64 4.86 2.68 6.98 2.5 2.62 2.79 2.7 4.5 1.15 1-.9 1.81-2.94 1.81-4.52zm24.58-24.7c-1.78-1.96-2.15-6.64-.6-7.6.55-.34 1-1.64 1-2.9s.5-3.71 1.1-5.44c1.44-4.14 4.33-4.15 6.46-.02 1.4 2.7 1.45 3.77.36 7.74-2.28 8.31-5.43 11.42-8.33 8.22zm-129.87-2.77c-1.58-1.58-.36-4.7 4.08-10.4 2.61-3.34 5.33-7.17 6.05-8.5.72-1.33 1.73-2.42 2.25-2.42s.95-.64.95-1.43c0-.78.56-2.02 1.25-2.74 2.62-2.78 6.74-8.74 6.74-9.76 0-.58.45-1.06 1-1.06s1-.55 1-1.23c0-.68 1.46-3.39 3.25-6.03 2.6-3.84 3.74-4.74 5.74-4.52 2.84.32 3.99 3.54 1.86 5.24-1.35 1.09-3.38 4.45-7.24 12.04-2.38 4.67-6.76 10.59-12.18 16.44-2.12 2.29-4.46 5.6-5.2 7.35-2.43 5.8-7.24 9.34-9.55 7.02zm63.5-7.52c-1.35-1.36-1.61-3.8-.4-3.8.43 0 1.22-1.46 1.74-3.25.75-2.55 1.5-3.25 3.46-3.25 3.38 0 3.8 3.46.99 8.01-2.26 3.67-3.8 4.27-5.79 2.29zm56.26-21.65c-2.79-2.32-13.48-14.7-13.48-15.62 0-.41-1.9-2.6-4.25-4.86-4.61-4.47-6.74-7.85-6.74-10.7 0-3.7 2.25-3.01 6.98 2.14 5.9 6.41 7.42 5.84 8.44-3.18l.69-6.06-4.56-5.33c-5.23-6.12-5.95-9.51-2.03-9.51 1.5 0 2.8.72 3.19 1.75.66 1.77 11.65 14.46 18.52 21.38 4.16 4.19 4.43 5.04 2.27 7.2-2 1.99-5.4.95-6.11-1.87-.8-3.16-4.95-6.86-6.87-6.12-2.24.86-3.47 4.8-3.02 9.72.32 3.59 1.26 5.15 5.93 9.87 3.06 3.08 5.55 6.12 5.55 6.74 0 .63.34 1.29.75 1.47.42.19-.15 1.3-1.26 2.49-1.89 2.01-2.14 2.04-4 .5zM940 227.53c-1.14-1.36-.7-6.37.88-10.13.47-1.1 1.08-3.13 1.37-4.5 1.61-7.79 2.32-9.5 4.04-9.84 2.84-.54 3.39 1.47 1.92 7.1-.73 2.85-1.34 6.4-1.34 7.9s-.4 2.96-.88 3.27c-.49.3-1.18 2.12-1.55 4.05-.68 3.63-2.49 4.51-4.44 2.16zm69.86-10.6c-2.33-4.36 2.6-14.62 6-12.51 1.32.81 1.24 5.9-.18 10.61-1.29 4.32-4.04 5.22-5.82 1.9zm-17.83-15.34c-1.2-1.27-2.18-2.83-2.18-3.46 0-.64-1.28-2.63-2.85-4.44-2.11-2.43-3.01-4.74-3.5-8.96-.79-6.93.37-10.35 3.8-11.2 4.6-1.17 9.9 2.71 13.6 9.98 2.34 4.6 2.42 6.27.45 10.03-.82 1.58-1.5 3.81-1.5 4.96 0 2.12-2.83 5.4-4.65 5.4-.55 0-1.98-1.04-3.17-2.31zm3.82-12.5c0-2.9-.7-4.47-2.92-6.6-1.6-1.54-3.4-2.5-4-2.13-1.95 1.22-1.14 6.32 1.51 9.47 3.59 4.26 5.41 4.02 5.41-.73zm-78.4 5.92c-.6-.96 1.13-4.99 2.62-6.12 1.1-.83 6.81-12.07 6.81-13.4 0-.67 1.12-2.27 2.47-3.54 1.36-1.28 3-3.94 3.65-5.93 2.18-6.63 5.78-11 9.13-11.06 2.31-.04 2.21 2.1-.25 5.24-1.1 1.4-2 3.16-2 3.93s-.4 1.82-.9 2.34c-.84.9-4.42 7.27-9.77 17.4-1.3 2.44-2.69 4.69-3.1 5-.4.3-1.48 1.89-2.4 3.54-1.7 3.04-5.11 4.45-6.26 2.6zm34.77-16.34c1.02-9.9 3.03-20.24 4.1-20.98 3.7-2.58 5.03.89 3.17 8.27-.76 3-1.7 7.21-2.07 9.35-.75 4.2-3.18 8.6-4.76 8.6-.58 0-.75-2.13-.44-5.24zm68.29-.42c-1.34-1.34-.62-7.55 1.38-11.95 1.64-3.6 2.5-4.44 4.25-4.19 1.67.24 2.27 1.1 2.5 3.56.19 1.83-.14 3.25-.74 3.25-.59 0-1.06.92-1.06 2.05 0 4.71-4.14 9.47-6.33 7.28zm-20.31-4.1c-1.64-1.05-10.34-14.48-10.34-15.97 0-2.85 4.55-1.13 7.3 2.77 3.66 5.16 6.69 5.4 6.69.5 0-2.41-.9-4.48-3-6.87-1.65-1.88-3-3.81-3-4.3 0-.47-.9-1.43-2-2.12-1.13-.7-2-2.33-2-3.74 0-4.07 3.3-3.03 9.99 3.16l6.1 5.65-.64 7.1c-1 11.35-4.55 16.73-9.1 13.82zm28.08-27.5c-.27-.72 0-4.43.62-8.25.6-3.83 1.46-9.44 1.88-12.46.68-4.82 5.04-14.53 5.05-11.24 0 .68.96 1.25 2.14 1.25 2 0 2.1.35 1.55 5.73-.33 3.15-1.06 5.88-1.64 6.08-.58.19-1.05 1.3-1.05 2.45 0 3.03-3.12 13.72-4.01 13.72-.41 0-.99.9-1.28 2-.58 2.25-2.51 2.67-3.26.71zm-23.94-2.73c-1.03-1.67.35-4.44 2.75-5.5 2.9-1.27 3.7-5.48 1.03-5.48-1.03 0-2.36.49-2.96 1.08-.6.6-2.15.94-3.45.75-2.16-.3-2.39-.87-2.66-6.7-.23-4.9.1-6.8 1.4-8.24 2.95-3.25 4.4-2.35 4.4 2.73v4.61l2.62-1.72c2.54-1.67 2.7-1.64 5.12.78 3.56 3.56 3.54 9.16-.03 14.56-2.72 4.1-6.68 5.61-8.22 3.13zm-55.47-6.79c0-1.54 1.13-4.33 2.5-6.2 1.38-1.85 2.5-4.2 2.5-5.18 0-1 .47-1.8 1.05-1.8.58 0 1.52-1.33 2.08-2.95.64-1.83 1.84-3.05 3.2-3.25 1.8-.25 2.34-1.33 3.27-6.53 1.77-9.91 4.33-11.66 8.25-5.61 1.87 2.88 2.22 4.43 1.73 7.53-.35 2.14-1.03 4.66-1.52 5.6-.49.94-1.45 4.3-2.14 7.46-1.43 6.6-3.1 8.66-5.46 6.7-1.18-.97-1.38-2.35-.87-5.86l.66-4.6-2.13 2.66c-1.16 1.46-2.12 3.16-2.12 3.78 0 .62-.76 2.35-1.69 3.84-4.64 7.5-9.3 9.7-9.3 4.41zm58.41-22.43c-3.03-2.79-3.62-4.07-4.12-8.97-.69-6.73.59-9.33 6.04-12.27 2.86-1.54 3.86-1.68 4.84-.7 1.78 1.78 1.18 10.11-.9 12.4-1.48 1.65-1.51 2.04-.26 2.83 3.56 2.26 6.46-.19 7.36-6.2.55-3.72.28-5.44-1.35-8.48-2.48-4.62-2.5-4.96-.4-5.77 2.2-.85 5.98 2.78 7.4 7.1 1.45 4.38.33 12.55-2.14 15.7-1.05 1.33-1.91 2.84-1.91 3.36 0 2.02-3.84 4.24-7.34 4.24-2.77 0-4.57-.8-7.22-3.24zm32.22-19.41c-1.19-1.19-.71-9.39.91-15.65.87-3.36 1.41-7.62 1.2-9.46-.46-3.89 1.85-5.77 5.85-4.77 4.84 1.22 5.58 11.13 1.36 18.28-1.1 1.86-2 4.38-2 5.6 0 4.44-4.88 8.44-7.32 6zM975 84.65c-1.15-1.38-.5-8.38.93-10.23.45-.57 1.34-5.17 1.99-10.22 1.3-10.22 2.46-11.55 7.7-8.84 2.49 1.29 2.82 1.95 2.42 4.8-.25 1.82-.8 3.76-1.2 4.31-.42.55-1.58 4.6-2.6 9-1 4.4-2.1 8.22-2.43 8.5-.34.27-.9 1.28-1.26 2.24-.76 2.06-4 2.31-5.55.44zm11.06-56.1c-1.6-2.03-1.95-4.3-2.11-13.51-.17-9.86 0-11.14 1.6-11.66.98-.32 3.13-1.2 4.78-1.95 2.76-1.25 3.15-1.18 4.77.86 1.44 1.8 1.68 3.43 1.23 8.7-.3 3.58-.64 8.53-.77 11-.13 2.47-.8 5.51-1.51 6.75-1.71 3-5.55 2.9-7.99-.2zm66.56 1.76c-.93-.25-1.97-1.76-2.32-3.36-.94-4.28.5-14.07 2.5-16.95a19.17 19.17 0 0 0 2.41-6.25c.63-3.43.96-3.75 3.96-3.75 2.14 0 4.04.8 5.45 2.31 2.25 2.4 2.93 5.69 1.18 5.69-.55 0-1 .68-1 1.5 0 .84-.9 2.28-2 3.23-2.21 1.89-2.6 3.9-.88 4.47 1.67.55.12 8.22-2.27 11.26-1.91 2.43-3.38 2.81-7.03 1.85z"/>
</svg>
